<?xml version="1.0" encoding="utf-8" ?>
<svg baseProfile="full" height="100%" version="1.1" width="100%" xmlns="http://www.w3.org/2000/svg" xmlns:ev="http://www.w3.org/2001/xml-events" xmlns:xlink="http://www.w3.org/1999/xlink"><defs /><rect fill="#000" height="500" width="500" x="0" y="0" /><line stroke="rgb(253,0,0)" stroke-width="2" x1="476" x2="485" y1="346" y2="287" /><line stroke="rgb(254,0,0)" stroke-width="1" x1="485" x2="350" y1="287" y2="486" /><line stroke="rgb(254,0,0)" stroke-width="1" x1="350" x2="225" y1="486" y2="16" /><line stroke="rgb(254,0,0)" stroke-width="1" x1="225" x2="104" y1="16" y2="420" /><line stroke="rgb(253,0,0)" stroke-width="2" x1="104" x2="483" y1="420" y2="454" /><line stroke="rgb(254,0,0)" stroke-width="1" x1="483" x2="15" y1="454" y2="186" /><line stroke="rgb(255,0,0)" stroke-width="0" x1="15" x2="376" y1="186" y2="22" /><line stroke="rgb(255,0,0)" stroke-width="0" x1="376" x2="191" y1="22" y2="292" /><line stroke="rgb(254,0,0)" stroke-width="1" x1="191" x2="178" y1="292" y2="256" /><line stroke="rgb(254,0,0)" stroke-width="1" x1="178" x2="472" y1="256" y2="156" /><line stroke="rgb(254,0,0)" stroke-width="1" x1="472" x2="291" y1="156" y2="132" /><line stroke="rgb(253,0,0)" stroke-width="2" x1="291" x2="288" y1="132" y2="110" /><line stroke="rgb(253,0,0)" stroke-width="2" x1="288" x2="168" y1="110" y2="428" /><line stroke="rgb(255,0,0)" stroke-width="0" x1="168" x2="367" y1="428" y2="301" /><line stroke="rgb(254,0,0)" stroke-width="1" x1="367" x2="172" y1="301" y2="419" /><line stroke="rgb(254,0,0)" stroke-width="1" x1="172" x2="110" y1="419" y2="325" /><line stroke="rgb(254,0,0)" stroke-width="1" x1="110" x2="331" y1="325" y2="332" /><line stroke="rgb(254,0,0)" stroke-width="1" x1="331" x2="147" y1="332" y2="231" /><line stroke="rgb(255,0,0)" stroke-width="0" x1="147" x2="219" y1="231" y2="365" /><line stroke="rgb(254,0,0)" stroke-width="1" x1="219" x2="254" y1="365" y2="301" /><line stroke="rgb(255,0,0)" stroke-width="0" x1="254" x2="122" y1="301" y2="332" /><line stroke="rgb(254,0,0)" stroke-width="1" x1="122" x2="332" y1="332" y2="495" /><line stroke="rgb(254,0,0)" stroke-width="1" x1="332" x2="417" y1="495" y2="200" /><line stroke="rgb(255,0,0)" stroke-width="0" x1="417" x2="204" y1="200" y2="255" /><line stroke="rgb(255,0,0)" stroke-width="0" x1="204" x2="118" y1="255" y2="257" /><line stroke="rgb(255,0,0)" stroke-width="0" x1="118" x2="112" y1="257" y2="450" /><line stroke="rgb(253,0,0)" stroke-width="2" x1="112" x2="189" y1="450" y2="67" /><line stroke="rgb(253,0,0)" stroke-width="2" x1="189" x2="125" y1="67" y2="482" /><line stroke="rgb(254,0,0)" stroke-width="1" x1="125" x2="177" y1="482" y2="296" /><line stroke="rgb(253,0,0)" stroke-width="2" x1="177" x2="38" y1="296" y2="314" /><line stroke="rgb(255,0,0)" stroke-width="0" x1="38" x2="18" y1="314" y2="395" /><line stroke="rgb(253,0,0)" stroke-width="2" x1="18" x2="130" y1="395" y2="294" /><line stroke="rgb(255,0,0)" stroke-width="0" x1="130" x2="388" y1="294" y2="252" /><line stroke="rgb(255,0,0)" stroke-width="0" x1="388" x2="200" y1="252" y2="424" /><line stroke="rgb(253,0,0)" stroke-width="2" x1="200" x2="303" y1="424" y2="339" /><line stroke="rgb(255,0,0)" stroke-width="0" x1="303" x2="42" y1="339" y2="444" /><line stroke="rgb(254,0,0)" stroke-width="1" x1="42" x2="425" y1="444" y2="489" /><line stroke="rgb(253,0,0)" stroke-width="2" x1="425" x2="251" y1="489" y2="415" /><line stroke="rgb(254,0,0)" stroke-width="1" x1="251" x2="452" y1="415" y2="420" /><line stroke="rgb(254,0,0)" stroke-width="1" x1="452" x2="429" y1="420" y2="33" /><line stroke="rgb(255,0,0)" stroke-width="0" x1="429" x2="345" y1="33" y2="176" /><line stroke="rgb(254,0,0)" stroke-width="1" x1="345" x2="484" y1="176" y2="488" /><line stroke="rgb(255,0,0)" stroke-width="0" x1="484" x2="154" y1="488" y2="307" /><line stroke="rgb(254,0,0)" stroke-width="1" x1="154" x2="183" y1="307" y2="230" /><line stroke="rgb(254,0,0)" stroke-width="1" x1="183" x2="261" y1="230" y2="182" /><line stroke="rgb(255,0,0)" stroke-width="0" x1="261" x2="489" y1="182" y2="216" /><line stroke="rgb(253,0,0)" stroke-width="2" x1="489" x2="392" y1="216" y2="15" /><line stroke="rgb(255,0,0)" stroke-width="0" x1="392" x2="90" y1="15" y2="194" /><line stroke="rgb(255,0,0)" stroke-width="0" x1="90" x2="139" y1="194" y2="155" /><line stroke="rgb(254,0,0)" stroke-width="1" x1="139" x2="230" y1="155" y2="107" /><line stroke="rgb(255,0,0)" stroke-width="0" x1="230" x2="21" y1="107" y2="276" /><line stroke="rgb(255,0,0)" stroke-width="0" x1="21" x2="107" y1="276" y2="11" /><line stroke="rgb(253,0,0)" stroke-width="2" x1="107" x2="25" y1="11" y2="207" /><line stroke="rgb(255,0,0)" stroke-width="0" x1="25" x2="214" y1="207" y2="89" /><line stroke="rgb(254,0,0)" stroke-width="1" x1="214" x2="343" y1="89" y2="329" /><line stroke="rgb(254,0,0)" stroke-width="1" x1="343" x2="448" y1="329" y2="15" /><line stroke="rgb(253,0,0)" stroke-width="2" x1="448" x2="318" y1="15" y2="182" /><line stroke="rgb(253,0,0)" stroke-width="2" x1="318" x2="337" y1="182" y2="24" /><line stroke="rgb(254,0,0)" stroke-width="1" x1="337" x2="381" y1="24" y2="156" /><line stroke="rgb(253,0,0)" stroke-width="2" x1="381" x2="453" y1="156" y2="115" /><line stroke="rgb(253,0,0)" stroke-width="2" x1="453" x2="205" y1="115" y2="346" /><line stroke="rgb(254,0,0)" stroke-width="1" x1="205" x2="6" y1="346" y2="391" /><line stroke="rgb(254,0,0)" stroke-width="1" x1="6" x2="132" y1="391" y2="320" /><line stroke="rgb(255,0,0)" stroke-width="0" x1="132" x2="37" y1="320" y2="400" /><line stroke="rgb(254,0,0)" stroke-width="1" x1="37" x2="484" y1="400" y2="470" /><line stroke="rgb(253,0,0)" stroke-width="2" x1="484" x2="207" y1="470" y2="310" /><line stroke="rgb(254,0,0)" stroke-width="1" x1="207" x2="243" y1="310" y2="151" /><line stroke="rgb(254,0,0)" stroke-width="1" x1="243" x2="431" y1="151" y2="376" /><line stroke="rgb(254,0,0)" stroke-width="1" x1="431" x2="128" y1="376" y2="278" /><line stroke="rgb(253,0,0)" stroke-width="2" x1="128" x2="79" y1="278" y2="207" /><line stroke="rgb(255,0,0)" stroke-width="0" x1="79" x2="16" y1="207" y2="74" /><line stroke="rgb(255,0,0)" stroke-width="0" x1="16" x2="205" y1="74" y2="1" /><line stroke="rgb(255,0,0)" stroke-width="0" x1="205" x2="458" y1="1" y2="300" /><line stroke="rgb(253,0,0)" stroke-width="2" x1="458" x2="160" y1="300" y2="126" /><line stroke="rgb(253,0,0)" stroke-width="2" x1="160" x2="416" y1="126" y2="346" /><line stroke="rgb(253,0,0)" stroke-width="2" x1="416" x2="318" y1="346" y2="384" /><line stroke="rgb(254,0,0)" stroke-width="1" x1="318" x2="132" y1="384" y2="327" /><line stroke="rgb(254,0,0)" stroke-width="1" x1="132" x2="74" y1="327" y2="218" /><line stroke="rgb(255,0,0)" stroke-width="0" x1="74" x2="318" y1="218" y2="296" /><line stroke="rgb(255,0,0)" stroke-width="0" x1="318" x2="10" y1="296" y2="313" /><line stroke="rgb(255,0,0)" stroke-width="0" x1="10" x2="485" y1="313" y2="181" /><line stroke="rgb(255,0,0)" stroke-width="0" x1="485" x2="237" y1="181" y2="333" /><line stroke="rgb(254,0,0)" stroke-width="1" x1="237" x2="367" y1="333" y2="259" /><line stroke="rgb(254,0,0)" stroke-width="1" x1="367" x2="397" y1="259" y2="148" /><line stroke="rgb(254,0,0)" stroke-width="1" x1="397" x2="484" y1="148" y2="15" /><line stroke="rgb(254,0,0)" stroke-width="1" x1="484" x2="328" y1="15" y2="18" /><line stroke="rgb(253,0,0)" stroke-width="2" x1="328" x2="475" y1="18" y2="343" /><line stroke="rgb(254,0,0)" stroke-width="1" x1="475" x2="457" y1="343" y2="259" /><line stroke="rgb(253,0,0)" stroke-width="2" x1="457" x2="438" y1="259" y2="1" /><line stroke="rgb(255,0,0)" stroke-width="0" x1="438" x2="35" y1="1" y2="255" /><line stroke="rgb(253,0,0)" stroke-width="2" x1="35" x2="329" y1="255" y2="355" /><line stroke="rgb(254,0,0)" stroke-width="1" x1="329" x2="379" y1="355" y2="96" /><line stroke="rgb(254,0,0)" stroke-width="1" x1="379" x2="368" y1="96" y2="103" /><line stroke="rgb(255,0,0)" stroke-width="0" x1="368" x2="454" y1="103" y2="107" /><line stroke="rgb(254,0,0)" stroke-width="1" x1="454" x2="248" y1="107" y2="123" /><line stroke="rgb(255,0,0)" stroke-width="0" x1="248" x2="437" y1="123" y2="245" /><line stroke="rgb(255,0,0)" stroke-width="0" x1="437" x2="19" y1="245" y2="187" /><line stroke="rgb(253,0,0)" stroke-width="2" x1="19" x2="453" y1="187" y2="324" /><line stroke="rgb(253,0,0)" stroke-width="2" x1="453" x2="241" y1="324" y2="308" /><line stroke="rgb(255,0,0)" stroke-width="0" x1="241" x2="219" y1="308" y2="33" /></svg>