<?xml version="1.0" encoding="utf-8" ?>
<svg baseProfile="full" height="100%" version="1.1" width="100%" xmlns="http://www.w3.org/2000/svg" xmlns:ev="http://www.w3.org/2001/xml-events" xmlns:xlink="http://www.w3.org/1999/xlink"><defs /><rect fill="#000" height="500" width="500" x="0" y="0" /><line stroke="rgb(155,0,0)" stroke-width="1" x1="414" x2="434" y1="64" y2="259" /><line stroke="rgb(155,0,0)" stroke-width="1" x1="434" x2="265" y1="259" y2="167" /><line stroke="rgb(155,0,0)" stroke-width="1" x1="265" x2="357" y1="167" y2="301" /><line stroke="rgb(255,0,0)" stroke-width="0" x1="357" x2="103" y1="301" y2="490" /><line stroke="rgb(155,0,0)" stroke-width="1" x1="103" x2="431" y1="490" y2="330" /><line stroke="rgb(149,0,0)" stroke-width="2" x1="431" x2="493" y1="330" y2="359" /><line stroke="rgb(155,0,0)" stroke-width="1" x1="493" x2="74" y1="359" y2="321" /><line stroke="rgb(155,0,0)" stroke-width="1" x1="74" x2="207" y1="321" y2="225" /><line stroke="rgb(149,0,0)" stroke-width="2" x1="207" x2="163" y1="225" y2="198" /><line stroke="rgb(255,0,0)" stroke-width="0" x1="163" x2="67" y1="198" y2="133" /><line stroke="rgb(255,0,0)" stroke-width="0" x1="67" x2="311" y1="133" y2="251" /><line stroke="rgb(155,0,0)" stroke-width="1" x1="311" x2="187" y1="251" y2="249" /><line stroke="rgb(155,0,0)" stroke-width="1" x1="187" x2="486" y1="249" y2="427" /><line stroke="rgb(149,0,0)" stroke-width="2" x1="486" x2="177" y1="427" y2="482" /><line stroke="rgb(155,0,0)" stroke-width="1" x1="177" x2="237" y1="482" y2="164" /><line stroke="rgb(149,0,0)" stroke-width="2" x1="237" x2="487" y1="164" y2="196" /><line stroke="rgb(155,0,0)" stroke-width="1" x1="487" x2="51" y1="196" y2="95" /><line stroke="rgb(155,0,0)" stroke-width="1" x1="51" x2="164" y1="95" y2="326" /><line stroke="rgb(255,0,0)" stroke-width="0" x1="164" x2="15" y1="326" y2="142" /><line stroke="rgb(155,0,0)" stroke-width="1" x1="15" x2="51" y1="142" y2="465" /><line stroke="rgb(155,0,0)" stroke-width="1" x1="51" x2="310" y1="465" y2="276" /><line stroke="rgb(255,0,0)" stroke-width="0" x1="310" x2="322" y1="276" y2="256" /><line stroke="rgb(255,0,0)" stroke-width="0" x1="322" x2="354" y1="256" y2="252" /><line stroke="rgb(155,0,0)" stroke-width="1" x1="354" x2="47" y1="252" y2="4" /><line stroke="rgb(255,0,0)" stroke-width="0" x1="47" x2="341" y1="4" y2="242" /><line stroke="rgb(149,0,0)" stroke-width="2" x1="341" x2="335" y1="242" y2="71" /><line stroke="rgb(255,0,0)" stroke-width="0" x1="335" x2="54" y1="71" y2="312" /><line stroke="rgb(255,0,0)" stroke-width="0" x1="54" x2="142" y1="312" y2="379" /><line stroke="rgb(155,0,0)" stroke-width="1" x1="142" x2="353" y1="379" y2="94" /><line stroke="rgb(149,0,0)" stroke-width="2" x1="353" x2="10" y1="94" y2="474" /><line stroke="rgb(155,0,0)" stroke-width="1" x1="10" x2="453" y1="474" y2="62" /><line stroke="rgb(155,0,0)" stroke-width="1" x1="453" x2="481" y1="62" y2="284" /><line stroke="rgb(149,0,0)" stroke-width="2" x1="481" x2="160" y1="284" y2="464" /><line stroke="rgb(255,0,0)" stroke-width="0" x1="160" x2="98" y1="464" y2="187" /><line stroke="rgb(255,0,0)" stroke-width="0" x1="98" x2="44" y1="187" y2="135" /><line stroke="rgb(255,0,0)" stroke-width="0" x1="44" x2="363" y1="135" y2="416" /><line stroke="rgb(255,0,0)" stroke-width="0" x1="363" x2="38" y1="416" y2="385" /><line stroke="rgb(155,0,0)" stroke-width="1" x1="38" x2="122" y1="385" y2="385" /><line stroke="rgb(149,0,0)" stroke-width="2" x1="122" x2="16" y1="385" y2="314" /><line stroke="rgb(155,0,0)" stroke-width="1" x1="16" x2="266" y1="314" y2="158" /><line stroke="rgb(155,0,0)" stroke-width="1" x1="266" x2="310" y1="158" y2="255" /><line stroke="rgb(149,0,0)" stroke-width="2" x1="310" x2="142" y1="255" y2="481" /><line stroke="rgb(255,0,0)" stroke-width="0" x1="142" x2="93" y1="481" y2="13" /><line stroke="rgb(149,0,0)" stroke-width="2" x1="93" x2="65" y1="13" y2="267" /><line stroke="rgb(149,0,0)" stroke-width="2" x1="65" x2="85" y1="267" y2="329" /><line stroke="rgb(255,0,0)" stroke-width="0" x1="85" x2="278" y1="329" y2="143" /><line stroke="rgb(155,0,0)" stroke-width="1" x1="278" x2="360" y1="143" y2="132" /><line stroke="rgb(155,0,0)" stroke-width="1" x1="360" x2="207" y1="132" y2="74" /><line stroke="rgb(255,0,0)" stroke-width="0" x1="207" x2="210" y1="74" y2="234" /><line stroke="rgb(149,0,0)" stroke-width="2" x1="210" x2="422" y1="234" y2="417" /><line stroke="rgb(155,0,0)" stroke-width="1" x1="422" x2="110" y1="417" y2="490" /><line stroke="rgb(255,0,0)" stroke-width="0" x1="110" x2="279" y1="490" y2="43" /><line stroke="rgb(155,0,0)" stroke-width="1" x1="279" x2="187" y1="43" y2="313" /><line stroke="rgb(155,0,0)" stroke-width="1" x1="187" x2="293" y1="313" y2="393" /><line stroke="rgb(155,0,0)" stroke-width="1" x1="293" x2="71" y1="393" y2="435" /><line stroke="rgb(149,0,0)" stroke-width="2" x1="71" x2="328" y1="435" y2="297" /><line stroke="rgb(255,0,0)" stroke-width="0" x1="328" x2="184" y1="297" y2="276" /><line stroke="rgb(255,0,0)" stroke-width="0" x1="184" x2="425" y1="276" y2="473" /><line stroke="rgb(155,0,0)" stroke-width="1" x1="425" x2="281" y1="473" y2="404" /><line stroke="rgb(149,0,0)" stroke-width="2" x1="281" x2="300" y1="404" y2="54" /><line stroke="rgb(149,0,0)" stroke-width="2" x1="300" x2="10" y1="54" y2="185" /><line stroke="rgb(255,0,0)" stroke-width="0" x1="10" x2="165" y1="185" y2="51" /><line stroke="rgb(155,0,0)" stroke-width="1" x1="165" x2="182" y1="51" y2="14" /><line stroke="rgb(155,0,0)" stroke-width="1" x1="182" x2="426" y1="14" y2="356" /><line stroke="rgb(149,0,0)" stroke-width="2" x1="426" x2="365" y1="356" y2="272" /><line stroke="rgb(255,0,0)" stroke-width="0" x1="365" x2="389" y1="272" y2="322" /><line stroke="rgb(149,0,0)" stroke-width="2" x1="389" x2="108" y1="322" y2="280" /><line stroke="rgb(255,0,0)" stroke-width="0" x1="108" x2="185" y1="280" y2="281" /><line stroke="rgb(149,0,0)" stroke-width="2" x1="185" x2="199" y1="281" y2="326" /><line stroke="rgb(149,0,0)" stroke-width="2" x1="199" x2="228" y1="326" y2="498" /><line stroke="rgb(255,0,0)" stroke-width="0" x1="228" x2="426" y1="498" y2="459" /><line stroke="rgb(255,0,0)" stroke-width="0" x1="426" x2="439" y1="459" y2="45" /><line stroke="rgb(155,0,0)" stroke-width="1" x1="439" x2="486" y1="45" y2="108" /><line stroke="rgb(149,0,0)" stroke-width="2" x1="486" x2="182" y1="108" y2="167" /><line stroke="rgb(255,0,0)" stroke-width="0" x1="182" x2="29" y1="167" y2="217" /><line stroke="rgb(149,0,0)" stroke-width="2" x1="29" x2="59" y1="217" y2="266" /><line stroke="rgb(155,0,0)" stroke-width="1" x1="59" x2="29" y1="266" y2="204" /><line stroke="rgb(255,0,0)" stroke-width="0" x1="29" x2="238" y1="204" y2="119" /><line stroke="rgb(255,0,0)" stroke-width="0" x1="238" x2="82" y1="119" y2="461" /><line stroke="rgb(155,0,0)" stroke-width="1" x1="82" x2="254" y1="461" y2="458" /><line stroke="rgb(155,0,0)" stroke-width="1" x1="254" x2="0" y1="458" y2="472" /><line stroke="rgb(255,0,0)" stroke-width="0" x1="0" x2="308" y1="472" y2="160" /><line stroke="rgb(149,0,0)" stroke-width="2" x1="308" x2="210" y1="160" y2="12" /><line stroke="rgb(155,0,0)" stroke-width="1" x1="210" x2="21" y1="12" y2="47" /><line stroke="rgb(255,0,0)" stroke-width="0" x1="21" x2="137" y1="47" y2="157" /><line stroke="rgb(255,0,0)" stroke-width="0" x1="137" x2="14" y1="157" y2="31" /><line stroke="rgb(149,0,0)" stroke-width="2" x1="14" x2="495" y1="31" y2="485" /><line stroke="rgb(155,0,0)" stroke-width="1" x1="495" x2="293" y1="485" y2="423" /><line stroke="rgb(155,0,0)" stroke-width="1" x1="293" x2="67" y1="423" y2="243" /><line stroke="rgb(255,0,0)" stroke-width="0" x1="67" x2="129" y1="243" y2="71" /><line stroke="rgb(155,0,0)" stroke-width="1" x1="129" x2="41" y1="71" y2="451" /><line stroke="rgb(155,0,0)" stroke-width="1" x1="41" x2="447" y1="451" y2="357" /><line stroke="rgb(149,0,0)" stroke-width="2" x1="447" x2="19" y1="357" y2="131" /><line stroke="rgb(255,0,0)" stroke-width="0" x1="19" x2="325" y1="131" y2="216" /><line stroke="rgb(155,0,0)" stroke-width="1" x1="325" x2="388" y1="216" y2="231" /><line stroke="rgb(255,0,0)" stroke-width="0" x1="388" x2="359" y1="231" y2="111" /><line stroke="rgb(255,0,0)" stroke-width="0" x1="359" x2="290" y1="111" y2="86" /><line stroke="rgb(155,0,0)" stroke-width="1" x1="290" x2="38" y1="86" y2="170" /><line stroke="rgb(255,0,0)" stroke-width="0" x1="38" x2="101" y1="170" y2="479" /><line stroke="rgb(255,0,0)" stroke-width="0" x1="101" x2="109" y1="479" y2="223" /></svg>