<?xml version="1.0" encoding="utf-8" ?>
<svg baseProfile="full" height="100%" version="1.1" width="100%" xmlns="http://www.w3.org/2000/svg" xmlns:ev="http://www.w3.org/2001/xml-events" xmlns:xlink="http://www.w3.org/1999/xlink"><defs /><rect fill="#000" height="500" width="500" x="0" y="0" /><line stroke="rgb(206,0,0)" stroke-width="2" x1="130" x2="181" y1="163" y2="244" /><line stroke="rgb(206,0,0)" stroke-width="2" x1="181" x2="94" y1="244" y2="94" /><line stroke="rgb(206,0,0)" stroke-width="2" x1="94" x2="34" y1="94" y2="193" /><line stroke="rgb(254,0,0)" stroke-width="1" x1="34" x2="334" y1="193" y2="175" /><line stroke="rgb(255,0,0)" stroke-width="0" x1="334" x2="444" y1="175" y2="298" /><line stroke="rgb(255,0,0)" stroke-width="0" x1="444" x2="284" y1="298" y2="44" /><line stroke="rgb(255,0,0)" stroke-width="0" x1="284" x2="51" y1="44" y2="210" /><line stroke="rgb(254,0,0)" stroke-width="1" x1="51" x2="413" y1="210" y2="14" /><line stroke="rgb(255,0,0)" stroke-width="0" x1="413" x2="85" y1="14" y2="280" /><line stroke="rgb(206,0,0)" stroke-width="2" x1="85" x2="225" y1="280" y2="292" /><line stroke="rgb(255,0,0)" stroke-width="0" x1="225" x2="211" y1="292" y2="96" /><line stroke="rgb(255,0,0)" stroke-width="0" x1="211" x2="455" y1="96" y2="453" /><line stroke="rgb(255,0,0)" stroke-width="0" x1="455" x2="262" y1="453" y2="85" /><line stroke="rgb(206,0,0)" stroke-width="2" x1="262" x2="389" y1="85" y2="224" /><line stroke="rgb(255,0,0)" stroke-width="0" x1="389" x2="365" y1="224" y2="372" /><line stroke="rgb(206,0,0)" stroke-width="2" x1="365" x2="373" y1="372" y2="444" /><line stroke="rgb(206,0,0)" stroke-width="2" x1="373" x2="318" y1="444" y2="378" /><line stroke="rgb(206,0,0)" stroke-width="2" x1="318" x2="57" y1="378" y2="483" /><line stroke="rgb(206,0,0)" stroke-width="2" x1="57" x2="230" y1="483" y2="45" /><line stroke="rgb(254,0,0)" stroke-width="1" x1="230" x2="97" y1="45" y2="372" /><line stroke="rgb(206,0,0)" stroke-width="2" x1="97" x2="164" y1="372" y2="220" /><line stroke="rgb(206,0,0)" stroke-width="2" x1="164" x2="491" y1="220" y2="189" /><line stroke="rgb(206,0,0)" stroke-width="2" x1="491" x2="87" y1="189" y2="32" /><line stroke="rgb(255,0,0)" stroke-width="0" x1="87" x2="39" y1="32" y2="294" /><line stroke="rgb(254,0,0)" stroke-width="1" x1="39" x2="105" y1="294" y2="270" /><line stroke="rgb(255,0,0)" stroke-width="0" x1="105" x2="479" y1="270" y2="263" /><line stroke="rgb(206,0,0)" stroke-width="2" x1="479" x2="270" y1="263" y2="328" /><line stroke="rgb(255,0,0)" stroke-width="0" x1="270" x2="110" y1="328" y2="152" /><line stroke="rgb(254,0,0)" stroke-width="1" x1="110" x2="202" y1="152" y2="156" /><line stroke="rgb(254,0,0)" stroke-width="1" x1="202" x2="357" y1="156" y2="422" /><line stroke="rgb(255,0,0)" stroke-width="0" x1="357" x2="255" y1="422" y2="54" /><line stroke="rgb(206,0,0)" stroke-width="2" x1="255" x2="302" y1="54" y2="386" /><line stroke="rgb(254,0,0)" stroke-width="1" x1="302" x2="378" y1="386" y2="2" /><line stroke="rgb(255,0,0)" stroke-width="0" x1="378" x2="263" y1="2" y2="35" /><line stroke="rgb(255,0,0)" stroke-width="0" x1="263" x2="49" y1="35" y2="311" /><line stroke="rgb(255,0,0)" stroke-width="0" x1="49" x2="200" y1="311" y2="344" /><line stroke="rgb(254,0,0)" stroke-width="1" x1="200" x2="114" y1="344" y2="235" /><line stroke="rgb(255,0,0)" stroke-width="0" x1="114" x2="76" y1="235" y2="243" /><line stroke="rgb(254,0,0)" stroke-width="1" x1="76" x2="23" y1="243" y2="260" /><line stroke="rgb(206,0,0)" stroke-width="2" x1="23" x2="79" y1="260" y2="7" /><line stroke="rgb(254,0,0)" stroke-width="1" x1="79" x2="412" y1="7" y2="156" /><line stroke="rgb(254,0,0)" stroke-width="1" x1="412" x2="461" y1="156" y2="413" /><line stroke="rgb(254,0,0)" stroke-width="1" x1="461" x2="45" y1="413" y2="85" /><line stroke="rgb(254,0,0)" stroke-width="1" x1="45" x2="217" y1="85" y2="449" /><line stroke="rgb(254,0,0)" stroke-width="1" x1="217" x2="464" y1="449" y2="388" /><line stroke="rgb(254,0,0)" stroke-width="1" x1="464" x2="195" y1="388" y2="484" /><line stroke="rgb(206,0,0)" stroke-width="2" x1="195" x2="488" y1="484" y2="337" /><line stroke="rgb(206,0,0)" stroke-width="2" x1="488" x2="21" y1="337" y2="99" /><line stroke="rgb(255,0,0)" stroke-width="0" x1="21" x2="45" y1="99" y2="215" /><line stroke="rgb(254,0,0)" stroke-width="1" x1="45" x2="342" y1="215" y2="287" /><line stroke="rgb(254,0,0)" stroke-width="1" x1="342" x2="470" y1="287" y2="427" /><line stroke="rgb(206,0,0)" stroke-width="2" x1="470" x2="152" y1="427" y2="487" /><line stroke="rgb(206,0,0)" stroke-width="2" x1="152" x2="296" y1="487" y2="211" /><line stroke="rgb(255,0,0)" stroke-width="0" x1="296" x2="421" y1="211" y2="50" /><line stroke="rgb(255,0,0)" stroke-width="0" x1="421" x2="389" y1="50" y2="430" /><line stroke="rgb(255,0,0)" stroke-width="0" x1="389" x2="431" y1="430" y2="244" /><line stroke="rgb(206,0,0)" stroke-width="2" x1="431" x2="305" y1="244" y2="332" /><line stroke="rgb(206,0,0)" stroke-width="2" x1="305" x2="341" y1="332" y2="314" /><line stroke="rgb(255,0,0)" stroke-width="0" x1="341" x2="5" y1="314" y2="109" /><line stroke="rgb(206,0,0)" stroke-width="2" x1="5" x2="194" y1="109" y2="190" /><line stroke="rgb(206,0,0)" stroke-width="2" x1="194" x2="489" y1="190" y2="139" /><line stroke="rgb(255,0,0)" stroke-width="0" x1="489" x2="427" y1="139" y2="124" /><line stroke="rgb(255,0,0)" stroke-width="0" x1="427" x2="493" y1="124" y2="154" /><line stroke="rgb(206,0,0)" stroke-width="2" x1="493" x2="137" y1="154" y2="212" /><line stroke="rgb(206,0,0)" stroke-width="2" x1="137" x2="417" y1="212" y2="337" /><line stroke="rgb(254,0,0)" stroke-width="1" x1="417" x2="19" y1="337" y2="339" /><line stroke="rgb(206,0,0)" stroke-width="2" x1="19" x2="191" y1="339" y2="140" /><line stroke="rgb(254,0,0)" stroke-width="1" x1="191" x2="2" y1="140" y2="469" /><line stroke="rgb(255,0,0)" stroke-width="0" x1="2" x2="79" y1="469" y2="147" /><line stroke="rgb(255,0,0)" stroke-width="0" x1="79" x2="257" y1="147" y2="307" /><line stroke="rgb(254,0,0)" stroke-width="1" x1="257" x2="49" y1="307" y2="184" /><line stroke="rgb(254,0,0)" stroke-width="1" x1="49" x2="381" y1="184" y2="58" /><line stroke="rgb(206,0,0)" stroke-width="2" x1="381" x2="55" y1="58" y2="265" /><line stroke="rgb(255,0,0)" stroke-width="0" x1="55" x2="462" y1="265" y2="276" /><line stroke="rgb(255,0,0)" stroke-width="0" x1="462" x2="147" y1="276" y2="85" /><line stroke="rgb(206,0,0)" stroke-width="2" x1="147" x2="259" y1="85" y2="4" /><line stroke="rgb(206,0,0)" stroke-width="2" x1="259" x2="24" y1="4" y2="161" /><line stroke="rgb(254,0,0)" stroke-width="1" x1="24" x2="37" y1="161" y2="106" /><line stroke="rgb(206,0,0)" stroke-width="2" x1="37" x2="115" y1="106" y2="368" /><line stroke="rgb(255,0,0)" stroke-width="0" x1="115" x2="134" y1="368" y2="288" /><line stroke="rgb(206,0,0)" stroke-width="2" x1="134" x2="244" y1="288" y2="410" /><line stroke="rgb(254,0,0)" stroke-width="1" x1="244" x2="276" y1="410" y2="38" /><line stroke="rgb(255,0,0)" stroke-width="0" x1="276" x2="173" y1="38" y2="91" /><line stroke="rgb(206,0,0)" stroke-width="2" x1="173" x2="57" y1="91" y2="21" /><line stroke="rgb(206,0,0)" stroke-width="2" x1="57" x2="437" y1="21" y2="275" /><line stroke="rgb(206,0,0)" stroke-width="2" x1="437" x2="83" y1="275" y2="160" /><line stroke="rgb(255,0,0)" stroke-width="0" x1="83" x2="10" y1="160" y2="50" /><line stroke="rgb(206,0,0)" stroke-width="2" x1="10" x2="491" y1="50" y2="297" /><line stroke="rgb(254,0,0)" stroke-width="1" x1="491" x2="209" y1="297" y2="184" /><line stroke="rgb(254,0,0)" stroke-width="1" x1="209" x2="198" y1="184" y2="228" /><line stroke="rgb(254,0,0)" stroke-width="1" x1="198" x2="46" y1="228" y2="373" /><line stroke="rgb(255,0,0)" stroke-width="0" x1="46" x2="246" y1="373" y2="99" /><line stroke="rgb(206,0,0)" stroke-width="2" x1="246" x2="477" y1="99" y2="330" /><line stroke="rgb(255,0,0)" stroke-width="0" x1="477" x2="58" y1="330" y2="459" /><line stroke="rgb(206,0,0)" stroke-width="2" x1="58" x2="115" y1="459" y2="321" /><line stroke="rgb(206,0,0)" stroke-width="2" x1="115" x2="15" y1="321" y2="230" /><line stroke="rgb(206,0,0)" stroke-width="2" x1="15" x2="189" y1="230" y2="30" /><line stroke="rgb(206,0,0)" stroke-width="2" x1="189" x2="73" y1="30" y2="345" /><line stroke="rgb(254,0,0)" stroke-width="1" x1="73" x2="464" y1="345" y2="147" /><line stroke="rgb(255,0,0)" stroke-width="0" x1="464" x2="397" y1="147" y2="210" /></svg>