<?xml version="1.0" encoding="utf-8" ?>
<svg baseProfile="full" height="100%" version="1.1" width="100%" xmlns="http://www.w3.org/2000/svg" xmlns:ev="http://www.w3.org/2001/xml-events" xmlns:xlink="http://www.w3.org/1999/xlink"><defs /><rect fill="#000" height="500" width="500" x="0" y="0" /><line stroke="rgb(255,0,0)" stroke-width="1" x1="302" x2="75" y1="438" y2="223" /><line stroke="rgb(255,0,0)" stroke-width="1" x1="302" x2="487" y1="438" y2="252" /><line stroke="rgb(255,0,0)" stroke-width="1" x1="487" x2="91" y1="252" y2="441" /><line stroke="rgb(255,0,0)" stroke-width="1" x1="91" x2="312" y1="441" y2="405" /><line stroke="rgb(255,0,0)" stroke-width="1" x1="312" x2="324" y1="405" y2="311" /><line stroke="rgb(255,0,0)" stroke-width="1" x1="324" x2="189" y1="311" y2="104" /><line stroke="rgb(255,0,0)" stroke-width="1" x1="189" x2="49" y1="104" y2="10" /><line stroke="rgb(255,0,0)" stroke-width="1" x1="49" x2="329" y1="10" y2="457" /><line stroke="rgb(255,0,0)" stroke-width="1" x1="329" x2="461" y1="457" y2="22" /><line stroke="rgb(255,0,0)" stroke-width="1" x1="461" x2="149" y1="22" y2="131" /><line stroke="rgb(255,0,0)" stroke-width="1" x1="149" x2="107" y1="131" y2="131" /><line stroke="rgb(255,0,0)" stroke-width="1" x1="107" x2="430" y1="131" y2="387" /><line stroke="rgb(255,0,0)" stroke-width="1" x1="430" x2="31" y1="387" y2="289" /><line stroke="rgb(255,0,0)" stroke-width="1" x1="31" x2="59" y1="289" y2="304" /><line stroke="rgb(255,0,0)" stroke-width="1" x1="59" x2="498" y1="304" y2="276" /><line stroke="rgb(255,0,0)" stroke-width="1" x1="498" x2="286" y1="276" y2="25" /><line stroke="rgb(255,0,0)" stroke-width="1" x1="286" x2="40" y1="25" y2="481" /><line stroke="rgb(255,0,0)" stroke-width="1" x1="40" x2="138" y1="481" y2="308" /><line stroke="rgb(255,0,0)" stroke-width="1" x1="138" x2="171" y1="308" y2="152" /><line stroke="rgb(255,0,0)" stroke-width="1" x1="171" x2="132" y1="152" y2="381" /><line stroke="rgb(255,0,0)" stroke-width="1" x1="132" x2="113" y1="381" y2="155" /><line stroke="rgb(255,0,0)" stroke-width="1" x1="113" x2="5" y1="155" y2="462" /><line stroke="rgb(255,0,0)" stroke-width="1" x1="5" x2="389" y1="462" y2="194" /><line stroke="rgb(255,0,0)" stroke-width="1" x1="389" x2="472" y1="194" y2="356" /><line stroke="rgb(255,0,0)" stroke-width="1" x1="472" x2="411" y1="356" y2="355" /><line stroke="rgb(255,0,0)" stroke-width="1" x1="411" x2="10" y1="355" y2="275" /><line stroke="rgb(255,0,0)" stroke-width="1" x1="10" x2="31" y1="275" y2="142" /><line stroke="rgb(255,0,0)" stroke-width="1" x1="31" x2="373" y1="142" y2="184" /><line stroke="rgb(255,0,0)" stroke-width="1" x1="373" x2="252" y1="184" y2="166" /><line stroke="rgb(255,0,0)" stroke-width="1" x1="252" x2="405" y1="166" y2="199" /><line stroke="rgb(255,0,0)" stroke-width="1" x1="405" x2="405" y1="199" y2="226" /><line stroke="rgb(255,0,0)" stroke-width="1" x1="405" x2="32" y1="226" y2="183" /><line stroke="rgb(255,0,0)" stroke-width="1" x1="32" x2="160" y1="183" y2="368" /><line stroke="rgb(255,0,0)" stroke-width="1" x1="160" x2="492" y1="368" y2="27" /><line stroke="rgb(255,0,0)" stroke-width="1" x1="492" x2="1" y1="27" y2="23" /><line stroke="rgb(255,0,0)" stroke-width="1" x1="1" x2="300" y1="23" y2="455" /><line stroke="rgb(255,0,0)" stroke-width="1" x1="300" x2="11" y1="455" y2="452" /><line stroke="rgb(255,0,0)" stroke-width="1" x1="11" x2="167" y1="452" y2="182" /><line stroke="rgb(255,0,0)" stroke-width="1" x1="167" x2="172" y1="182" y2="389" /><line stroke="rgb(255,0,0)" stroke-width="1" x1="172" x2="430" y1="389" y2="392" /><line stroke="rgb(255,0,0)" stroke-width="1" x1="430" x2="110" y1="392" y2="351" /><line stroke="rgb(255,0,0)" stroke-width="1" x1="110" x2="120" y1="351" y2="461" /><line stroke="rgb(255,0,0)" stroke-width="1" x1="120" x2="243" y1="461" y2="171" /><line stroke="rgb(255,0,0)" stroke-width="1" x1="243" x2="176" y1="171" y2="78" /><line stroke="rgb(255,0,0)" stroke-width="1" x1="176" x2="25" y1="78" y2="177" /><line stroke="rgb(255,0,0)" stroke-width="1" x1="25" x2="276" y1="177" y2="438" /><line stroke="rgb(255,0,0)" stroke-width="1" x1="276" x2="97" y1="438" y2="330" /><line stroke="rgb(255,0,0)" stroke-width="1" x1="97" x2="75" y1="330" y2="223" /></svg>