<?xml version="1.0" encoding="utf-8" ?>
<svg baseProfile="full" height="100%" version="1.1" width="100%" xmlns="http://www.w3.org/2000/svg" xmlns:ev="http://www.w3.org/2001/xml-events" xmlns:xlink="http://www.w3.org/1999/xlink"><defs /><rect fill="#000" height="500" width="500" x="0" y="0" /><line stroke="rgb(255,0,0)" stroke-width="0" x1="130" x2="261" y1="123" y2="289" /><line stroke="rgb(175,0,0)" stroke-width="2" x1="261" x2="210" y1="289" y2="139" /><line stroke="rgb(175,0,0)" stroke-width="2" x1="210" x2="164" y1="139" y2="418" /><line stroke="rgb(175,0,0)" stroke-width="2" x1="164" x2="91" y1="418" y2="89" /><line stroke="rgb(245,0,0)" stroke-width="1" x1="91" x2="366" y1="89" y2="261" /><line stroke="rgb(245,0,0)" stroke-width="1" x1="366" x2="190" y1="261" y2="336" /><line stroke="rgb(245,0,0)" stroke-width="1" x1="190" x2="117" y1="336" y2="179" /><line stroke="rgb(175,0,0)" stroke-width="2" x1="117" x2="217" y1="179" y2="65" /><line stroke="rgb(255,0,0)" stroke-width="0" x1="217" x2="187" y1="65" y2="109" /><line stroke="rgb(255,0,0)" stroke-width="0" x1="187" x2="163" y1="109" y2="35" /><line stroke="rgb(175,0,0)" stroke-width="2" x1="163" x2="341" y1="35" y2="410" /><line stroke="rgb(245,0,0)" stroke-width="1" x1="341" x2="140" y1="410" y2="28" /><line stroke="rgb(255,0,0)" stroke-width="0" x1="140" x2="485" y1="28" y2="492" /><line stroke="rgb(245,0,0)" stroke-width="1" x1="485" x2="118" y1="492" y2="150" /><line stroke="rgb(255,0,0)" stroke-width="0" x1="118" x2="436" y1="150" y2="4" /><line stroke="rgb(245,0,0)" stroke-width="1" x1="436" x2="445" y1="4" y2="36" /><line stroke="rgb(255,0,0)" stroke-width="0" x1="445" x2="14" y1="36" y2="65" /><line stroke="rgb(175,0,0)" stroke-width="2" x1="14" x2="256" y1="65" y2="254" /><line stroke="rgb(245,0,0)" stroke-width="1" x1="256" x2="208" y1="254" y2="50" /><line stroke="rgb(245,0,0)" stroke-width="1" x1="208" x2="349" y1="50" y2="39" /><line stroke="rgb(245,0,0)" stroke-width="1" x1="349" x2="111" y1="39" y2="432" /><line stroke="rgb(175,0,0)" stroke-width="2" x1="111" x2="386" y1="432" y2="417" /><line stroke="rgb(255,0,0)" stroke-width="0" x1="386" x2="215" y1="417" y2="446" /><line stroke="rgb(255,0,0)" stroke-width="0" x1="215" x2="61" y1="446" y2="140" /><line stroke="rgb(255,0,0)" stroke-width="0" x1="61" x2="321" y1="140" y2="272" /><line stroke="rgb(175,0,0)" stroke-width="2" x1="321" x2="59" y1="272" y2="179" /><line stroke="rgb(255,0,0)" stroke-width="0" x1="59" x2="431" y1="179" y2="183" /><line stroke="rgb(255,0,0)" stroke-width="0" x1="431" x2="295" y1="183" y2="311" /><line stroke="rgb(245,0,0)" stroke-width="1" x1="295" x2="123" y1="311" y2="20" /><line stroke="rgb(175,0,0)" stroke-width="2" x1="123" x2="434" y1="20" y2="427" /><line stroke="rgb(255,0,0)" stroke-width="0" x1="434" x2="387" y1="427" y2="481" /><line stroke="rgb(175,0,0)" stroke-width="2" x1="387" x2="419" y1="481" y2="125" /><line stroke="rgb(175,0,0)" stroke-width="2" x1="419" x2="32" y1="125" y2="476" /><line stroke="rgb(245,0,0)" stroke-width="1" x1="32" x2="477" y1="476" y2="248" /><line stroke="rgb(175,0,0)" stroke-width="2" x1="477" x2="207" y1="248" y2="486" /><line stroke="rgb(175,0,0)" stroke-width="2" x1="207" x2="294" y1="486" y2="219" /><line stroke="rgb(245,0,0)" stroke-width="1" x1="294" x2="497" y1="219" y2="224" /><line stroke="rgb(255,0,0)" stroke-width="0" x1="497" x2="295" y1="224" y2="246" /><line stroke="rgb(255,0,0)" stroke-width="0" x1="295" x2="99" y1="246" y2="66" /><line stroke="rgb(255,0,0)" stroke-width="0" x1="99" x2="399" y1="66" y2="408" /><line stroke="rgb(245,0,0)" stroke-width="1" x1="399" x2="443" y1="408" y2="204" /><line stroke="rgb(255,0,0)" stroke-width="0" x1="443" x2="412" y1="204" y2="336" /><line stroke="rgb(245,0,0)" stroke-width="1" x1="412" x2="410" y1="336" y2="184" /><line stroke="rgb(175,0,0)" stroke-width="2" x1="410" x2="349" y1="184" y2="22" /><line stroke="rgb(255,0,0)" stroke-width="0" x1="349" x2="430" y1="22" y2="37" /><line stroke="rgb(175,0,0)" stroke-width="2" x1="430" x2="480" y1="37" y2="382" /><line stroke="rgb(175,0,0)" stroke-width="2" x1="480" x2="149" y1="382" y2="29" /><line stroke="rgb(245,0,0)" stroke-width="1" x1="149" x2="118" y1="29" y2="165" /><line stroke="rgb(175,0,0)" stroke-width="2" x1="118" x2="179" y1="165" y2="270" /><line stroke="rgb(175,0,0)" stroke-width="2" x1="179" x2="398" y1="270" y2="46" /><line stroke="rgb(175,0,0)" stroke-width="2" x1="398" x2="8" y1="46" y2="125" /><line stroke="rgb(245,0,0)" stroke-width="1" x1="8" x2="257" y1="125" y2="440" /><line stroke="rgb(245,0,0)" stroke-width="1" x1="257" x2="423" y1="440" y2="206" /><line stroke="rgb(245,0,0)" stroke-width="1" x1="423" x2="285" y1="206" y2="295" /><line stroke="rgb(255,0,0)" stroke-width="0" x1="285" x2="402" y1="295" y2="267" /><line stroke="rgb(175,0,0)" stroke-width="2" x1="402" x2="351" y1="267" y2="412" /><line stroke="rgb(175,0,0)" stroke-width="2" x1="351" x2="145" y1="412" y2="89" /><line stroke="rgb(245,0,0)" stroke-width="1" x1="145" x2="484" y1="89" y2="457" /><line stroke="rgb(245,0,0)" stroke-width="1" x1="484" x2="456" y1="457" y2="109" /><line stroke="rgb(255,0,0)" stroke-width="0" x1="456" x2="422" y1="109" y2="235" /><line stroke="rgb(175,0,0)" stroke-width="2" x1="422" x2="366" y1="235" y2="367" /><line stroke="rgb(175,0,0)" stroke-width="2" x1="366" x2="404" y1="367" y2="283" /><line stroke="rgb(255,0,0)" stroke-width="0" x1="404" x2="428" y1="283" y2="261" /><line stroke="rgb(245,0,0)" stroke-width="1" x1="428" x2="74" y1="261" y2="403" /><line stroke="rgb(175,0,0)" stroke-width="2" x1="74" x2="9" y1="403" y2="324" /><line stroke="rgb(245,0,0)" stroke-width="1" x1="9" x2="206" y1="324" y2="207" /><line stroke="rgb(175,0,0)" stroke-width="2" x1="206" x2="75" y1="207" y2="465" /><line stroke="rgb(245,0,0)" stroke-width="1" x1="75" x2="364" y1="465" y2="271" /><line stroke="rgb(255,0,0)" stroke-width="0" x1="364" x2="225" y1="271" y2="227" /><line stroke="rgb(255,0,0)" stroke-width="0" x1="225" x2="387" y1="227" y2="131" /><line stroke="rgb(245,0,0)" stroke-width="1" x1="387" x2="18" y1="131" y2="396" /><line stroke="rgb(175,0,0)" stroke-width="2" x1="18" x2="411" y1="396" y2="480" /><line stroke="rgb(175,0,0)" stroke-width="2" x1="411" x2="246" y1="480" y2="156" /><line stroke="rgb(175,0,0)" stroke-width="2" x1="246" x2="314" y1="156" y2="321" /><line stroke="rgb(175,0,0)" stroke-width="2" x1="314" x2="77" y1="321" y2="196" /><line stroke="rgb(175,0,0)" stroke-width="2" x1="77" x2="111" y1="196" y2="392" /><line stroke="rgb(255,0,0)" stroke-width="0" x1="111" x2="187" y1="392" y2="418" /><line stroke="rgb(255,0,0)" stroke-width="0" x1="187" x2="313" y1="418" y2="280" /><line stroke="rgb(255,0,0)" stroke-width="0" x1="313" x2="38" y1="280" y2="103" /><line stroke="rgb(245,0,0)" stroke-width="1" x1="38" x2="280" y1="103" y2="11" /><line stroke="rgb(255,0,0)" stroke-width="0" x1="280" x2="388" y1="11" y2="97" /><line stroke="rgb(245,0,0)" stroke-width="1" x1="388" x2="471" y1="97" y2="57" /><line stroke="rgb(255,0,0)" stroke-width="0" x1="471" x2="288" y1="57" y2="41" /><line stroke="rgb(175,0,0)" stroke-width="2" x1="288" x2="159" y1="41" y2="70" /><line stroke="rgb(255,0,0)" stroke-width="0" x1="159" x2="49" y1="70" y2="86" /><line stroke="rgb(245,0,0)" stroke-width="1" x1="49" x2="100" y1="86" y2="416" /><line stroke="rgb(175,0,0)" stroke-width="2" x1="100" x2="84" y1="416" y2="471" /><line stroke="rgb(255,0,0)" stroke-width="0" x1="84" x2="404" y1="471" y2="79" /><line stroke="rgb(175,0,0)" stroke-width="2" x1="404" x2="390" y1="79" y2="146" /><line stroke="rgb(175,0,0)" stroke-width="2" x1="390" x2="27" y1="146" y2="343" /><line stroke="rgb(245,0,0)" stroke-width="1" x1="27" x2="13" y1="343" y2="393" /><line stroke="rgb(255,0,0)" stroke-width="0" x1="13" x2="230" y1="393" y2="109" /><line stroke="rgb(255,0,0)" stroke-width="0" x1="230" x2="48" y1="109" y2="219" /><line stroke="rgb(255,0,0)" stroke-width="0" x1="48" x2="407" y1="219" y2="13" /><line stroke="rgb(245,0,0)" stroke-width="1" x1="407" x2="169" y1="13" y2="43" /><line stroke="rgb(175,0,0)" stroke-width="2" x1="169" x2="311" y1="43" y2="274" /><line stroke="rgb(255,0,0)" stroke-width="0" x1="311" x2="311" y1="274" y2="90" /><line stroke="rgb(245,0,0)" stroke-width="1" x1="311" x2="419" y1="90" y2="71" /><line stroke="rgb(255,0,0)" stroke-width="0" x1="419" x2="153" y1="71" y2="42" /><line stroke="rgb(245,0,0)" stroke-width="1" x1="153" x2="102" y1="42" y2="21" /></svg>