<?xml version="1.0" encoding="utf-8" ?>
<svg baseProfile="full" height="100%" version="1.1" width="100%" xmlns="http://www.w3.org/2000/svg" xmlns:ev="http://www.w3.org/2001/xml-events" xmlns:xlink="http://www.w3.org/1999/xlink"><defs /><rect fill="#000" height="500" width="500" x="0" y="0" /><line stroke="rgb(245,0,0)" stroke-width="1" x1="494" x2="333" y1="157" y2="161" /><line stroke="rgb(255,0,0)" stroke-width="0" x1="333" x2="378" y1="161" y2="307" /><line stroke="rgb(245,0,0)" stroke-width="1" x1="378" x2="408" y1="307" y2="92" /><line stroke="rgb(255,0,0)" stroke-width="0" x1="408" x2="480" y1="92" y2="54" /><line stroke="rgb(242,0,0)" stroke-width="2" x1="480" x2="162" y1="54" y2="374" /><line stroke="rgb(242,0,0)" stroke-width="2" x1="162" x2="315" y1="374" y2="454" /><line stroke="rgb(245,0,0)" stroke-width="1" x1="315" x2="429" y1="454" y2="169" /><line stroke="rgb(255,0,0)" stroke-width="0" x1="429" x2="37" y1="169" y2="52" /><line stroke="rgb(242,0,0)" stroke-width="2" x1="37" x2="367" y1="52" y2="74" /><line stroke="rgb(245,0,0)" stroke-width="1" x1="367" x2="306" y1="74" y2="206" /><line stroke="rgb(255,0,0)" stroke-width="0" x1="306" x2="153" y1="206" y2="240" /><line stroke="rgb(242,0,0)" stroke-width="2" x1="153" x2="210" y1="240" y2="21" /><line stroke="rgb(245,0,0)" stroke-width="1" x1="210" x2="435" y1="21" y2="431" /><line stroke="rgb(242,0,0)" stroke-width="2" x1="435" x2="223" y1="431" y2="182" /><line stroke="rgb(245,0,0)" stroke-width="1" x1="223" x2="130" y1="182" y2="443" /><line stroke="rgb(242,0,0)" stroke-width="2" x1="130" x2="164" y1="443" y2="117" /><line stroke="rgb(245,0,0)" stroke-width="1" x1="164" x2="263" y1="117" y2="324" /><line stroke="rgb(242,0,0)" stroke-width="2" x1="263" x2="49" y1="324" y2="328" /><line stroke="rgb(245,0,0)" stroke-width="1" x1="49" x2="151" y1="328" y2="158" /><line stroke="rgb(245,0,0)" stroke-width="1" x1="151" x2="59" y1="158" y2="464" /><line stroke="rgb(245,0,0)" stroke-width="1" x1="59" x2="346" y1="464" y2="69" /><line stroke="rgb(245,0,0)" stroke-width="1" x1="346" x2="151" y1="69" y2="459" /><line stroke="rgb(242,0,0)" stroke-width="2" x1="151" x2="144" y1="459" y2="261" /><line stroke="rgb(255,0,0)" stroke-width="0" x1="144" x2="48" y1="261" y2="56" /><line stroke="rgb(242,0,0)" stroke-width="2" x1="48" x2="135" y1="56" y2="367" /><line stroke="rgb(255,0,0)" stroke-width="0" x1="135" x2="324" y1="367" y2="131" /><line stroke="rgb(245,0,0)" stroke-width="1" x1="324" x2="83" y1="131" y2="142" /><line stroke="rgb(242,0,0)" stroke-width="2" x1="83" x2="414" y1="142" y2="184" /><line stroke="rgb(245,0,0)" stroke-width="1" x1="414" x2="43" y1="184" y2="115" /><line stroke="rgb(245,0,0)" stroke-width="1" x1="43" x2="211" y1="115" y2="485" /><line stroke="rgb(255,0,0)" stroke-width="0" x1="211" x2="275" y1="485" y2="222" /><line stroke="rgb(245,0,0)" stroke-width="1" x1="275" x2="126" y1="222" y2="355" /><line stroke="rgb(242,0,0)" stroke-width="2" x1="126" x2="152" y1="355" y2="12" /><line stroke="rgb(242,0,0)" stroke-width="2" x1="152" x2="87" y1="12" y2="75" /><line stroke="rgb(242,0,0)" stroke-width="2" x1="87" x2="327" y1="75" y2="380" /><line stroke="rgb(242,0,0)" stroke-width="2" x1="327" x2="122" y1="380" y2="94" /><line stroke="rgb(245,0,0)" stroke-width="1" x1="122" x2="116" y1="94" y2="354" /><line stroke="rgb(255,0,0)" stroke-width="0" x1="116" x2="416" y1="354" y2="117" /><line stroke="rgb(255,0,0)" stroke-width="0" x1="416" x2="163" y1="117" y2="41" /><line stroke="rgb(242,0,0)" stroke-width="2" x1="163" x2="85" y1="41" y2="15" /><line stroke="rgb(255,0,0)" stroke-width="0" x1="85" x2="481" y1="15" y2="349" /><line stroke="rgb(242,0,0)" stroke-width="2" x1="481" x2="457" y1="349" y2="94" /><line stroke="rgb(245,0,0)" stroke-width="1" x1="457" x2="369" y1="94" y2="308" /><line stroke="rgb(245,0,0)" stroke-width="1" x1="369" x2="236" y1="308" y2="225" /><line stroke="rgb(242,0,0)" stroke-width="2" x1="236" x2="60" y1="225" y2="226" /><line stroke="rgb(242,0,0)" stroke-width="2" x1="60" x2="474" y1="226" y2="271" /><line stroke="rgb(255,0,0)" stroke-width="0" x1="474" x2="273" y1="271" y2="471" /><line stroke="rgb(255,0,0)" stroke-width="0" x1="273" x2="338" y1="471" y2="460" /><line stroke="rgb(255,0,0)" stroke-width="0" x1="338" x2="283" y1="460" y2="34" /><line stroke="rgb(245,0,0)" stroke-width="1" x1="283" x2="385" y1="34" y2="18" /><line stroke="rgb(245,0,0)" stroke-width="1" x1="385" x2="118" y1="18" y2="188" /><line stroke="rgb(245,0,0)" stroke-width="1" x1="118" x2="437" y1="188" y2="207" /><line stroke="rgb(242,0,0)" stroke-width="2" x1="437" x2="274" y1="207" y2="463" /><line stroke="rgb(255,0,0)" stroke-width="0" x1="274" x2="299" y1="463" y2="388" /><line stroke="rgb(242,0,0)" stroke-width="2" x1="299" x2="489" y1="388" y2="323" /><line stroke="rgb(245,0,0)" stroke-width="1" x1="489" x2="353" y1="323" y2="257" /><line stroke="rgb(242,0,0)" stroke-width="2" x1="353" x2="198" y1="257" y2="353" /><line stroke="rgb(255,0,0)" stroke-width="0" x1="198" x2="53" y1="353" y2="58" /><line stroke="rgb(255,0,0)" stroke-width="0" x1="53" x2="47" y1="58" y2="247" /><line stroke="rgb(255,0,0)" stroke-width="0" x1="47" x2="144" y1="247" y2="447" /><line stroke="rgb(242,0,0)" stroke-width="2" x1="144" x2="481" y1="447" y2="93" /><line stroke="rgb(242,0,0)" stroke-width="2" x1="481" x2="388" y1="93" y2="163" /><line stroke="rgb(255,0,0)" stroke-width="0" x1="388" x2="77" y1="163" y2="153" /><line stroke="rgb(245,0,0)" stroke-width="1" x1="77" x2="93" y1="153" y2="422" /><line stroke="rgb(245,0,0)" stroke-width="1" x1="93" x2="475" y1="422" y2="241" /><line stroke="rgb(255,0,0)" stroke-width="0" x1="475" x2="131" y1="241" y2="73" /><line stroke="rgb(255,0,0)" stroke-width="0" x1="131" x2="371" y1="73" y2="52" /><line stroke="rgb(255,0,0)" stroke-width="0" x1="371" x2="324" y1="52" y2="303" /><line stroke="rgb(242,0,0)" stroke-width="2" x1="324" x2="237" y1="303" y2="45" /><line stroke="rgb(242,0,0)" stroke-width="2" x1="237" x2="270" y1="45" y2="466" /><line stroke="rgb(245,0,0)" stroke-width="1" x1="270" x2="346" y1="466" y2="271" /><line stroke="rgb(255,0,0)" stroke-width="0" x1="346" x2="24" y1="271" y2="367" /><line stroke="rgb(245,0,0)" stroke-width="1" x1="24" x2="228" y1="367" y2="107" /><line stroke="rgb(245,0,0)" stroke-width="1" x1="228" x2="191" y1="107" y2="172" /><line stroke="rgb(242,0,0)" stroke-width="2" x1="191" x2="187" y1="172" y2="59" /><line stroke="rgb(255,0,0)" stroke-width="0" x1="187" x2="486" y1="59" y2="290" /><line stroke="rgb(255,0,0)" stroke-width="0" x1="486" x2="292" y1="290" y2="342" /><line stroke="rgb(242,0,0)" stroke-width="2" x1="292" x2="488" y1="342" y2="451" /><line stroke="rgb(242,0,0)" stroke-width="2" x1="488" x2="409" y1="451" y2="213" /><line stroke="rgb(242,0,0)" stroke-width="2" x1="409" x2="354" y1="213" y2="133" /><line stroke="rgb(255,0,0)" stroke-width="0" x1="354" x2="198" y1="133" y2="13" /><line stroke="rgb(245,0,0)" stroke-width="1" x1="198" x2="380" y1="13" y2="442" /><line stroke="rgb(242,0,0)" stroke-width="2" x1="380" x2="319" y1="442" y2="193" /><line stroke="rgb(255,0,0)" stroke-width="0" x1="319" x2="63" y1="193" y2="216" /><line stroke="rgb(245,0,0)" stroke-width="1" x1="63" x2="50" y1="216" y2="75" /><line stroke="rgb(242,0,0)" stroke-width="2" x1="50" x2="386" y1="75" y2="289" /><line stroke="rgb(242,0,0)" stroke-width="2" x1="386" x2="464" y1="289" y2="439" /><line stroke="rgb(245,0,0)" stroke-width="1" x1="464" x2="128" y1="439" y2="126" /><line stroke="rgb(242,0,0)" stroke-width="2" x1="128" x2="46" y1="126" y2="24" /><line stroke="rgb(255,0,0)" stroke-width="0" x1="46" x2="20" y1="24" y2="380" /><line stroke="rgb(255,0,0)" stroke-width="0" x1="20" x2="206" y1="380" y2="48" /><line stroke="rgb(242,0,0)" stroke-width="2" x1="206" x2="29" y1="48" y2="194" /><line stroke="rgb(255,0,0)" stroke-width="0" x1="29" x2="374" y1="194" y2="109" /><line stroke="rgb(245,0,0)" stroke-width="1" x1="374" x2="403" y1="109" y2="30" /><line stroke="rgb(255,0,0)" stroke-width="0" x1="403" x2="117" y1="30" y2="61" /><line stroke="rgb(242,0,0)" stroke-width="2" x1="117" x2="254" y1="61" y2="92" /><line stroke="rgb(242,0,0)" stroke-width="2" x1="254" x2="170" y1="92" y2="222" /><line stroke="rgb(255,0,0)" stroke-width="0" x1="170" x2="49" y1="222" y2="56" /><line stroke="rgb(255,0,0)" stroke-width="0" x1="49" x2="246" y1="56" y2="413" /><line stroke="rgb(245,0,0)" stroke-width="1" x1="246" x2="292" y1="413" y2="245" /></svg>