<?xml version="1.0" encoding="utf-8" ?>
<svg baseProfile="full" height="100%" version="1.1" width="100%" xmlns="http://www.w3.org/2000/svg" xmlns:ev="http://www.w3.org/2001/xml-events" xmlns:xlink="http://www.w3.org/1999/xlink"><defs /><rect fill="#000" height="500" width="500" x="0" y="0" /><line stroke="rgb(255,0,0)" stroke-width="1" x1="327" x2="397" y1="340" y2="314" /><line stroke="rgb(255,0,0)" stroke-width="1" x1="397" x2="315" y1="314" y2="163" /><line stroke="rgb(255,0,0)" stroke-width="1" x1="315" x2="50" y1="163" y2="276" /><line stroke="rgb(255,0,0)" stroke-width="1" x1="50" x2="135" y1="276" y2="53" /><line stroke="rgb(255,0,0)" stroke-width="1" x1="135" x2="284" y1="53" y2="114" /><line stroke="rgb(255,0,0)" stroke-width="1" x1="284" x2="252" y1="114" y2="77" /><line stroke="rgb(255,0,0)" stroke-width="1" x1="252" x2="482" y1="77" y2="425" /><line stroke="rgb(255,0,0)" stroke-width="1" x1="482" x2="405" y1="425" y2="137" /><line stroke="rgb(255,0,0)" stroke-width="1" x1="405" x2="122" y1="137" y2="219" /><line stroke="rgb(255,0,0)" stroke-width="1" x1="122" x2="79" y1="219" y2="37" /><line stroke="rgb(255,0,0)" stroke-width="1" x1="79" x2="248" y1="37" y2="142" /><line stroke="rgb(255,0,0)" stroke-width="1" x1="248" x2="287" y1="142" y2="496" /><line stroke="rgb(255,0,0)" stroke-width="1" x1="287" x2="86" y1="496" y2="311" /><line stroke="rgb(255,0,0)" stroke-width="1" x1="86" x2="402" y1="311" y2="65" /><line stroke="rgb(255,0,0)" stroke-width="1" x1="402" x2="264" y1="65" y2="398" /><line stroke="rgb(255,0,0)" stroke-width="1" x1="264" x2="308" y1="398" y2="436" /><line stroke="rgb(255,0,0)" stroke-width="1" x1="308" x2="86" y1="436" y2="474" /><line stroke="rgb(255,0,0)" stroke-width="1" x1="86" x2="432" y1="474" y2="162" /><line stroke="rgb(255,0,0)" stroke-width="1" x1="432" x2="42" y1="162" y2="380" /><line stroke="rgb(255,0,0)" stroke-width="1" x1="42" x2="316" y1="380" y2="147" /><line stroke="rgb(255,0,0)" stroke-width="1" x1="316" x2="471" y1="147" y2="23" /><line stroke="rgb(255,0,0)" stroke-width="1" x1="471" x2="113" y1="23" y2="241" /><line stroke="rgb(255,0,0)" stroke-width="1" x1="113" x2="219" y1="241" y2="162" /><line stroke="rgb(255,0,0)" stroke-width="1" x1="219" x2="64" y1="162" y2="69" /><line stroke="rgb(255,0,0)" stroke-width="1" x1="64" x2="126" y1="69" y2="282" /><line stroke="rgb(255,0,0)" stroke-width="1" x1="126" x2="207" y1="282" y2="460" /><line stroke="rgb(255,0,0)" stroke-width="1" x1="207" x2="243" y1="460" y2="115" /><line stroke="rgb(255,0,0)" stroke-width="1" x1="243" x2="422" y1="115" y2="329" /></svg>