<?xml version="1.0" encoding="utf-8" ?>
<svg baseProfile="full" height="100%" version="1.1" width="100%" xmlns="http://www.w3.org/2000/svg" xmlns:ev="http://www.w3.org/2001/xml-events" xmlns:xlink="http://www.w3.org/1999/xlink"><defs /><rect fill="#000" height="500" width="500" x="0" y="0" /><line stroke="rgb(100%,0%,0%)" stroke-width="0" x1="498" x2="392" y1="369" y2="488" /><line stroke="rgb(100%,0%,0%)" stroke-width="1" x1="392" x2="169" y1="488" y2="74" /><line stroke="rgb(100%,0%,0%)" stroke-width="1" x1="169" x2="110" y1="74" y2="468" /><line stroke="rgb(100%,0%,0%)" stroke-width="2" x1="110" x2="164" y1="468" y2="73" /><line stroke="rgb(100%,0%,0%)" stroke-width="2" x1="164" x2="447" y1="73" y2="71" /><line stroke="rgb(100%,0%,0%)" stroke-width="2" x1="447" x2="315" y1="71" y2="8" /><line stroke="rgb(100%,0%,0%)" stroke-width="0" x1="315" x2="167" y1="8" y2="38" /><line stroke="rgb(100%,0%,0%)" stroke-width="2" x1="167" x2="55" y1="38" y2="424" /><line stroke="rgb(100%,0%,0%)" stroke-width="0" x1="55" x2="423" y1="424" y2="9" /><line stroke="rgb(100%,0%,0%)" stroke-width="2" x1="423" x2="382" y1="9" y2="215" /><line stroke="rgb(100%,0%,0%)" stroke-width="0" x1="382" x2="270" y1="215" y2="396" /><line stroke="rgb(100%,0%,0%)" stroke-width="1" x1="270" x2="322" y1="396" y2="261" /><line stroke="rgb(100%,0%,0%)" stroke-width="1" x1="322" x2="371" y1="261" y2="453" /><line stroke="rgb(100%,0%,0%)" stroke-width="2" x1="371" x2="21" y1="453" y2="340" /><line stroke="rgb(100%,0%,0%)" stroke-width="0" x1="21" x2="467" y1="340" y2="22" /><line stroke="rgb(100%,0%,0%)" stroke-width="1" x1="467" x2="271" y1="22" y2="66" /><line stroke="rgb(100%,0%,0%)" stroke-width="0" x1="271" x2="202" y1="66" y2="83" /><line stroke="rgb(100%,0%,0%)" stroke-width="0" x1="202" x2="363" y1="83" y2="357" /><line stroke="rgb(100%,0%,0%)" stroke-width="2" x1="363" x2="332" y1="357" y2="51" /><line stroke="rgb(100%,0%,0%)" stroke-width="1" x1="332" x2="305" y1="51" y2="133" /><line stroke="rgb(100%,0%,0%)" stroke-width="2" x1="305" x2="422" y1="133" y2="312" /><line stroke="rgb(100%,0%,0%)" stroke-width="1" x1="422" x2="304" y1="312" y2="483" /><line stroke="rgb(100%,0%,0%)" stroke-width="1" x1="304" x2="312" y1="483" y2="28" /><line stroke="rgb(100%,0%,0%)" stroke-width="0" x1="312" x2="68" y1="28" y2="292" /><line stroke="rgb(100%,0%,0%)" stroke-width="0" x1="68" x2="129" y1="292" y2="271" /><line stroke="rgb(100%,0%,0%)" stroke-width="0" x1="129" x2="442" y1="271" y2="58" /><line stroke="rgb(100%,0%,0%)" stroke-width="0" x1="442" x2="157" y1="58" y2="417" /><line stroke="rgb(100%,0%,0%)" stroke-width="0" x1="157" x2="444" y1="417" y2="493" /><line stroke="rgb(100%,0%,0%)" stroke-width="0" x1="444" x2="146" y1="493" y2="246" /><line stroke="rgb(100%,0%,0%)" stroke-width="0" x1="146" x2="53" y1="246" y2="465" /><line stroke="rgb(100%,0%,0%)" stroke-width="0" x1="53" x2="312" y1="465" y2="174" /><line stroke="rgb(100%,0%,0%)" stroke-width="2" x1="312" x2="446" y1="174" y2="499" /><line stroke="rgb(100%,0%,0%)" stroke-width="1" x1="446" x2="361" y1="499" y2="497" /><line stroke="rgb(100%,0%,0%)" stroke-width="2" x1="361" x2="198" y1="497" y2="464" /><line stroke="rgb(100%,0%,0%)" stroke-width="2" x1="198" x2="325" y1="464" y2="344" /><line stroke="rgb(100%,0%,0%)" stroke-width="1" x1="325" x2="110" y1="344" y2="277" /><line stroke="rgb(100%,0%,0%)" stroke-width="2" x1="110" x2="462" y1="277" y2="360" /><line stroke="rgb(100%,0%,0%)" stroke-width="1" x1="462" x2="493" y1="360" y2="355" /><line stroke="rgb(100%,0%,0%)" stroke-width="0" x1="493" x2="70" y1="355" y2="337" /><line stroke="rgb(100%,0%,0%)" stroke-width="0" x1="70" x2="354" y1="337" y2="134" /><line stroke="rgb(100%,0%,0%)" stroke-width="2" x1="354" x2="407" y1="134" y2="376" /><line stroke="rgb(100%,0%,0%)" stroke-width="2" x1="407" x2="313" y1="376" y2="11" /><line stroke="rgb(100%,0%,0%)" stroke-width="0" x1="313" x2="296" y1="11" y2="465" /><line stroke="rgb(100%,0%,0%)" stroke-width="2" x1="296" x2="208" y1="465" y2="394" /><line stroke="rgb(100%,0%,0%)" stroke-width="1" x1="208" x2="122" y1="394" y2="496" /><line stroke="rgb(100%,0%,0%)" stroke-width="2" x1="122" x2="182" y1="496" y2="137" /><line stroke="rgb(100%,0%,0%)" stroke-width="2" x1="182" x2="108" y1="137" y2="136" /><line stroke="rgb(100%,0%,0%)" stroke-width="2" x1="108" x2="341" y1="136" y2="21" /><line stroke="rgb(100%,0%,0%)" stroke-width="0" x1="341" x2="394" y1="21" y2="363" /><line stroke="rgb(100%,0%,0%)" stroke-width="1" x1="394" x2="215" y1="363" y2="300" /><line stroke="rgb(100%,0%,0%)" stroke-width="1" x1="215" x2="145" y1="300" y2="198" /><line stroke="rgb(100%,0%,0%)" stroke-width="0" x1="145" x2="33" y1="198" y2="21" /><line stroke="rgb(100%,0%,0%)" stroke-width="2" x1="33" x2="291" y1="21" y2="307" /><line stroke="rgb(100%,0%,0%)" stroke-width="2" x1="291" x2="417" y1="307" y2="239" /><line stroke="rgb(100%,0%,0%)" stroke-width="0" x1="417" x2="335" y1="239" y2="137" /><line stroke="rgb(100%,0%,0%)" stroke-width="0" x1="335" x2="214" y1="137" y2="361" /><line stroke="rgb(100%,0%,0%)" stroke-width="1" x1="214" x2="336" y1="361" y2="19" /><line stroke="rgb(100%,0%,0%)" stroke-width="0" x1="336" x2="422" y1="19" y2="468" /><line stroke="rgb(100%,0%,0%)" stroke-width="2" x1="422" x2="220" y1="468" y2="70" /><line stroke="rgb(100%,0%,0%)" stroke-width="1" x1="220" x2="59" y1="70" y2="368" /><line stroke="rgb(100%,0%,0%)" stroke-width="2" x1="59" x2="498" y1="368" y2="433" /><line stroke="rgb(100%,0%,0%)" stroke-width="2" x1="498" x2="24" y1="433" y2="98" /><line stroke="rgb(100%,0%,0%)" stroke-width="2" x1="24" x2="379" y1="98" y2="5" /><line stroke="rgb(100%,0%,0%)" stroke-width="1" x1="379" x2="443" y1="5" y2="255" /><line stroke="rgb(100%,0%,0%)" stroke-width="1" x1="443" x2="342" y1="255" y2="161" /><line stroke="rgb(100%,0%,0%)" stroke-width="1" x1="342" x2="22" y1="161" y2="31" /><line stroke="rgb(100%,0%,0%)" stroke-width="1" x1="22" x2="41" y1="31" y2="340" /><line stroke="rgb(100%,0%,0%)" stroke-width="1" x1="41" x2="220" y1="340" y2="351" /><line stroke="rgb(100%,0%,0%)" stroke-width="1" x1="220" x2="147" y1="351" y2="272" /><line stroke="rgb(100%,0%,0%)" stroke-width="0" x1="147" x2="436" y1="272" y2="40" /><line stroke="rgb(100%,0%,0%)" stroke-width="0" x1="436" x2="483" y1="40" y2="291" /><line stroke="rgb(100%,0%,0%)" stroke-width="0" x1="483" x2="18" y1="291" y2="482" /><line stroke="rgb(100%,0%,0%)" stroke-width="0" x1="18" x2="281" y1="482" y2="239" /><line stroke="rgb(100%,0%,0%)" stroke-width="1" x1="281" x2="42" y1="239" y2="448" /><line stroke="rgb(100%,0%,0%)" stroke-width="2" x1="42" x2="479" y1="448" y2="131" /><line stroke="rgb(100%,0%,0%)" stroke-width="0" x1="479" x2="132" y1="131" y2="399" /><line stroke="rgb(100%,0%,0%)" stroke-width="2" x1="132" x2="466" y1="399" y2="131" /><line stroke="rgb(100%,0%,0%)" stroke-width="1" x1="466" x2="188" y1="131" y2="226" /><line stroke="rgb(100%,0%,0%)" stroke-width="0" x1="188" x2="429" y1="226" y2="366" /><line stroke="rgb(100%,0%,0%)" stroke-width="0" x1="429" x2="464" y1="366" y2="226" /><line stroke="rgb(100%,0%,0%)" stroke-width="0" x1="464" x2="70" y1="226" y2="13" /><line stroke="rgb(100%,0%,0%)" stroke-width="1" x1="70" x2="393" y1="13" y2="81" /><line stroke="rgb(100%,0%,0%)" stroke-width="1" x1="393" x2="387" y1="81" y2="165" /><line stroke="rgb(100%,0%,0%)" stroke-width="2" x1="387" x2="334" y1="165" y2="323" /><line stroke="rgb(100%,0%,0%)" stroke-width="1" x1="334" x2="42" y1="323" y2="425" /><line stroke="rgb(100%,0%,0%)" stroke-width="0" x1="42" x2="340" y1="425" y2="134" /><line stroke="rgb(100%,0%,0%)" stroke-width="0" x1="340" x2="182" y1="134" y2="139" /><line stroke="rgb(100%,0%,0%)" stroke-width="0" x1="182" x2="187" y1="139" y2="75" /><line stroke="rgb(100%,0%,0%)" stroke-width="0" x1="187" x2="472" y1="75" y2="382" /><line stroke="rgb(100%,0%,0%)" stroke-width="0" x1="472" x2="109" y1="382" y2="201" /><line stroke="rgb(100%,0%,0%)" stroke-width="1" x1="109" x2="399" y1="201" y2="305" /><line stroke="rgb(100%,0%,0%)" stroke-width="2" x1="399" x2="381" y1="305" y2="27" /><line stroke="rgb(100%,0%,0%)" stroke-width="0" x1="381" x2="18" y1="27" y2="301" /><line stroke="rgb(100%,0%,0%)" stroke-width="1" x1="18" x2="375" y1="301" y2="380" /><line stroke="rgb(100%,0%,0%)" stroke-width="0" x1="375" x2="217" y1="380" y2="156" /><line stroke="rgb(100%,0%,0%)" stroke-width="0" x1="217" x2="278" y1="156" y2="344" /><line stroke="rgb(100%,0%,0%)" stroke-width="1" x1="278" x2="356" y1="344" y2="359" /><line stroke="rgb(100%,0%,0%)" stroke-width="1" x1="356" x2="437" y1="359" y2="484" /><line stroke="rgb(100%,0%,0%)" stroke-width="1" x1="437" x2="449" y1="484" y2="322" /><line stroke="rgb(100%,0%,0%)" stroke-width="0" x1="449" x2="285" y1="322" y2="185" /></svg>