<?xml version="1.0" encoding="utf-8" ?>
<svg baseProfile="full" height="100%" version="1.1" width="100%" xmlns="http://www.w3.org/2000/svg" xmlns:ev="http://www.w3.org/2001/xml-events" xmlns:xlink="http://www.w3.org/1999/xlink"><defs /><rect fill="#000" height="500" width="500" x="0" y="0" /><line stroke="rgb(255,0,0)" stroke-width="0" x1="295" x2="42" y1="319" y2="29" /><line stroke="rgb(255,0,0)" stroke-width="0" x1="42" x2="165" y1="29" y2="206" /><line stroke="rgb(170,0,0)" stroke-width="2" x1="165" x2="204" y1="206" y2="292" /><line stroke="rgb(255,0,0)" stroke-width="0" x1="204" x2="415" y1="292" y2="37" /><line stroke="rgb(170,0,0)" stroke-width="2" x1="415" x2="275" y1="37" y2="478" /><line stroke="rgb(180,0,0)" stroke-width="1" x1="275" x2="100" y1="478" y2="291" /><line stroke="rgb(180,0,0)" stroke-width="1" x1="100" x2="114" y1="291" y2="316" /><line stroke="rgb(180,0,0)" stroke-width="1" x1="114" x2="290" y1="316" y2="267" /><line stroke="rgb(170,0,0)" stroke-width="2" x1="290" x2="187" y1="267" y2="21" /><line stroke="rgb(180,0,0)" stroke-width="1" x1="187" x2="68" y1="21" y2="428" /><line stroke="rgb(255,0,0)" stroke-width="0" x1="68" x2="403" y1="428" y2="144" /><line stroke="rgb(255,0,0)" stroke-width="0" x1="403" x2="242" y1="144" y2="18" /><line stroke="rgb(170,0,0)" stroke-width="2" x1="242" x2="105" y1="18" y2="74" /><line stroke="rgb(180,0,0)" stroke-width="1" x1="105" x2="494" y1="74" y2="410" /><line stroke="rgb(170,0,0)" stroke-width="2" x1="494" x2="9" y1="410" y2="114" /><line stroke="rgb(180,0,0)" stroke-width="1" x1="9" x2="163" y1="114" y2="445" /><line stroke="rgb(255,0,0)" stroke-width="0" x1="163" x2="123" y1="445" y2="245" /><line stroke="rgb(255,0,0)" stroke-width="0" x1="123" x2="496" y1="245" y2="300" /><line stroke="rgb(255,0,0)" stroke-width="0" x1="496" x2="225" y1="300" y2="356" /><line stroke="rgb(170,0,0)" stroke-width="2" x1="225" x2="351" y1="356" y2="309" /><line stroke="rgb(255,0,0)" stroke-width="0" x1="351" x2="353" y1="309" y2="205" /><line stroke="rgb(180,0,0)" stroke-width="1" x1="353" x2="403" y1="205" y2="195" /><line stroke="rgb(170,0,0)" stroke-width="2" x1="403" x2="94" y1="195" y2="302" /><line stroke="rgb(180,0,0)" stroke-width="1" x1="94" x2="32" y1="302" y2="212" /><line stroke="rgb(180,0,0)" stroke-width="1" x1="32" x2="96" y1="212" y2="113" /><line stroke="rgb(180,0,0)" stroke-width="1" x1="96" x2="437" y1="113" y2="330" /><line stroke="rgb(170,0,0)" stroke-width="2" x1="437" x2="476" y1="330" y2="309" /><line stroke="rgb(180,0,0)" stroke-width="1" x1="476" x2="364" y1="309" y2="398" /><line stroke="rgb(180,0,0)" stroke-width="1" x1="364" x2="79" y1="398" y2="104" /><line stroke="rgb(180,0,0)" stroke-width="1" x1="79" x2="322" y1="104" y2="230" /><line stroke="rgb(255,0,0)" stroke-width="0" x1="322" x2="329" y1="230" y2="442" /><line stroke="rgb(255,0,0)" stroke-width="0" x1="329" x2="283" y1="442" y2="44" /><line stroke="rgb(180,0,0)" stroke-width="1" x1="283" x2="492" y1="44" y2="414" /><line stroke="rgb(255,0,0)" stroke-width="0" x1="492" x2="59" y1="414" y2="283" /><line stroke="rgb(255,0,0)" stroke-width="0" x1="59" x2="136" y1="283" y2="60" /><line stroke="rgb(255,0,0)" stroke-width="0" x1="136" x2="397" y1="60" y2="108" /><line stroke="rgb(255,0,0)" stroke-width="0" x1="397" x2="349" y1="108" y2="1" /><line stroke="rgb(180,0,0)" stroke-width="1" x1="349" x2="31" y1="1" y2="208" /><line stroke="rgb(255,0,0)" stroke-width="0" x1="31" x2="416" y1="208" y2="470" /><line stroke="rgb(170,0,0)" stroke-width="2" x1="416" x2="345" y1="470" y2="37" /><line stroke="rgb(255,0,0)" stroke-width="0" x1="345" x2="313" y1="37" y2="92" /><line stroke="rgb(180,0,0)" stroke-width="1" x1="313" x2="450" y1="92" y2="461" /><line stroke="rgb(170,0,0)" stroke-width="2" x1="450" x2="378" y1="461" y2="230" /><line stroke="rgb(170,0,0)" stroke-width="2" x1="378" x2="365" y1="230" y2="339" /><line stroke="rgb(180,0,0)" stroke-width="1" x1="365" x2="103" y1="339" y2="384" /><line stroke="rgb(255,0,0)" stroke-width="0" x1="103" x2="346" y1="384" y2="174" /><line stroke="rgb(170,0,0)" stroke-width="2" x1="346" x2="364" y1="174" y2="365" /><line stroke="rgb(180,0,0)" stroke-width="1" x1="364" x2="294" y1="365" y2="447" /><line stroke="rgb(180,0,0)" stroke-width="1" x1="294" x2="384" y1="447" y2="419" /><line stroke="rgb(170,0,0)" stroke-width="2" x1="384" x2="187" y1="419" y2="372" /><line stroke="rgb(170,0,0)" stroke-width="2" x1="187" x2="356" y1="372" y2="96" /><line stroke="rgb(170,0,0)" stroke-width="2" x1="356" x2="462" y1="96" y2="32" /><line stroke="rgb(170,0,0)" stroke-width="2" x1="462" x2="242" y1="32" y2="238" /><line stroke="rgb(180,0,0)" stroke-width="1" x1="242" x2="321" y1="238" y2="114" /><line stroke="rgb(180,0,0)" stroke-width="1" x1="321" x2="135" y1="114" y2="200" /><line stroke="rgb(180,0,0)" stroke-width="1" x1="135" x2="158" y1="200" y2="223" /><line stroke="rgb(170,0,0)" stroke-width="2" x1="158" x2="427" y1="223" y2="22" /><line stroke="rgb(170,0,0)" stroke-width="2" x1="427" x2="235" y1="22" y2="348" /><line stroke="rgb(180,0,0)" stroke-width="1" x1="235" x2="455" y1="348" y2="359" /><line stroke="rgb(180,0,0)" stroke-width="1" x1="455" x2="499" y1="359" y2="74" /><line stroke="rgb(180,0,0)" stroke-width="1" x1="499" x2="130" y1="74" y2="15" /><line stroke="rgb(170,0,0)" stroke-width="2" x1="130" x2="430" y1="15" y2="165" /><line stroke="rgb(255,0,0)" stroke-width="0" x1="430" x2="462" y1="165" y2="251" /><line stroke="rgb(170,0,0)" stroke-width="2" x1="462" x2="176" y1="251" y2="481" /><line stroke="rgb(180,0,0)" stroke-width="1" x1="176" x2="201" y1="481" y2="323" /><line stroke="rgb(170,0,0)" stroke-width="2" x1="201" x2="92" y1="323" y2="64" /><line stroke="rgb(170,0,0)" stroke-width="2" x1="92" x2="350" y1="64" y2="322" /><line stroke="rgb(170,0,0)" stroke-width="2" x1="350" x2="263" y1="322" y2="276" /><line stroke="rgb(180,0,0)" stroke-width="1" x1="263" x2="225" y1="276" y2="93" /><line stroke="rgb(170,0,0)" stroke-width="2" x1="225" x2="16" y1="93" y2="68" /><line stroke="rgb(170,0,0)" stroke-width="2" x1="16" x2="262" y1="68" y2="44" /><line stroke="rgb(180,0,0)" stroke-width="1" x1="262" x2="70" y1="44" y2="207" /><line stroke="rgb(180,0,0)" stroke-width="1" x1="70" x2="444" y1="207" y2="279" /><line stroke="rgb(170,0,0)" stroke-width="2" x1="444" x2="259" y1="279" y2="455" /><line stroke="rgb(255,0,0)" stroke-width="0" x1="259" x2="166" y1="455" y2="274" /><line stroke="rgb(255,0,0)" stroke-width="0" x1="166" x2="171" y1="274" y2="498" /><line stroke="rgb(180,0,0)" stroke-width="1" x1="171" x2="102" y1="498" y2="133" /><line stroke="rgb(180,0,0)" stroke-width="1" x1="102" x2="332" y1="133" y2="454" /><line stroke="rgb(255,0,0)" stroke-width="0" x1="332" x2="351" y1="454" y2="104" /><line stroke="rgb(170,0,0)" stroke-width="2" x1="351" x2="66" y1="104" y2="304" /><line stroke="rgb(170,0,0)" stroke-width="2" x1="66" x2="418" y1="304" y2="338" /><line stroke="rgb(170,0,0)" stroke-width="2" x1="418" x2="7" y1="338" y2="54" /><line stroke="rgb(180,0,0)" stroke-width="1" x1="7" x2="71" y1="54" y2="243" /><line stroke="rgb(255,0,0)" stroke-width="0" x1="71" x2="112" y1="243" y2="304" /><line stroke="rgb(170,0,0)" stroke-width="2" x1="112" x2="135" y1="304" y2="492" /><line stroke="rgb(170,0,0)" stroke-width="2" x1="135" x2="263" y1="492" y2="198" /><line stroke="rgb(255,0,0)" stroke-width="0" x1="263" x2="186" y1="198" y2="77" /><line stroke="rgb(255,0,0)" stroke-width="0" x1="186" x2="292" y1="77" y2="131" /><line stroke="rgb(180,0,0)" stroke-width="1" x1="292" x2="368" y1="131" y2="459" /><line stroke="rgb(255,0,0)" stroke-width="0" x1="368" x2="285" y1="459" y2="297" /><line stroke="rgb(255,0,0)" stroke-width="0" x1="285" x2="184" y1="297" y2="476" /><line stroke="rgb(255,0,0)" stroke-width="0" x1="184" x2="21" y1="476" y2="2" /><line stroke="rgb(170,0,0)" stroke-width="2" x1="21" x2="406" y1="2" y2="80" /><line stroke="rgb(170,0,0)" stroke-width="2" x1="406" x2="475" y1="80" y2="147" /><line stroke="rgb(170,0,0)" stroke-width="2" x1="475" x2="378" y1="147" y2="278" /><line stroke="rgb(180,0,0)" stroke-width="1" x1="378" x2="33" y1="278" y2="21" /><line stroke="rgb(170,0,0)" stroke-width="2" x1="33" x2="410" y1="21" y2="434" /><line stroke="rgb(180,0,0)" stroke-width="1" x1="410" x2="465" y1="434" y2="418" /><line stroke="rgb(255,0,0)" stroke-width="0" x1="465" x2="204" y1="418" y2="352" /><line stroke="rgb(255,0,0)" stroke-width="0" x1="204" x2="193" y1="352" y2="166" /></svg>