<?xml version="1.0" encoding="utf-8" ?>
<svg baseProfile="full" height="100%" version="1.1" width="100%" xmlns="http://www.w3.org/2000/svg" xmlns:ev="http://www.w3.org/2001/xml-events" xmlns:xlink="http://www.w3.org/1999/xlink"><defs /><rect fill="#000" height="500" width="500" x="0" y="0" /><line stroke="rgb(100%,0%,0%)" stroke-width="1" x1="234" x2="36" y1="261" y2="117" /><line stroke="rgb(100%,0%,0%)" stroke-width="2" x1="36" x2="152" y1="117" y2="137" /><line stroke="rgb(100%,0%,0%)" stroke-width="0" x1="152" x2="63" y1="137" y2="318" /><line stroke="rgb(100%,0%,0%)" stroke-width="1" x1="63" x2="384" y1="318" y2="235" /><line stroke="rgb(100%,0%,0%)" stroke-width="1" x1="384" x2="478" y1="235" y2="38" /><line stroke="rgb(100%,0%,0%)" stroke-width="2" x1="478" x2="46" y1="38" y2="324" /><line stroke="rgb(100%,0%,0%)" stroke-width="0" x1="46" x2="149" y1="324" y2="401" /><line stroke="rgb(100%,0%,0%)" stroke-width="2" x1="149" x2="28" y1="401" y2="468" /><line stroke="rgb(100%,0%,0%)" stroke-width="0" x1="28" x2="97" y1="468" y2="320" /><line stroke="rgb(100%,0%,0%)" stroke-width="1" x1="97" x2="16" y1="320" y2="176" /><line stroke="rgb(100%,0%,0%)" stroke-width="0" x1="16" x2="79" y1="176" y2="467" /><line stroke="rgb(100%,0%,0%)" stroke-width="0" x1="79" x2="252" y1="467" y2="34" /><line stroke="rgb(100%,0%,0%)" stroke-width="0" x1="252" x2="178" y1="34" y2="402" /><line stroke="rgb(100%,0%,0%)" stroke-width="2" x1="178" x2="282" y1="402" y2="91" /><line stroke="rgb(100%,0%,0%)" stroke-width="1" x1="282" x2="165" y1="91" y2="408" /><line stroke="rgb(100%,0%,0%)" stroke-width="2" x1="165" x2="170" y1="408" y2="453" /><line stroke="rgb(100%,0%,0%)" stroke-width="1" x1="170" x2="249" y1="453" y2="167" /><line stroke="rgb(100%,0%,0%)" stroke-width="0" x1="249" x2="430" y1="167" y2="380" /><line stroke="rgb(100%,0%,0%)" stroke-width="1" x1="430" x2="362" y1="380" y2="350" /><line stroke="rgb(100%,0%,0%)" stroke-width="2" x1="362" x2="103" y1="350" y2="485" /><line stroke="rgb(100%,0%,0%)" stroke-width="0" x1="103" x2="363" y1="485" y2="308" /><line stroke="rgb(100%,0%,0%)" stroke-width="1" x1="363" x2="446" y1="308" y2="439" /><line stroke="rgb(100%,0%,0%)" stroke-width="1" x1="446" x2="487" y1="439" y2="209" /><line stroke="rgb(100%,0%,0%)" stroke-width="0" x1="487" x2="315" y1="209" y2="22" /><line stroke="rgb(100%,0%,0%)" stroke-width="2" x1="315" x2="213" y1="22" y2="500" /><line stroke="rgb(100%,0%,0%)" stroke-width="0" x1="213" x2="370" y1="500" y2="205" /><line stroke="rgb(100%,0%,0%)" stroke-width="0" x1="370" x2="334" y1="205" y2="169" /><line stroke="rgb(100%,0%,0%)" stroke-width="2" x1="334" x2="465" y1="169" y2="337" /><line stroke="rgb(100%,0%,0%)" stroke-width="2" x1="465" x2="413" y1="337" y2="414" /><line stroke="rgb(100%,0%,0%)" stroke-width="1" x1="413" x2="96" y1="414" y2="338" /><line stroke="rgb(100%,0%,0%)" stroke-width="1" x1="96" x2="62" y1="338" y2="403" /><line stroke="rgb(100%,0%,0%)" stroke-width="1" x1="62" x2="413" y1="403" y2="472" /><line stroke="rgb(100%,0%,0%)" stroke-width="1" x1="413" x2="477" y1="472" y2="338" /><line stroke="rgb(100%,0%,0%)" stroke-width="0" x1="477" x2="252" y1="338" y2="496" /><line stroke="rgb(100%,0%,0%)" stroke-width="2" x1="252" x2="311" y1="496" y2="102" /><line stroke="rgb(100%,0%,0%)" stroke-width="0" x1="311" x2="447" y1="102" y2="70" /><line stroke="rgb(100%,0%,0%)" stroke-width="0" x1="447" x2="111" y1="70" y2="220" /><line stroke="rgb(100%,0%,0%)" stroke-width="2" x1="111" x2="107" y1="220" y2="179" /><line stroke="rgb(100%,0%,0%)" stroke-width="2" x1="107" x2="147" y1="179" y2="461" /><line stroke="rgb(100%,0%,0%)" stroke-width="1" x1="147" x2="44" y1="461" y2="22" /><line stroke="rgb(100%,0%,0%)" stroke-width="1" x1="44" x2="374" y1="22" y2="81" /><line stroke="rgb(100%,0%,0%)" stroke-width="0" x1="374" x2="195" y1="81" y2="299" /><line stroke="rgb(100%,0%,0%)" stroke-width="1" x1="195" x2="471" y1="299" y2="421" /><line stroke="rgb(100%,0%,0%)" stroke-width="1" x1="471" x2="305" y1="421" y2="311" /><line stroke="rgb(100%,0%,0%)" stroke-width="1" x1="305" x2="70" y1="311" y2="101" /><line stroke="rgb(100%,0%,0%)" stroke-width="0" x1="70" x2="50" y1="101" y2="332" /><line stroke="rgb(100%,0%,0%)" stroke-width="0" x1="50" x2="42" y1="332" y2="337" /><line stroke="rgb(100%,0%,0%)" stroke-width="1" x1="42" x2="327" y1="337" y2="95" /><line stroke="rgb(100%,0%,0%)" stroke-width="2" x1="327" x2="203" y1="95" y2="30" /><line stroke="rgb(100%,0%,0%)" stroke-width="2" x1="203" x2="83" y1="30" y2="98" /><line stroke="rgb(100%,0%,0%)" stroke-width="1" x1="83" x2="260" y1="98" y2="241" /><line stroke="rgb(100%,0%,0%)" stroke-width="0" x1="260" x2="461" y1="241" y2="368" /><line stroke="rgb(100%,0%,0%)" stroke-width="1" x1="461" x2="289" y1="368" y2="38" /><line stroke="rgb(100%,0%,0%)" stroke-width="2" x1="289" x2="287" y1="38" y2="353" /><line stroke="rgb(100%,0%,0%)" stroke-width="1" x1="287" x2="14" y1="353" y2="275" /><line stroke="rgb(100%,0%,0%)" stroke-width="1" x1="14" x2="255" y1="275" y2="489" /><line stroke="rgb(100%,0%,0%)" stroke-width="0" x1="255" x2="109" y1="489" y2="369" /><line stroke="rgb(100%,0%,0%)" stroke-width="1" x1="109" x2="234" y1="369" y2="89" /><line stroke="rgb(100%,0%,0%)" stroke-width="0" x1="234" x2="416" y1="89" y2="86" /><line stroke="rgb(100%,0%,0%)" stroke-width="1" x1="416" x2="393" y1="86" y2="131" /><line stroke="rgb(100%,0%,0%)" stroke-width="1" x1="393" x2="30" y1="131" y2="354" /><line stroke="rgb(100%,0%,0%)" stroke-width="0" x1="30" x2="129" y1="354" y2="283" /><line stroke="rgb(100%,0%,0%)" stroke-width="1" x1="129" x2="483" y1="283" y2="488" /><line stroke="rgb(100%,0%,0%)" stroke-width="2" x1="483" x2="98" y1="488" y2="236" /><line stroke="rgb(100%,0%,0%)" stroke-width="2" x1="98" x2="393" y1="236" y2="483" /><line stroke="rgb(100%,0%,0%)" stroke-width="0" x1="393" x2="254" y1="483" y2="215" /><line stroke="rgb(100%,0%,0%)" stroke-width="2" x1="254" x2="156" y1="215" y2="140" /><line stroke="rgb(100%,0%,0%)" stroke-width="0" x1="156" x2="497" y1="140" y2="91" /><line stroke="rgb(100%,0%,0%)" stroke-width="1" x1="497" x2="159" y1="91" y2="408" /><line stroke="rgb(100%,0%,0%)" stroke-width="2" x1="159" x2="341" y1="408" y2="279" /><line stroke="rgb(100%,0%,0%)" stroke-width="1" x1="341" x2="148" y1="279" y2="436" /><line stroke="rgb(100%,0%,0%)" stroke-width="2" x1="148" x2="392" y1="436" y2="270" /><line stroke="rgb(100%,0%,0%)" stroke-width="0" x1="392" x2="359" y1="270" y2="101" /><line stroke="rgb(100%,0%,0%)" stroke-width="1" x1="359" x2="15" y1="101" y2="431" /><line stroke="rgb(100%,0%,0%)" stroke-width="0" x1="15" x2="365" y1="431" y2="55" /><line stroke="rgb(100%,0%,0%)" stroke-width="0" x1="365" x2="261" y1="55" y2="192" /><line stroke="rgb(100%,0%,0%)" stroke-width="1" x1="261" x2="172" y1="192" y2="190" /><line stroke="rgb(100%,0%,0%)" stroke-width="1" x1="172" x2="8" y1="190" y2="65" /><line stroke="rgb(100%,0%,0%)" stroke-width="1" x1="8" x2="33" y1="65" y2="446" /><line stroke="rgb(100%,0%,0%)" stroke-width="2" x1="33" x2="162" y1="446" y2="338" /><line stroke="rgb(100%,0%,0%)" stroke-width="2" x1="162" x2="300" y1="338" y2="429" /><line stroke="rgb(100%,0%,0%)" stroke-width="0" x1="300" x2="270" y1="429" y2="469" /><line stroke="rgb(100%,0%,0%)" stroke-width="2" x1="270" x2="243" y1="469" y2="14" /><line stroke="rgb(100%,0%,0%)" stroke-width="1" x1="243" x2="406" y1="14" y2="399" /><line stroke="rgb(100%,0%,0%)" stroke-width="1" x1="406" x2="168" y1="399" y2="236" /><line stroke="rgb(100%,0%,0%)" stroke-width="0" x1="168" x2="319" y1="236" y2="265" /><line stroke="rgb(100%,0%,0%)" stroke-width="0" x1="319" x2="97" y1="265" y2="322" /><line stroke="rgb(100%,0%,0%)" stroke-width="1" x1="97" x2="182" y1="322" y2="334" /><line stroke="rgb(100%,0%,0%)" stroke-width="2" x1="182" x2="209" y1="334" y2="430" /><line stroke="rgb(100%,0%,0%)" stroke-width="0" x1="209" x2="178" y1="430" y2="203" /><line stroke="rgb(100%,0%,0%)" stroke-width="1" x1="178" x2="493" y1="203" y2="467" /><line stroke="rgb(100%,0%,0%)" stroke-width="2" x1="493" x2="102" y1="467" y2="459" /><line stroke="rgb(100%,0%,0%)" stroke-width="0" x1="102" x2="378" y1="459" y2="461" /><line stroke="rgb(100%,0%,0%)" stroke-width="2" x1="378" x2="390" y1="461" y2="19" /><line stroke="rgb(100%,0%,0%)" stroke-width="1" x1="390" x2="296" y1="19" y2="170" /><line stroke="rgb(100%,0%,0%)" stroke-width="0" x1="296" x2="217" y1="170" y2="186" /><line stroke="rgb(100%,0%,0%)" stroke-width="0" x1="217" x2="336" y1="186" y2="457" /><line stroke="rgb(100%,0%,0%)" stroke-width="1" x1="336" x2="95" y1="457" y2="223" /><line stroke="rgb(100%,0%,0%)" stroke-width="0" x1="95" x2="465" y1="223" y2="324" /><line stroke="rgb(100%,0%,0%)" stroke-width="0" x1="465" x2="191" y1="324" y2="103" /></svg>