<?xml version="1.0" encoding="utf-8" ?>
<svg baseProfile="full" height="100%" version="1.1" width="100%" xmlns="http://www.w3.org/2000/svg" xmlns:ev="http://www.w3.org/2001/xml-events" xmlns:xlink="http://www.w3.org/1999/xlink"><defs /><rect fill="#000" height="500" width="500" x="0" y="0" /><line stroke="rgb(100%,0%,0%)" stroke-width="1" x1="349" x2="89" y1="341" y2="37" /><line stroke="rgb(100%,0%,0%)" stroke-width="0" x1="89" x2="13" y1="37" y2="151" /><line stroke="rgb(100%,0%,0%)" stroke-width="1" x1="13" x2="357" y1="151" y2="320" /><line stroke="rgb(100%,0%,0%)" stroke-width="1" x1="357" x2="30" y1="320" y2="291" /><line stroke="rgb(100%,0%,0%)" stroke-width="2" x1="30" x2="453" y1="291" y2="339" /><line stroke="rgb(100%,0%,0%)" stroke-width="2" x1="453" x2="457" y1="339" y2="124" /><line stroke="rgb(100%,0%,0%)" stroke-width="1" x1="457" x2="406" y1="124" y2="327" /><line stroke="rgb(100%,0%,0%)" stroke-width="0" x1="406" x2="68" y1="327" y2="75" /><line stroke="rgb(100%,0%,0%)" stroke-width="1" x1="68" x2="246" y1="75" y2="78" /><line stroke="rgb(100%,0%,0%)" stroke-width="2" x1="246" x2="386" y1="78" y2="121" /><line stroke="rgb(100%,0%,0%)" stroke-width="1" x1="386" x2="471" y1="121" y2="146" /><line stroke="rgb(100%,0%,0%)" stroke-width="1" x1="471" x2="53" y1="146" y2="54" /><line stroke="rgb(100%,0%,0%)" stroke-width="2" x1="53" x2="92" y1="54" y2="0" /><line stroke="rgb(100%,0%,0%)" stroke-width="1" x1="92" x2="145" y1="0" y2="239" /><line stroke="rgb(100%,0%,0%)" stroke-width="2" x1="145" x2="385" y1="239" y2="64" /><line stroke="rgb(100%,0%,0%)" stroke-width="0" x1="385" x2="440" y1="64" y2="51" /><line stroke="rgb(100%,0%,0%)" stroke-width="2" x1="440" x2="31" y1="51" y2="402" /><line stroke="rgb(100%,0%,0%)" stroke-width="2" x1="31" x2="289" y1="402" y2="470" /><line stroke="rgb(100%,0%,0%)" stroke-width="0" x1="289" x2="103" y1="470" y2="107" /><line stroke="rgb(100%,0%,0%)" stroke-width="1" x1="103" x2="40" y1="107" y2="370" /><line stroke="rgb(100%,0%,0%)" stroke-width="2" x1="40" x2="113" y1="370" y2="194" /><line stroke="rgb(100%,0%,0%)" stroke-width="0" x1="113" x2="474" y1="194" y2="439" /><line stroke="rgb(100%,0%,0%)" stroke-width="0" x1="474" x2="135" y1="439" y2="322" /><line stroke="rgb(100%,0%,0%)" stroke-width="1" x1="135" x2="194" y1="322" y2="207" /><line stroke="rgb(100%,0%,0%)" stroke-width="1" x1="194" x2="178" y1="207" y2="489" /><line stroke="rgb(100%,0%,0%)" stroke-width="2" x1="178" x2="428" y1="489" y2="30" /><line stroke="rgb(100%,0%,0%)" stroke-width="2" x1="428" x2="196" y1="30" y2="241" /><line stroke="rgb(100%,0%,0%)" stroke-width="2" x1="196" x2="474" y1="241" y2="210" /><line stroke="rgb(100%,0%,0%)" stroke-width="1" x1="474" x2="358" y1="210" y2="40" /><line stroke="rgb(100%,0%,0%)" stroke-width="0" x1="358" x2="342" y1="40" y2="94" /><line stroke="rgb(100%,0%,0%)" stroke-width="2" x1="342" x2="127" y1="94" y2="213" /><line stroke="rgb(100%,0%,0%)" stroke-width="2" x1="127" x2="259" y1="213" y2="312" /><line stroke="rgb(100%,0%,0%)" stroke-width="1" x1="259" x2="253" y1="312" y2="417" /><line stroke="rgb(100%,0%,0%)" stroke-width="2" x1="253" x2="182" y1="417" y2="453" /><line stroke="rgb(100%,0%,0%)" stroke-width="0" x1="182" x2="68" y1="453" y2="478" /><line stroke="rgb(100%,0%,0%)" stroke-width="1" x1="68" x2="314" y1="478" y2="94" /><line stroke="rgb(100%,0%,0%)" stroke-width="0" x1="314" x2="135" y1="94" y2="442" /><line stroke="rgb(100%,0%,0%)" stroke-width="0" x1="135" x2="325" y1="442" y2="289" /><line stroke="rgb(100%,0%,0%)" stroke-width="2" x1="325" x2="270" y1="289" y2="388" /><line stroke="rgb(100%,0%,0%)" stroke-width="1" x1="270" x2="123" y1="388" y2="430" /><line stroke="rgb(100%,0%,0%)" stroke-width="1" x1="123" x2="361" y1="430" y2="11" /><line stroke="rgb(100%,0%,0%)" stroke-width="0" x1="361" x2="108" y1="11" y2="360" /><line stroke="rgb(100%,0%,0%)" stroke-width="2" x1="108" x2="261" y1="360" y2="216" /><line stroke="rgb(100%,0%,0%)" stroke-width="2" x1="261" x2="424" y1="216" y2="269" /><line stroke="rgb(100%,0%,0%)" stroke-width="0" x1="424" x2="306" y1="269" y2="91" /><line stroke="rgb(100%,0%,0%)" stroke-width="2" x1="306" x2="24" y1="91" y2="43" /><line stroke="rgb(100%,0%,0%)" stroke-width="1" x1="24" x2="466" y1="43" y2="331" /><line stroke="rgb(100%,0%,0%)" stroke-width="1" x1="466" x2="420" y1="331" y2="491" /><line stroke="rgb(100%,0%,0%)" stroke-width="2" x1="420" x2="61" y1="491" y2="19" /><line stroke="rgb(100%,0%,0%)" stroke-width="2" x1="61" x2="439" y1="19" y2="148" /><line stroke="rgb(100%,0%,0%)" stroke-width="0" x1="439" x2="314" y1="148" y2="406" /><line stroke="rgb(100%,0%,0%)" stroke-width="1" x1="314" x2="58" y1="406" y2="413" /><line stroke="rgb(100%,0%,0%)" stroke-width="2" x1="58" x2="352" y1="413" y2="213" /><line stroke="rgb(100%,0%,0%)" stroke-width="0" x1="352" x2="454" y1="213" y2="316" /><line stroke="rgb(100%,0%,0%)" stroke-width="1" x1="454" x2="143" y1="316" y2="59" /><line stroke="rgb(100%,0%,0%)" stroke-width="2" x1="143" x2="52" y1="59" y2="88" /><line stroke="rgb(100%,0%,0%)" stroke-width="0" x1="52" x2="161" y1="88" y2="155" /><line stroke="rgb(100%,0%,0%)" stroke-width="2" x1="161" x2="453" y1="155" y2="441" /><line stroke="rgb(100%,0%,0%)" stroke-width="1" x1="453" x2="324" y1="441" y2="23" /><line stroke="rgb(100%,0%,0%)" stroke-width="1" x1="324" x2="334" y1="23" y2="269" /><line stroke="rgb(100%,0%,0%)" stroke-width="0" x1="334" x2="406" y1="269" y2="349" /><line stroke="rgb(100%,0%,0%)" stroke-width="1" x1="406" x2="137" y1="349" y2="205" /><line stroke="rgb(100%,0%,0%)" stroke-width="2" x1="137" x2="355" y1="205" y2="157" /><line stroke="rgb(100%,0%,0%)" stroke-width="2" x1="355" x2="312" y1="157" y2="237" /><line stroke="rgb(100%,0%,0%)" stroke-width="1" x1="312" x2="185" y1="237" y2="78" /><line stroke="rgb(100%,0%,0%)" stroke-width="0" x1="185" x2="125" y1="78" y2="81" /><line stroke="rgb(100%,0%,0%)" stroke-width="1" x1="125" x2="87" y1="81" y2="376" /><line stroke="rgb(100%,0%,0%)" stroke-width="0" x1="87" x2="213" y1="376" y2="441" /><line stroke="rgb(100%,0%,0%)" stroke-width="0" x1="213" x2="172" y1="441" y2="342" /><line stroke="rgb(100%,0%,0%)" stroke-width="1" x1="172" x2="157" y1="342" y2="124" /><line stroke="rgb(100%,0%,0%)" stroke-width="0" x1="157" x2="370" y1="124" y2="301" /><line stroke="rgb(100%,0%,0%)" stroke-width="2" x1="370" x2="415" y1="301" y2="200" /><line stroke="rgb(100%,0%,0%)" stroke-width="2" x1="415" x2="378" y1="200" y2="301" /><line stroke="rgb(100%,0%,0%)" stroke-width="0" x1="378" x2="370" y1="301" y2="407" /><line stroke="rgb(100%,0%,0%)" stroke-width="1" x1="370" x2="280" y1="407" y2="120" /><line stroke="rgb(100%,0%,0%)" stroke-width="1" x1="280" x2="0" y1="120" y2="382" /><line stroke="rgb(100%,0%,0%)" stroke-width="0" x1="0" x2="81" y1="382" y2="234" /><line stroke="rgb(100%,0%,0%)" stroke-width="2" x1="81" x2="184" y1="234" y2="500" /><line stroke="rgb(100%,0%,0%)" stroke-width="1" x1="184" x2="369" y1="500" y2="128" /><line stroke="rgb(100%,0%,0%)" stroke-width="2" x1="369" x2="154" y1="128" y2="235" /><line stroke="rgb(100%,0%,0%)" stroke-width="0" x1="154" x2="164" y1="235" y2="462" /><line stroke="rgb(100%,0%,0%)" stroke-width="0" x1="164" x2="334" y1="462" y2="122" /><line stroke="rgb(100%,0%,0%)" stroke-width="1" x1="334" x2="354" y1="122" y2="261" /><line stroke="rgb(100%,0%,0%)" stroke-width="2" x1="354" x2="125" y1="261" y2="211" /><line stroke="rgb(100%,0%,0%)" stroke-width="1" x1="125" x2="192" y1="211" y2="44" /><line stroke="rgb(100%,0%,0%)" stroke-width="0" x1="192" x2="361" y1="44" y2="204" /><line stroke="rgb(100%,0%,0%)" stroke-width="0" x1="361" x2="223" y1="204" y2="264" /><line stroke="rgb(100%,0%,0%)" stroke-width="2" x1="223" x2="305" y1="264" y2="474" /><line stroke="rgb(100%,0%,0%)" stroke-width="2" x1="305" x2="352" y1="474" y2="338" /><line stroke="rgb(100%,0%,0%)" stroke-width="1" x1="352" x2="141" y1="338" y2="472" /><line stroke="rgb(100%,0%,0%)" stroke-width="0" x1="141" x2="0" y1="472" y2="332" /><line stroke="rgb(100%,0%,0%)" stroke-width="2" x1="0" x2="421" y1="332" y2="224" /><line stroke="rgb(100%,0%,0%)" stroke-width="2" x1="421" x2="1" y1="224" y2="68" /><line stroke="rgb(100%,0%,0%)" stroke-width="0" x1="1" x2="61" y1="68" y2="62" /><line stroke="rgb(100%,0%,0%)" stroke-width="1" x1="61" x2="81" y1="62" y2="83" /><line stroke="rgb(100%,0%,0%)" stroke-width="1" x1="81" x2="200" y1="83" y2="1" /><line stroke="rgb(100%,0%,0%)" stroke-width="1" x1="200" x2="395" y1="1" y2="78" /><line stroke="rgb(100%,0%,0%)" stroke-width="1" x1="395" x2="165" y1="78" y2="366" /><line stroke="rgb(100%,0%,0%)" stroke-width="0" x1="165" x2="225" y1="366" y2="405" /><line stroke="rgb(100%,0%,0%)" stroke-width="0" x1="225" x2="228" y1="405" y2="64" /></svg>