<?xml version="1.0" encoding="utf-8" ?>
<svg baseProfile="full" height="100%" version="1.1" width="100%" xmlns="http://www.w3.org/2000/svg" xmlns:ev="http://www.w3.org/2001/xml-events" xmlns:xlink="http://www.w3.org/1999/xlink"><defs /><rect fill="#000" height="500" width="500" x="0" y="0" /><line stroke="rgb(255,0,0)" stroke-width="0" x1="388" x2="220" y1="314" y2="228" /><line stroke="rgb(245,0,0)" stroke-width="1" x1="220" x2="238" y1="228" y2="490" /><line stroke="rgb(245,0,0)" stroke-width="1" x1="238" x2="191" y1="490" y2="416" /><line stroke="rgb(243,0,0)" stroke-width="2" x1="191" x2="387" y1="416" y2="248" /><line stroke="rgb(255,0,0)" stroke-width="0" x1="387" x2="100" y1="248" y2="445" /><line stroke="rgb(255,0,0)" stroke-width="0" x1="100" x2="86" y1="445" y2="369" /><line stroke="rgb(245,0,0)" stroke-width="1" x1="86" x2="100" y1="369" y2="338" /><line stroke="rgb(243,0,0)" stroke-width="2" x1="100" x2="397" y1="338" y2="198" /><line stroke="rgb(255,0,0)" stroke-width="0" x1="397" x2="480" y1="198" y2="49" /><line stroke="rgb(243,0,0)" stroke-width="2" x1="480" x2="203" y1="49" y2="263" /><line stroke="rgb(243,0,0)" stroke-width="2" x1="203" x2="211" y1="263" y2="177" /><line stroke="rgb(245,0,0)" stroke-width="1" x1="211" x2="31" y1="177" y2="162" /><line stroke="rgb(255,0,0)" stroke-width="0" x1="31" x2="210" y1="162" y2="115" /><line stroke="rgb(243,0,0)" stroke-width="2" x1="210" x2="30" y1="115" y2="287" /><line stroke="rgb(243,0,0)" stroke-width="2" x1="30" x2="144" y1="287" y2="47" /><line stroke="rgb(255,0,0)" stroke-width="0" x1="144" x2="109" y1="47" y2="6" /><line stroke="rgb(255,0,0)" stroke-width="0" x1="109" x2="230" y1="6" y2="215" /><line stroke="rgb(255,0,0)" stroke-width="0" x1="230" x2="41" y1="215" y2="23" /><line stroke="rgb(243,0,0)" stroke-width="2" x1="41" x2="23" y1="23" y2="368" /><line stroke="rgb(245,0,0)" stroke-width="1" x1="23" x2="77" y1="368" y2="348" /><line stroke="rgb(255,0,0)" stroke-width="0" x1="77" x2="465" y1="348" y2="301" /><line stroke="rgb(243,0,0)" stroke-width="2" x1="465" x2="68" y1="301" y2="422" /><line stroke="rgb(243,0,0)" stroke-width="2" x1="68" x2="409" y1="422" y2="81" /><line stroke="rgb(255,0,0)" stroke-width="0" x1="409" x2="47" y1="81" y2="150" /><line stroke="rgb(243,0,0)" stroke-width="2" x1="47" x2="222" y1="150" y2="238" /><line stroke="rgb(255,0,0)" stroke-width="0" x1="222" x2="479" y1="238" y2="93" /><line stroke="rgb(245,0,0)" stroke-width="1" x1="479" x2="401" y1="93" y2="167" /><line stroke="rgb(245,0,0)" stroke-width="1" x1="401" x2="307" y1="167" y2="485" /><line stroke="rgb(255,0,0)" stroke-width="0" x1="307" x2="460" y1="485" y2="249" /><line stroke="rgb(245,0,0)" stroke-width="1" x1="460" x2="144" y1="249" y2="160" /><line stroke="rgb(243,0,0)" stroke-width="2" x1="144" x2="23" y1="160" y2="240" /><line stroke="rgb(245,0,0)" stroke-width="1" x1="23" x2="54" y1="240" y2="363" /><line stroke="rgb(243,0,0)" stroke-width="2" x1="54" x2="460" y1="363" y2="183" /><line stroke="rgb(243,0,0)" stroke-width="2" x1="460" x2="95" y1="183" y2="447" /><line stroke="rgb(245,0,0)" stroke-width="1" x1="95" x2="195" y1="447" y2="368" /><line stroke="rgb(255,0,0)" stroke-width="0" x1="195" x2="62" y1="368" y2="495" /><line stroke="rgb(245,0,0)" stroke-width="1" x1="62" x2="16" y1="495" y2="89" /><line stroke="rgb(255,0,0)" stroke-width="0" x1="16" x2="227" y1="89" y2="373" /><line stroke="rgb(255,0,0)" stroke-width="0" x1="227" x2="329" y1="373" y2="177" /><line stroke="rgb(245,0,0)" stroke-width="1" x1="329" x2="433" y1="177" y2="135" /><line stroke="rgb(243,0,0)" stroke-width="2" x1="433" x2="415" y1="135" y2="84" /><line stroke="rgb(243,0,0)" stroke-width="2" x1="415" x2="28" y1="84" y2="327" /><line stroke="rgb(255,0,0)" stroke-width="0" x1="28" x2="333" y1="327" y2="219" /><line stroke="rgb(243,0,0)" stroke-width="2" x1="333" x2="198" y1="219" y2="92" /><line stroke="rgb(243,0,0)" stroke-width="2" x1="198" x2="97" y1="92" y2="215" /><line stroke="rgb(255,0,0)" stroke-width="0" x1="97" x2="173" y1="215" y2="101" /><line stroke="rgb(243,0,0)" stroke-width="2" x1="173" x2="291" y1="101" y2="271" /><line stroke="rgb(255,0,0)" stroke-width="0" x1="291" x2="241" y1="271" y2="377" /><line stroke="rgb(243,0,0)" stroke-width="2" x1="241" x2="100" y1="377" y2="216" /><line stroke="rgb(243,0,0)" stroke-width="2" x1="100" x2="83" y1="216" y2="44" /><line stroke="rgb(245,0,0)" stroke-width="1" x1="83" x2="409" y1="44" y2="463" /><line stroke="rgb(245,0,0)" stroke-width="1" x1="409" x2="71" y1="463" y2="345" /><line stroke="rgb(245,0,0)" stroke-width="1" x1="71" x2="455" y1="345" y2="395" /><line stroke="rgb(255,0,0)" stroke-width="0" x1="455" x2="499" y1="395" y2="449" /><line stroke="rgb(255,0,0)" stroke-width="0" x1="499" x2="74" y1="449" y2="481" /><line stroke="rgb(255,0,0)" stroke-width="0" x1="74" x2="413" y1="481" y2="26" /><line stroke="rgb(243,0,0)" stroke-width="2" x1="413" x2="222" y1="26" y2="28" /><line stroke="rgb(255,0,0)" stroke-width="0" x1="222" x2="452" y1="28" y2="374" /><line stroke="rgb(245,0,0)" stroke-width="1" x1="452" x2="256" y1="374" y2="282" /><line stroke="rgb(243,0,0)" stroke-width="2" x1="256" x2="248" y1="282" y2="15" /><line stroke="rgb(255,0,0)" stroke-width="0" x1="248" x2="144" y1="15" y2="467" /><line stroke="rgb(245,0,0)" stroke-width="1" x1="144" x2="97" y1="467" y2="386" /><line stroke="rgb(245,0,0)" stroke-width="1" x1="97" x2="56" y1="386" y2="272" /><line stroke="rgb(245,0,0)" stroke-width="1" x1="56" x2="379" y1="272" y2="298" /><line stroke="rgb(243,0,0)" stroke-width="2" x1="379" x2="387" y1="298" y2="283" /><line stroke="rgb(243,0,0)" stroke-width="2" x1="387" x2="16" y1="283" y2="417" /><line stroke="rgb(243,0,0)" stroke-width="2" x1="16" x2="197" y1="417" y2="465" /><line stroke="rgb(255,0,0)" stroke-width="0" x1="197" x2="388" y1="465" y2="327" /><line stroke="rgb(245,0,0)" stroke-width="1" x1="388" x2="312" y1="327" y2="389" /><line stroke="rgb(245,0,0)" stroke-width="1" x1="312" x2="352" y1="389" y2="470" /><line stroke="rgb(243,0,0)" stroke-width="2" x1="352" x2="418" y1="470" y2="399" /><line stroke="rgb(243,0,0)" stroke-width="2" x1="418" x2="312" y1="399" y2="306" /><line stroke="rgb(245,0,0)" stroke-width="1" x1="312" x2="313" y1="306" y2="494" /><line stroke="rgb(243,0,0)" stroke-width="2" x1="313" x2="282" y1="494" y2="281" /><line stroke="rgb(245,0,0)" stroke-width="1" x1="282" x2="29" y1="281" y2="139" /><line stroke="rgb(255,0,0)" stroke-width="0" x1="29" x2="141" y1="139" y2="29" /><line stroke="rgb(245,0,0)" stroke-width="1" x1="141" x2="230" y1="29" y2="159" /><line stroke="rgb(255,0,0)" stroke-width="0" x1="230" x2="256" y1="159" y2="256" /><line stroke="rgb(243,0,0)" stroke-width="2" x1="256" x2="192" y1="256" y2="383" /><line stroke="rgb(243,0,0)" stroke-width="2" x1="192" x2="156" y1="383" y2="302" /><line stroke="rgb(255,0,0)" stroke-width="0" x1="156" x2="364" y1="302" y2="373" /><line stroke="rgb(243,0,0)" stroke-width="2" x1="364" x2="90" y1="373" y2="275" /><line stroke="rgb(243,0,0)" stroke-width="2" x1="90" x2="401" y1="275" y2="266" /><line stroke="rgb(245,0,0)" stroke-width="1" x1="401" x2="401" y1="266" y2="137" /><line stroke="rgb(255,0,0)" stroke-width="0" x1="401" x2="2" y1="137" y2="45" /><line stroke="rgb(243,0,0)" stroke-width="2" x1="2" x2="18" y1="45" y2="203" /><line stroke="rgb(245,0,0)" stroke-width="1" x1="18" x2="342" y1="203" y2="214" /><line stroke="rgb(255,0,0)" stroke-width="0" x1="342" x2="393" y1="214" y2="497" /><line stroke="rgb(245,0,0)" stroke-width="1" x1="393" x2="352" y1="497" y2="454" /><line stroke="rgb(255,0,0)" stroke-width="0" x1="352" x2="406" y1="454" y2="489" /><line stroke="rgb(245,0,0)" stroke-width="1" x1="406" x2="173" y1="489" y2="211" /><line stroke="rgb(243,0,0)" stroke-width="2" x1="173" x2="326" y1="211" y2="253" /><line stroke="rgb(243,0,0)" stroke-width="2" x1="326" x2="489" y1="253" y2="362" /><line stroke="rgb(245,0,0)" stroke-width="1" x1="489" x2="190" y1="362" y2="170" /><line stroke="rgb(245,0,0)" stroke-width="1" x1="190" x2="319" y1="170" y2="101" /><line stroke="rgb(245,0,0)" stroke-width="1" x1="319" x2="375" y1="101" y2="289" /><line stroke="rgb(243,0,0)" stroke-width="2" x1="375" x2="249" y1="289" y2="212" /><line stroke="rgb(255,0,0)" stroke-width="0" x1="249" x2="14" y1="212" y2="330" /><line stroke="rgb(243,0,0)" stroke-width="2" x1="14" x2="384" y1="330" y2="457" /><line stroke="rgb(245,0,0)" stroke-width="1" x1="384" x2="324" y1="457" y2="329" /></svg>