<?xml version="1.0" encoding="utf-8" ?>
<svg baseProfile="full" height="100%" version="1.1" width="100%" xmlns="http://www.w3.org/2000/svg" xmlns:ev="http://www.w3.org/2001/xml-events" xmlns:xlink="http://www.w3.org/1999/xlink"><defs /><rect fill="#000" height="500" width="500" x="0" y="0" /><line stroke="rgb(254,0,0)" stroke-width="1" x1="350" x2="251" y1="471" y2="453" /><line stroke="rgb(254,0,0)" stroke-width="1" x1="251" x2="207" y1="453" y2="424" /><line stroke="rgb(254,0,0)" stroke-width="1" x1="207" x2="229" y1="424" y2="417" /><line stroke="rgb(206,0,0)" stroke-width="2" x1="229" x2="259" y1="417" y2="251" /><line stroke="rgb(255,0,0)" stroke-width="0" x1="259" x2="197" y1="251" y2="255" /><line stroke="rgb(254,0,0)" stroke-width="1" x1="197" x2="300" y1="255" y2="166" /><line stroke="rgb(255,0,0)" stroke-width="0" x1="300" x2="217" y1="166" y2="23" /><line stroke="rgb(206,0,0)" stroke-width="2" x1="217" x2="79" y1="23" y2="338" /><line stroke="rgb(255,0,0)" stroke-width="0" x1="79" x2="153" y1="338" y2="35" /><line stroke="rgb(255,0,0)" stroke-width="0" x1="153" x2="402" y1="35" y2="360" /><line stroke="rgb(254,0,0)" stroke-width="1" x1="402" x2="453" y1="360" y2="333" /><line stroke="rgb(254,0,0)" stroke-width="1" x1="453" x2="397" y1="333" y2="267" /><line stroke="rgb(206,0,0)" stroke-width="2" x1="397" x2="374" y1="267" y2="316" /><line stroke="rgb(254,0,0)" stroke-width="1" x1="374" x2="490" y1="316" y2="304" /><line stroke="rgb(255,0,0)" stroke-width="0" x1="490" x2="81" y1="304" y2="358" /><line stroke="rgb(254,0,0)" stroke-width="1" x1="81" x2="261" y1="358" y2="395" /><line stroke="rgb(206,0,0)" stroke-width="2" x1="261" x2="470" y1="395" y2="315" /><line stroke="rgb(255,0,0)" stroke-width="0" x1="470" x2="160" y1="315" y2="317" /><line stroke="rgb(255,0,0)" stroke-width="0" x1="160" x2="29" y1="317" y2="455" /><line stroke="rgb(255,0,0)" stroke-width="0" x1="29" x2="315" y1="455" y2="296" /><line stroke="rgb(254,0,0)" stroke-width="1" x1="315" x2="487" y1="296" y2="196" /><line stroke="rgb(254,0,0)" stroke-width="1" x1="487" x2="278" y1="196" y2="195" /><line stroke="rgb(206,0,0)" stroke-width="2" x1="278" x2="413" y1="195" y2="134" /><line stroke="rgb(254,0,0)" stroke-width="1" x1="413" x2="464" y1="134" y2="383" /><line stroke="rgb(255,0,0)" stroke-width="0" x1="464" x2="469" y1="383" y2="458" /><line stroke="rgb(206,0,0)" stroke-width="2" x1="469" x2="264" y1="458" y2="331" /><line stroke="rgb(255,0,0)" stroke-width="0" x1="264" x2="59" y1="331" y2="186" /><line stroke="rgb(255,0,0)" stroke-width="0" x1="59" x2="319" y1="186" y2="365" /><line stroke="rgb(254,0,0)" stroke-width="1" x1="319" x2="474" y1="365" y2="256" /><line stroke="rgb(206,0,0)" stroke-width="2" x1="474" x2="282" y1="256" y2="156" /><line stroke="rgb(254,0,0)" stroke-width="1" x1="282" x2="151" y1="156" y2="241" /><line stroke="rgb(206,0,0)" stroke-width="2" x1="151" x2="237" y1="241" y2="18" /><line stroke="rgb(254,0,0)" stroke-width="1" x1="237" x2="353" y1="18" y2="408" /><line stroke="rgb(255,0,0)" stroke-width="0" x1="353" x2="3" y1="408" y2="166" /><line stroke="rgb(206,0,0)" stroke-width="2" x1="3" x2="14" y1="166" y2="150" /><line stroke="rgb(254,0,0)" stroke-width="1" x1="14" x2="36" y1="150" y2="196" /><line stroke="rgb(254,0,0)" stroke-width="1" x1="36" x2="467" y1="196" y2="167" /><line stroke="rgb(255,0,0)" stroke-width="0" x1="467" x2="53" y1="167" y2="14" /><line stroke="rgb(254,0,0)" stroke-width="1" x1="53" x2="59" y1="14" y2="130" /><line stroke="rgb(255,0,0)" stroke-width="0" x1="59" x2="372" y1="130" y2="292" /><line stroke="rgb(206,0,0)" stroke-width="2" x1="372" x2="76" y1="292" y2="496" /><line stroke="rgb(255,0,0)" stroke-width="0" x1="76" x2="58" y1="496" y2="418" /><line stroke="rgb(255,0,0)" stroke-width="0" x1="58" x2="201" y1="418" y2="121" /><line stroke="rgb(254,0,0)" stroke-width="1" x1="201" x2="274" y1="121" y2="399" /><line stroke="rgb(206,0,0)" stroke-width="2" x1="274" x2="472" y1="399" y2="177" /><line stroke="rgb(255,0,0)" stroke-width="0" x1="472" x2="37" y1="177" y2="20" /><line stroke="rgb(206,0,0)" stroke-width="2" x1="37" x2="366" y1="20" y2="222" /><line stroke="rgb(254,0,0)" stroke-width="1" x1="366" x2="60" y1="222" y2="69" /><line stroke="rgb(254,0,0)" stroke-width="1" x1="60" x2="424" y1="69" y2="373" /><line stroke="rgb(254,0,0)" stroke-width="1" x1="424" x2="269" y1="373" y2="203" /><line stroke="rgb(206,0,0)" stroke-width="2" x1="269" x2="316" y1="203" y2="276" /><line stroke="rgb(206,0,0)" stroke-width="2" x1="316" x2="106" y1="276" y2="137" /><line stroke="rgb(254,0,0)" stroke-width="1" x1="106" x2="238" y1="137" y2="460" /><line stroke="rgb(255,0,0)" stroke-width="0" x1="238" x2="152" y1="460" y2="7" /><line stroke="rgb(255,0,0)" stroke-width="0" x1="152" x2="352" y1="7" y2="207" /><line stroke="rgb(254,0,0)" stroke-width="1" x1="352" x2="50" y1="207" y2="59" /><line stroke="rgb(206,0,0)" stroke-width="2" x1="50" x2="219" y1="59" y2="392" /><line stroke="rgb(255,0,0)" stroke-width="0" x1="219" x2="155" y1="392" y2="325" /><line stroke="rgb(206,0,0)" stroke-width="2" x1="155" x2="184" y1="325" y2="93" /><line stroke="rgb(206,0,0)" stroke-width="2" x1="184" x2="2" y1="93" y2="113" /><line stroke="rgb(206,0,0)" stroke-width="2" x1="2" x2="329" y1="113" y2="241" /><line stroke="rgb(206,0,0)" stroke-width="2" x1="329" x2="253" y1="241" y2="435" /><line stroke="rgb(255,0,0)" stroke-width="0" x1="253" x2="294" y1="435" y2="6" /><line stroke="rgb(255,0,0)" stroke-width="0" x1="294" x2="321" y1="6" y2="38" /><line stroke="rgb(255,0,0)" stroke-width="0" x1="321" x2="76" y1="38" y2="59" /><line stroke="rgb(206,0,0)" stroke-width="2" x1="76" x2="371" y1="59" y2="347" /><line stroke="rgb(255,0,0)" stroke-width="0" x1="371" x2="311" y1="347" y2="453" /><line stroke="rgb(255,0,0)" stroke-width="0" x1="311" x2="92" y1="453" y2="308" /><line stroke="rgb(255,0,0)" stroke-width="0" x1="92" x2="115" y1="308" y2="61" /><line stroke="rgb(206,0,0)" stroke-width="2" x1="115" x2="340" y1="61" y2="460" /><line stroke="rgb(255,0,0)" stroke-width="0" x1="340" x2="278" y1="460" y2="462" /><line stroke="rgb(254,0,0)" stroke-width="1" x1="278" x2="306" y1="462" y2="72" /><line stroke="rgb(254,0,0)" stroke-width="1" x1="306" x2="125" y1="72" y2="340" /><line stroke="rgb(255,0,0)" stroke-width="0" x1="125" x2="156" y1="340" y2="96" /><line stroke="rgb(206,0,0)" stroke-width="2" x1="156" x2="389" y1="96" y2="264" /><line stroke="rgb(206,0,0)" stroke-width="2" x1="389" x2="445" y1="264" y2="290" /><line stroke="rgb(255,0,0)" stroke-width="0" x1="445" x2="429" y1="290" y2="206" /><line stroke="rgb(254,0,0)" stroke-width="1" x1="429" x2="86" y1="206" y2="450" /><line stroke="rgb(206,0,0)" stroke-width="2" x1="86" x2="257" y1="450" y2="255" /><line stroke="rgb(255,0,0)" stroke-width="0" x1="257" x2="57" y1="255" y2="464" /><line stroke="rgb(206,0,0)" stroke-width="2" x1="57" x2="124" y1="464" y2="344" /><line stroke="rgb(206,0,0)" stroke-width="2" x1="124" x2="383" y1="344" y2="129" /><line stroke="rgb(254,0,0)" stroke-width="1" x1="383" x2="212" y1="129" y2="254" /><line stroke="rgb(255,0,0)" stroke-width="0" x1="212" x2="30" y1="254" y2="332" /><line stroke="rgb(255,0,0)" stroke-width="0" x1="30" x2="340" y1="332" y2="195" /><line stroke="rgb(255,0,0)" stroke-width="0" x1="340" x2="382" y1="195" y2="227" /><line stroke="rgb(254,0,0)" stroke-width="1" x1="382" x2="106" y1="227" y2="351" /><line stroke="rgb(206,0,0)" stroke-width="2" x1="106" x2="397" y1="351" y2="49" /><line stroke="rgb(254,0,0)" stroke-width="1" x1="397" x2="197" y1="49" y2="361" /><line stroke="rgb(254,0,0)" stroke-width="1" x1="197" x2="117" y1="361" y2="86" /><line stroke="rgb(255,0,0)" stroke-width="0" x1="117" x2="398" y1="86" y2="64" /><line stroke="rgb(206,0,0)" stroke-width="2" x1="398" x2="77" y1="64" y2="134" /><line stroke="rgb(254,0,0)" stroke-width="1" x1="77" x2="316" y1="134" y2="254" /><line stroke="rgb(206,0,0)" stroke-width="2" x1="316" x2="221" y1="254" y2="172" /><line stroke="rgb(254,0,0)" stroke-width="1" x1="221" x2="261" y1="172" y2="352" /><line stroke="rgb(255,0,0)" stroke-width="0" x1="261" x2="158" y1="352" y2="186" /><line stroke="rgb(255,0,0)" stroke-width="0" x1="158" x2="334" y1="186" y2="84" /><line stroke="rgb(206,0,0)" stroke-width="2" x1="334" x2="79" y1="84" y2="204" /><line stroke="rgb(255,0,0)" stroke-width="0" x1="79" x2="234" y1="204" y2="457" /><line stroke="rgb(254,0,0)" stroke-width="1" x1="234" x2="61" y1="457" y2="240" /></svg>