<?xml version="1.0" encoding="utf-8" ?>
<svg baseProfile="full" height="100%" version="1.1" width="100%" xmlns="http://www.w3.org/2000/svg" xmlns:ev="http://www.w3.org/2001/xml-events" xmlns:xlink="http://www.w3.org/1999/xlink"><defs /><rect fill="#000" height="500" width="500" x="0" y="0" /><line stroke="rgb(255,0,0)" stroke-width="0" x1="86" x2="341" y1="442" y2="361" /><line stroke="rgb(55,0,0)" stroke-width="2" x1="341" x2="226" y1="361" y2="40" /><line stroke="rgb(55,0,0)" stroke-width="2" x1="226" x2="43" y1="40" y2="175" /><line stroke="rgb(55,0,0)" stroke-width="2" x1="43" x2="481" y1="175" y2="11" /><line stroke="rgb(55,0,0)" stroke-width="2" x1="481" x2="318" y1="11" y2="96" /><line stroke="rgb(230,0,0)" stroke-width="1" x1="318" x2="91" y1="96" y2="376" /><line stroke="rgb(230,0,0)" stroke-width="1" x1="91" x2="47" y1="376" y2="166" /><line stroke="rgb(55,0,0)" stroke-width="2" x1="47" x2="155" y1="166" y2="287" /><line stroke="rgb(55,0,0)" stroke-width="2" x1="155" x2="88" y1="287" y2="394" /><line stroke="rgb(230,0,0)" stroke-width="1" x1="88" x2="84" y1="394" y2="334" /><line stroke="rgb(55,0,0)" stroke-width="2" x1="84" x2="191" y1="334" y2="486" /><line stroke="rgb(255,0,0)" stroke-width="0" x1="191" x2="401" y1="486" y2="336" /><line stroke="rgb(55,0,0)" stroke-width="2" x1="401" x2="73" y1="336" y2="380" /><line stroke="rgb(230,0,0)" stroke-width="1" x1="73" x2="201" y1="380" y2="497" /><line stroke="rgb(230,0,0)" stroke-width="1" x1="201" x2="199" y1="497" y2="286" /><line stroke="rgb(230,0,0)" stroke-width="1" x1="199" x2="487" y1="286" y2="208" /><line stroke="rgb(255,0,0)" stroke-width="0" x1="487" x2="485" y1="208" y2="155" /><line stroke="rgb(255,0,0)" stroke-width="0" x1="485" x2="87" y1="155" y2="280" /><line stroke="rgb(230,0,0)" stroke-width="1" x1="87" x2="328" y1="280" y2="305" /><line stroke="rgb(230,0,0)" stroke-width="1" x1="328" x2="113" y1="305" y2="340" /><line stroke="rgb(55,0,0)" stroke-width="2" x1="113" x2="307" y1="340" y2="255" /><line stroke="rgb(255,0,0)" stroke-width="0" x1="307" x2="395" y1="255" y2="230" /><line stroke="rgb(255,0,0)" stroke-width="0" x1="395" x2="261" y1="230" y2="486" /><line stroke="rgb(255,0,0)" stroke-width="0" x1="261" x2="443" y1="486" y2="20" /><line stroke="rgb(255,0,0)" stroke-width="0" x1="443" x2="499" y1="20" y2="122" /><line stroke="rgb(255,0,0)" stroke-width="0" x1="499" x2="15" y1="122" y2="1" /><line stroke="rgb(55,0,0)" stroke-width="2" x1="15" x2="342" y1="1" y2="307" /><line stroke="rgb(230,0,0)" stroke-width="1" x1="342" x2="236" y1="307" y2="13" /><line stroke="rgb(230,0,0)" stroke-width="1" x1="236" x2="242" y1="13" y2="155" /><line stroke="rgb(230,0,0)" stroke-width="1" x1="242" x2="433" y1="155" y2="107" /><line stroke="rgb(230,0,0)" stroke-width="1" x1="433" x2="253" y1="107" y2="246" /><line stroke="rgb(55,0,0)" stroke-width="2" x1="253" x2="206" y1="246" y2="275" /><line stroke="rgb(255,0,0)" stroke-width="0" x1="206" x2="253" y1="275" y2="379" /><line stroke="rgb(55,0,0)" stroke-width="2" x1="253" x2="290" y1="379" y2="233" /><line stroke="rgb(230,0,0)" stroke-width="1" x1="290" x2="24" y1="233" y2="225" /><line stroke="rgb(255,0,0)" stroke-width="0" x1="24" x2="156" y1="225" y2="476" /><line stroke="rgb(230,0,0)" stroke-width="1" x1="156" x2="336" y1="476" y2="405" /><line stroke="rgb(255,0,0)" stroke-width="0" x1="336" x2="456" y1="405" y2="375" /><line stroke="rgb(255,0,0)" stroke-width="0" x1="456" x2="380" y1="375" y2="439" /><line stroke="rgb(255,0,0)" stroke-width="0" x1="380" x2="291" y1="439" y2="128" /><line stroke="rgb(230,0,0)" stroke-width="1" x1="291" x2="456" y1="128" y2="112" /><line stroke="rgb(55,0,0)" stroke-width="2" x1="456" x2="14" y1="112" y2="346" /><line stroke="rgb(255,0,0)" stroke-width="0" x1="14" x2="234" y1="346" y2="464" /><line stroke="rgb(255,0,0)" stroke-width="0" x1="234" x2="132" y1="464" y2="410" /><line stroke="rgb(255,0,0)" stroke-width="0" x1="132" x2="70" y1="410" y2="203" /><line stroke="rgb(255,0,0)" stroke-width="0" x1="70" x2="213" y1="203" y2="230" /><line stroke="rgb(55,0,0)" stroke-width="2" x1="213" x2="303" y1="230" y2="188" /><line stroke="rgb(230,0,0)" stroke-width="1" x1="303" x2="12" y1="188" y2="182" /><line stroke="rgb(55,0,0)" stroke-width="2" x1="12" x2="440" y1="182" y2="97" /><line stroke="rgb(255,0,0)" stroke-width="0" x1="440" x2="419" y1="97" y2="302" /><line stroke="rgb(230,0,0)" stroke-width="1" x1="419" x2="262" y1="302" y2="104" /><line stroke="rgb(55,0,0)" stroke-width="2" x1="262" x2="465" y1="104" y2="324" /><line stroke="rgb(55,0,0)" stroke-width="2" x1="465" x2="67" y1="324" y2="51" /><line stroke="rgb(55,0,0)" stroke-width="2" x1="67" x2="494" y1="51" y2="202" /><line stroke="rgb(255,0,0)" stroke-width="0" x1="494" x2="380" y1="202" y2="443" /><line stroke="rgb(230,0,0)" stroke-width="1" x1="380" x2="114" y1="443" y2="263" /><line stroke="rgb(255,0,0)" stroke-width="0" x1="114" x2="196" y1="263" y2="16" /><line stroke="rgb(255,0,0)" stroke-width="0" x1="196" x2="433" y1="16" y2="424" /><line stroke="rgb(255,0,0)" stroke-width="0" x1="433" x2="138" y1="424" y2="449" /><line stroke="rgb(230,0,0)" stroke-width="1" x1="138" x2="313" y1="449" y2="54" /><line stroke="rgb(230,0,0)" stroke-width="1" x1="313" x2="332" y1="54" y2="291" /><line stroke="rgb(230,0,0)" stroke-width="1" x1="332" x2="112" y1="291" y2="442" /><line stroke="rgb(230,0,0)" stroke-width="1" x1="112" x2="419" y1="442" y2="60" /><line stroke="rgb(55,0,0)" stroke-width="2" x1="419" x2="52" y1="60" y2="261" /><line stroke="rgb(230,0,0)" stroke-width="1" x1="52" x2="202" y1="261" y2="435" /><line stroke="rgb(255,0,0)" stroke-width="0" x1="202" x2="385" y1="435" y2="450" /><line stroke="rgb(55,0,0)" stroke-width="2" x1="385" x2="199" y1="450" y2="14" /><line stroke="rgb(55,0,0)" stroke-width="2" x1="199" x2="348" y1="14" y2="430" /><line stroke="rgb(55,0,0)" stroke-width="2" x1="348" x2="297" y1="430" y2="120" /><line stroke="rgb(230,0,0)" stroke-width="1" x1="297" x2="457" y1="120" y2="166" /><line stroke="rgb(55,0,0)" stroke-width="2" x1="457" x2="195" y1="166" y2="335" /><line stroke="rgb(255,0,0)" stroke-width="0" x1="195" x2="159" y1="335" y2="124" /><line stroke="rgb(255,0,0)" stroke-width="0" x1="159" x2="249" y1="124" y2="3" /><line stroke="rgb(55,0,0)" stroke-width="2" x1="249" x2="369" y1="3" y2="158" /><line stroke="rgb(230,0,0)" stroke-width="1" x1="369" x2="431" y1="158" y2="59" /><line stroke="rgb(230,0,0)" stroke-width="1" x1="431" x2="401" y1="59" y2="344" /><line stroke="rgb(255,0,0)" stroke-width="0" x1="401" x2="191" y1="344" y2="64" /><line stroke="rgb(55,0,0)" stroke-width="2" x1="191" x2="244" y1="64" y2="404" /><line stroke="rgb(230,0,0)" stroke-width="1" x1="244" x2="88" y1="404" y2="187" /><line stroke="rgb(55,0,0)" stroke-width="2" x1="88" x2="125" y1="187" y2="3" /><line stroke="rgb(255,0,0)" stroke-width="0" x1="125" x2="418" y1="3" y2="269" /><line stroke="rgb(55,0,0)" stroke-width="2" x1="418" x2="482" y1="269" y2="464" /><line stroke="rgb(55,0,0)" stroke-width="2" x1="482" x2="4" y1="464" y2="332" /><line stroke="rgb(55,0,0)" stroke-width="2" x1="4" x2="187" y1="332" y2="476" /><line stroke="rgb(255,0,0)" stroke-width="0" x1="187" x2="176" y1="476" y2="184" /><line stroke="rgb(55,0,0)" stroke-width="2" x1="176" x2="138" y1="184" y2="264" /><line stroke="rgb(255,0,0)" stroke-width="0" x1="138" x2="284" y1="264" y2="299" /><line stroke="rgb(230,0,0)" stroke-width="1" x1="284" x2="268" y1="299" y2="192" /><line stroke="rgb(230,0,0)" stroke-width="1" x1="268" x2="492" y1="192" y2="323" /><line stroke="rgb(230,0,0)" stroke-width="1" x1="492" x2="233" y1="323" y2="53" /><line stroke="rgb(55,0,0)" stroke-width="2" x1="233" x2="388" y1="53" y2="381" /><line stroke="rgb(230,0,0)" stroke-width="1" x1="388" x2="19" y1="381" y2="122" /><line stroke="rgb(55,0,0)" stroke-width="2" x1="19" x2="279" y1="122" y2="255" /><line stroke="rgb(230,0,0)" stroke-width="1" x1="279" x2="287" y1="255" y2="346" /><line stroke="rgb(55,0,0)" stroke-width="2" x1="287" x2="372" y1="346" y2="102" /><line stroke="rgb(230,0,0)" stroke-width="1" x1="372" x2="384" y1="102" y2="177" /><line stroke="rgb(255,0,0)" stroke-width="0" x1="384" x2="455" y1="177" y2="388" /><line stroke="rgb(230,0,0)" stroke-width="1" x1="455" x2="328" y1="388" y2="346" /><line stroke="rgb(255,0,0)" stroke-width="0" x1="328" x2="104" y1="346" y2="367" /><line stroke="rgb(255,0,0)" stroke-width="0" x1="104" x2="139" y1="367" y2="462" /></svg>