<?xml version="1.0" encoding="utf-8" ?>
<svg baseProfile="full" height="100%" version="1.1" width="100%" xmlns="http://www.w3.org/2000/svg" xmlns:ev="http://www.w3.org/2001/xml-events" xmlns:xlink="http://www.w3.org/1999/xlink"><defs /><rect fill="#000" height="500" width="500" x="0" y="0" /><line stroke="rgb(175,0,0)" stroke-width="2" x1="293" x2="31" y1="385" y2="64" /><line stroke="rgb(255,0,0)" stroke-width="0" x1="31" x2="46" y1="64" y2="445" /><line stroke="rgb(175,0,0)" stroke-width="2" x1="46" x2="303" y1="445" y2="240" /><line stroke="rgb(180,0,0)" stroke-width="1" x1="303" x2="336" y1="240" y2="139" /><line stroke="rgb(180,0,0)" stroke-width="1" x1="336" x2="377" y1="139" y2="164" /><line stroke="rgb(180,0,0)" stroke-width="1" x1="377" x2="271" y1="164" y2="261" /><line stroke="rgb(180,0,0)" stroke-width="1" x1="271" x2="126" y1="261" y2="295" /><line stroke="rgb(180,0,0)" stroke-width="1" x1="126" x2="11" y1="295" y2="487" /><line stroke="rgb(180,0,0)" stroke-width="1" x1="11" x2="173" y1="487" y2="10" /><line stroke="rgb(255,0,0)" stroke-width="0" x1="173" x2="334" y1="10" y2="111" /><line stroke="rgb(180,0,0)" stroke-width="1" x1="334" x2="161" y1="111" y2="246" /><line stroke="rgb(175,0,0)" stroke-width="2" x1="161" x2="1" y1="246" y2="350" /><line stroke="rgb(255,0,0)" stroke-width="0" x1="1" x2="355" y1="350" y2="330" /><line stroke="rgb(255,0,0)" stroke-width="0" x1="355" x2="402" y1="330" y2="192" /><line stroke="rgb(180,0,0)" stroke-width="1" x1="402" x2="249" y1="192" y2="240" /><line stroke="rgb(175,0,0)" stroke-width="2" x1="249" x2="211" y1="240" y2="84" /><line stroke="rgb(175,0,0)" stroke-width="2" x1="211" x2="430" y1="84" y2="162" /><line stroke="rgb(255,0,0)" stroke-width="0" x1="430" x2="195" y1="162" y2="309" /><line stroke="rgb(175,0,0)" stroke-width="2" x1="195" x2="351" y1="309" y2="209" /><line stroke="rgb(180,0,0)" stroke-width="1" x1="351" x2="210" y1="209" y2="209" /><line stroke="rgb(255,0,0)" stroke-width="0" x1="210" x2="247" y1="209" y2="496" /><line stroke="rgb(180,0,0)" stroke-width="1" x1="247" x2="21" y1="496" y2="62" /><line stroke="rgb(175,0,0)" stroke-width="2" x1="21" x2="477" y1="62" y2="465" /><line stroke="rgb(180,0,0)" stroke-width="1" x1="477" x2="8" y1="465" y2="21" /><line stroke="rgb(180,0,0)" stroke-width="1" x1="8" x2="399" y1="21" y2="87" /><line stroke="rgb(175,0,0)" stroke-width="2" x1="399" x2="447" y1="87" y2="391" /><line stroke="rgb(180,0,0)" stroke-width="1" x1="447" x2="8" y1="391" y2="308" /><line stroke="rgb(255,0,0)" stroke-width="0" x1="8" x2="474" y1="308" y2="134" /><line stroke="rgb(175,0,0)" stroke-width="2" x1="474" x2="401" y1="134" y2="128" /><line stroke="rgb(180,0,0)" stroke-width="1" x1="401" x2="87" y1="128" y2="41" /><line stroke="rgb(175,0,0)" stroke-width="2" x1="87" x2="203" y1="41" y2="208" /><line stroke="rgb(255,0,0)" stroke-width="0" x1="203" x2="419" y1="208" y2="437" /><line stroke="rgb(255,0,0)" stroke-width="0" x1="419" x2="500" y1="437" y2="483" /><line stroke="rgb(180,0,0)" stroke-width="1" x1="500" x2="373" y1="483" y2="241" /><line stroke="rgb(180,0,0)" stroke-width="1" x1="373" x2="111" y1="241" y2="379" /><line stroke="rgb(175,0,0)" stroke-width="2" x1="111" x2="433" y1="379" y2="414" /><line stroke="rgb(255,0,0)" stroke-width="0" x1="433" x2="139" y1="414" y2="200" /><line stroke="rgb(175,0,0)" stroke-width="2" x1="139" x2="275" y1="200" y2="308" /><line stroke="rgb(175,0,0)" stroke-width="2" x1="275" x2="97" y1="308" y2="363" /><line stroke="rgb(180,0,0)" stroke-width="1" x1="97" x2="161" y1="363" y2="441" /><line stroke="rgb(180,0,0)" stroke-width="1" x1="161" x2="16" y1="441" y2="419" /><line stroke="rgb(180,0,0)" stroke-width="1" x1="16" x2="418" y1="419" y2="281" /><line stroke="rgb(255,0,0)" stroke-width="0" x1="418" x2="372" y1="281" y2="290" /><line stroke="rgb(175,0,0)" stroke-width="2" x1="372" x2="486" y1="290" y2="396" /><line stroke="rgb(175,0,0)" stroke-width="2" x1="486" x2="237" y1="396" y2="198" /><line stroke="rgb(175,0,0)" stroke-width="2" x1="237" x2="17" y1="198" y2="145" /><line stroke="rgb(255,0,0)" stroke-width="0" x1="17" x2="193" y1="145" y2="335" /><line stroke="rgb(255,0,0)" stroke-width="0" x1="193" x2="337" y1="335" y2="214" /><line stroke="rgb(180,0,0)" stroke-width="1" x1="337" x2="143" y1="214" y2="127" /><line stroke="rgb(255,0,0)" stroke-width="0" x1="143" x2="64" y1="127" y2="308" /><line stroke="rgb(175,0,0)" stroke-width="2" x1="64" x2="407" y1="308" y2="481" /><line stroke="rgb(175,0,0)" stroke-width="2" x1="407" x2="156" y1="481" y2="110" /><line stroke="rgb(175,0,0)" stroke-width="2" x1="156" x2="155" y1="110" y2="489" /><line stroke="rgb(255,0,0)" stroke-width="0" x1="155" x2="84" y1="489" y2="68" /><line stroke="rgb(175,0,0)" stroke-width="2" x1="84" x2="229" y1="68" y2="217" /><line stroke="rgb(255,0,0)" stroke-width="0" x1="229" x2="445" y1="217" y2="335" /><line stroke="rgb(180,0,0)" stroke-width="1" x1="445" x2="5" y1="335" y2="433" /><line stroke="rgb(255,0,0)" stroke-width="0" x1="5" x2="88" y1="433" y2="13" /><line stroke="rgb(255,0,0)" stroke-width="0" x1="88" x2="260" y1="13" y2="263" /><line stroke="rgb(255,0,0)" stroke-width="0" x1="260" x2="52" y1="263" y2="354" /><line stroke="rgb(180,0,0)" stroke-width="1" x1="52" x2="233" y1="354" y2="140" /><line stroke="rgb(255,0,0)" stroke-width="0" x1="233" x2="295" y1="140" y2="113" /><line stroke="rgb(180,0,0)" stroke-width="1" x1="295" x2="165" y1="113" y2="15" /><line stroke="rgb(255,0,0)" stroke-width="0" x1="165" x2="460" y1="15" y2="438" /><line stroke="rgb(175,0,0)" stroke-width="2" x1="460" x2="443" y1="438" y2="287" /><line stroke="rgb(175,0,0)" stroke-width="2" x1="443" x2="224" y1="287" y2="398" /><line stroke="rgb(175,0,0)" stroke-width="2" x1="224" x2="143" y1="398" y2="486" /><line stroke="rgb(180,0,0)" stroke-width="1" x1="143" x2="364" y1="486" y2="330" /><line stroke="rgb(175,0,0)" stroke-width="2" x1="364" x2="59" y1="330" y2="11" /><line stroke="rgb(180,0,0)" stroke-width="1" x1="59" x2="466" y1="11" y2="375" /><line stroke="rgb(255,0,0)" stroke-width="0" x1="466" x2="362" y1="375" y2="455" /><line stroke="rgb(255,0,0)" stroke-width="0" x1="362" x2="58" y1="455" y2="160" /><line stroke="rgb(175,0,0)" stroke-width="2" x1="58" x2="243" y1="160" y2="455" /><line stroke="rgb(180,0,0)" stroke-width="1" x1="243" x2="260" y1="455" y2="42" /><line stroke="rgb(175,0,0)" stroke-width="2" x1="260" x2="42" y1="42" y2="19" /><line stroke="rgb(255,0,0)" stroke-width="0" x1="42" x2="302" y1="19" y2="13" /><line stroke="rgb(175,0,0)" stroke-width="2" x1="302" x2="379" y1="13" y2="82" /><line stroke="rgb(175,0,0)" stroke-width="2" x1="379" x2="251" y1="82" y2="210" /><line stroke="rgb(180,0,0)" stroke-width="1" x1="251" x2="22" y1="210" y2="250" /><line stroke="rgb(180,0,0)" stroke-width="1" x1="22" x2="464" y1="250" y2="37" /><line stroke="rgb(255,0,0)" stroke-width="0" x1="464" x2="57" y1="37" y2="67" /><line stroke="rgb(255,0,0)" stroke-width="0" x1="57" x2="364" y1="67" y2="489" /><line stroke="rgb(175,0,0)" stroke-width="2" x1="364" x2="150" y1="489" y2="145" /><line stroke="rgb(175,0,0)" stroke-width="2" x1="150" x2="5" y1="145" y2="118" /><line stroke="rgb(255,0,0)" stroke-width="0" x1="5" x2="122" y1="118" y2="97" /><line stroke="rgb(180,0,0)" stroke-width="1" x1="122" x2="368" y1="97" y2="412" /><line stroke="rgb(175,0,0)" stroke-width="2" x1="368" x2="387" y1="412" y2="91" /><line stroke="rgb(255,0,0)" stroke-width="0" x1="387" x2="166" y1="91" y2="470" /><line stroke="rgb(175,0,0)" stroke-width="2" x1="166" x2="23" y1="470" y2="243" /><line stroke="rgb(255,0,0)" stroke-width="0" x1="23" x2="156" y1="243" y2="317" /><line stroke="rgb(180,0,0)" stroke-width="1" x1="156" x2="285" y1="317" y2="143" /><line stroke="rgb(175,0,0)" stroke-width="2" x1="285" x2="462" y1="143" y2="322" /><line stroke="rgb(175,0,0)" stroke-width="2" x1="462" x2="164" y1="322" y2="273" /><line stroke="rgb(180,0,0)" stroke-width="1" x1="164" x2="165" y1="273" y2="26" /><line stroke="rgb(255,0,0)" stroke-width="0" x1="165" x2="486" y1="26" y2="7" /><line stroke="rgb(255,0,0)" stroke-width="0" x1="486" x2="11" y1="7" y2="333" /><line stroke="rgb(180,0,0)" stroke-width="1" x1="11" x2="333" y1="333" y2="184" /><line stroke="rgb(255,0,0)" stroke-width="0" x1="333" x2="292" y1="184" y2="431" /><line stroke="rgb(255,0,0)" stroke-width="0" x1="292" x2="332" y1="431" y2="151" /><line stroke="rgb(175,0,0)" stroke-width="2" x1="332" x2="7" y1="151" y2="430" /></svg>