<?xml version="1.0" encoding="utf-8" ?>
<svg baseProfile="full" height="100%" version="1.1" width="100%" xmlns="http://www.w3.org/2000/svg" xmlns:ev="http://www.w3.org/2001/xml-events" xmlns:xlink="http://www.w3.org/1999/xlink"><defs /><rect fill="#000" height="500" width="500" x="0" y="0" /><line stroke="rgb(255,0,0)" stroke-width="0" x1="285" x2="135" y1="277" y2="113" /><line stroke="rgb(254,0,0)" stroke-width="1" x1="135" x2="263" y1="113" y2="316" /><line stroke="rgb(255,0,0)" stroke-width="0" x1="263" x2="82" y1="316" y2="21" /><line stroke="rgb(0,0,0)" stroke-width="2" x1="82" x2="88" y1="21" y2="39" /><line stroke="rgb(0,0,0)" stroke-width="2" x1="88" x2="324" y1="39" y2="410" /><line stroke="rgb(254,0,0)" stroke-width="1" x1="324" x2="246" y1="410" y2="167" /><line stroke="rgb(254,0,0)" stroke-width="1" x1="246" x2="191" y1="167" y2="310" /><line stroke="rgb(254,0,0)" stroke-width="1" x1="191" x2="267" y1="310" y2="30" /><line stroke="rgb(254,0,0)" stroke-width="1" x1="267" x2="59" y1="30" y2="13" /><line stroke="rgb(255,0,0)" stroke-width="0" x1="59" x2="362" y1="13" y2="340" /><line stroke="rgb(0,0,0)" stroke-width="2" x1="362" x2="409" y1="340" y2="230" /><line stroke="rgb(0,0,0)" stroke-width="2" x1="409" x2="470" y1="230" y2="146" /><line stroke="rgb(254,0,0)" stroke-width="1" x1="470" x2="164" y1="146" y2="111" /><line stroke="rgb(0,0,0)" stroke-width="2" x1="164" x2="372" y1="111" y2="71" /><line stroke="rgb(254,0,0)" stroke-width="1" x1="372" x2="427" y1="71" y2="301" /><line stroke="rgb(255,0,0)" stroke-width="0" x1="427" x2="85" y1="301" y2="196" /><line stroke="rgb(0,0,0)" stroke-width="2" x1="85" x2="248" y1="196" y2="264" /><line stroke="rgb(254,0,0)" stroke-width="1" x1="248" x2="204" y1="264" y2="418" /><line stroke="rgb(254,0,0)" stroke-width="1" x1="204" x2="324" y1="418" y2="437" /><line stroke="rgb(254,0,0)" stroke-width="1" x1="324" x2="350" y1="437" y2="137" /><line stroke="rgb(255,0,0)" stroke-width="0" x1="350" x2="49" y1="137" y2="89" /><line stroke="rgb(0,0,0)" stroke-width="2" x1="49" x2="8" y1="89" y2="447" /><line stroke="rgb(254,0,0)" stroke-width="1" x1="8" x2="429" y1="447" y2="437" /><line stroke="rgb(0,0,0)" stroke-width="2" x1="429" x2="295" y1="437" y2="476" /><line stroke="rgb(255,0,0)" stroke-width="0" x1="295" x2="373" y1="476" y2="82" /><line stroke="rgb(0,0,0)" stroke-width="2" x1="373" x2="207" y1="82" y2="332" /><line stroke="rgb(255,0,0)" stroke-width="0" x1="207" x2="93" y1="332" y2="417" /><line stroke="rgb(255,0,0)" stroke-width="0" x1="93" x2="75" y1="417" y2="95" /><line stroke="rgb(254,0,0)" stroke-width="1" x1="75" x2="287" y1="95" y2="372" /><line stroke="rgb(0,0,0)" stroke-width="2" x1="287" x2="393" y1="372" y2="235" /><line stroke="rgb(255,0,0)" stroke-width="0" x1="393" x2="94" y1="235" y2="395" /><line stroke="rgb(0,0,0)" stroke-width="2" x1="94" x2="271" y1="395" y2="191" /><line stroke="rgb(254,0,0)" stroke-width="1" x1="271" x2="245" y1="191" y2="81" /><line stroke="rgb(0,0,0)" stroke-width="2" x1="245" x2="353" y1="81" y2="271" /><line stroke="rgb(255,0,0)" stroke-width="0" x1="353" x2="240" y1="271" y2="144" /><line stroke="rgb(0,0,0)" stroke-width="2" x1="240" x2="451" y1="144" y2="494" /><line stroke="rgb(255,0,0)" stroke-width="0" x1="451" x2="183" y1="494" y2="289" /><line stroke="rgb(254,0,0)" stroke-width="1" x1="183" x2="213" y1="289" y2="443" /><line stroke="rgb(0,0,0)" stroke-width="2" x1="213" x2="7" y1="443" y2="78" /><line stroke="rgb(0,0,0)" stroke-width="2" x1="7" x2="497" y1="78" y2="43" /><line stroke="rgb(255,0,0)" stroke-width="0" x1="497" x2="317" y1="43" y2="312" /><line stroke="rgb(254,0,0)" stroke-width="1" x1="317" x2="238" y1="312" y2="38" /><line stroke="rgb(255,0,0)" stroke-width="0" x1="238" x2="357" y1="38" y2="60" /><line stroke="rgb(255,0,0)" stroke-width="0" x1="357" x2="129" y1="60" y2="305" /><line stroke="rgb(0,0,0)" stroke-width="2" x1="129" x2="232" y1="305" y2="393" /><line stroke="rgb(254,0,0)" stroke-width="1" x1="232" x2="190" y1="393" y2="172" /><line stroke="rgb(0,0,0)" stroke-width="2" x1="190" x2="23" y1="172" y2="266" /><line stroke="rgb(254,0,0)" stroke-width="1" x1="23" x2="260" y1="266" y2="240" /><line stroke="rgb(0,0,0)" stroke-width="2" x1="260" x2="425" y1="240" y2="19" /><line stroke="rgb(255,0,0)" stroke-width="0" x1="425" x2="145" y1="19" y2="498" /><line stroke="rgb(254,0,0)" stroke-width="1" x1="145" x2="109" y1="498" y2="103" /><line stroke="rgb(255,0,0)" stroke-width="0" x1="109" x2="410" y1="103" y2="266" /><line stroke="rgb(0,0,0)" stroke-width="2" x1="410" x2="420" y1="266" y2="382" /><line stroke="rgb(255,0,0)" stroke-width="0" x1="420" x2="277" y1="382" y2="425" /><line stroke="rgb(255,0,0)" stroke-width="0" x1="277" x2="241" y1="425" y2="448" /><line stroke="rgb(255,0,0)" stroke-width="0" x1="241" x2="404" y1="448" y2="280" /><line stroke="rgb(254,0,0)" stroke-width="1" x1="404" x2="139" y1="280" y2="254" /><line stroke="rgb(0,0,0)" stroke-width="2" x1="139" x2="177" y1="254" y2="422" /><line stroke="rgb(0,0,0)" stroke-width="2" x1="177" x2="30" y1="422" y2="463" /><line stroke="rgb(255,0,0)" stroke-width="0" x1="30" x2="73" y1="463" y2="103" /><line stroke="rgb(255,0,0)" stroke-width="0" x1="73" x2="149" y1="103" y2="259" /><line stroke="rgb(255,0,0)" stroke-width="0" x1="149" x2="285" y1="259" y2="247" /><line stroke="rgb(255,0,0)" stroke-width="0" x1="285" x2="340" y1="247" y2="456" /><line stroke="rgb(254,0,0)" stroke-width="1" x1="340" x2="165" y1="456" y2="200" /><line stroke="rgb(0,0,0)" stroke-width="2" x1="165" x2="16" y1="200" y2="250" /><line stroke="rgb(255,0,0)" stroke-width="0" x1="16" x2="55" y1="250" y2="128" /><line stroke="rgb(254,0,0)" stroke-width="1" x1="55" x2="223" y1="128" y2="436" /><line stroke="rgb(0,0,0)" stroke-width="2" x1="223" x2="77" y1="436" y2="293" /><line stroke="rgb(255,0,0)" stroke-width="0" x1="77" x2="93" y1="293" y2="94" /><line stroke="rgb(255,0,0)" stroke-width="0" x1="93" x2="194" y1="94" y2="185" /><line stroke="rgb(255,0,0)" stroke-width="0" x1="194" x2="22" y1="185" y2="476" /><line stroke="rgb(0,0,0)" stroke-width="2" x1="22" x2="400" y1="476" y2="273" /><line stroke="rgb(255,0,0)" stroke-width="0" x1="400" x2="174" y1="273" y2="352" /><line stroke="rgb(255,0,0)" stroke-width="0" x1="174" x2="318" y1="352" y2="477" /><line stroke="rgb(255,0,0)" stroke-width="0" x1="318" x2="411" y1="477" y2="175" /><line stroke="rgb(0,0,0)" stroke-width="2" x1="411" x2="187" y1="175" y2="21" /><line stroke="rgb(0,0,0)" stroke-width="2" x1="187" x2="91" y1="21" y2="481" /><line stroke="rgb(254,0,0)" stroke-width="1" x1="91" x2="410" y1="481" y2="125" /><line stroke="rgb(255,0,0)" stroke-width="0" x1="410" x2="497" y1="125" y2="327" /><line stroke="rgb(0,0,0)" stroke-width="2" x1="497" x2="303" y1="327" y2="67" /><line stroke="rgb(255,0,0)" stroke-width="0" x1="303" x2="8" y1="67" y2="123" /><line stroke="rgb(255,0,0)" stroke-width="0" x1="8" x2="476" y1="123" y2="209" /><line stroke="rgb(254,0,0)" stroke-width="1" x1="476" x2="79" y1="209" y2="395" /><line stroke="rgb(255,0,0)" stroke-width="0" x1="79" x2="387" y1="395" y2="201" /><line stroke="rgb(255,0,0)" stroke-width="0" x1="387" x2="231" y1="201" y2="366" /><line stroke="rgb(255,0,0)" stroke-width="0" x1="231" x2="169" y1="366" y2="368" /><line stroke="rgb(0,0,0)" stroke-width="2" x1="169" x2="376" y1="368" y2="464" /><line stroke="rgb(255,0,0)" stroke-width="0" x1="376" x2="420" y1="464" y2="462" /><line stroke="rgb(254,0,0)" stroke-width="1" x1="420" x2="136" y1="462" y2="103" /><line stroke="rgb(255,0,0)" stroke-width="0" x1="136" x2="452" y1="103" y2="19" /><line stroke="rgb(254,0,0)" stroke-width="1" x1="452" x2="278" y1="19" y2="399" /><line stroke="rgb(254,0,0)" stroke-width="1" x1="278" x2="366" y1="399" y2="327" /><line stroke="rgb(254,0,0)" stroke-width="1" x1="366" x2="0" y1="327" y2="401" /><line stroke="rgb(255,0,0)" stroke-width="0" x1="0" x2="98" y1="401" y2="238" /><line stroke="rgb(255,0,0)" stroke-width="0" x1="98" x2="291" y1="238" y2="83" /><line stroke="rgb(255,0,0)" stroke-width="0" x1="291" x2="137" y1="83" y2="199" /><line stroke="rgb(0,0,0)" stroke-width="2" x1="137" x2="217" y1="199" y2="202" /><line stroke="rgb(0,0,0)" stroke-width="2" x1="217" x2="280" y1="202" y2="189" /><line stroke="rgb(254,0,0)" stroke-width="1" x1="280" x2="324" y1="189" y2="418" /><line stroke="rgb(254,0,0)" stroke-width="1" x1="324" x2="17" y1="418" y2="137" /></svg>