<?xml version="1.0" encoding="utf-8" ?>
<svg baseProfile="full" height="100%" version="1.1" width="100%" xmlns="http://www.w3.org/2000/svg" xmlns:ev="http://www.w3.org/2001/xml-events" xmlns:xlink="http://www.w3.org/1999/xlink"><defs /><rect fill="#000" height="500" width="500" x="0" y="0" /><line stroke="rgb(100%,0%,0%)" stroke-width="1" x1="355" x2="388" y1="149" y2="69" /><line stroke="rgb(100%,0%,0%)" stroke-width="1" x1="388" x2="395" y1="69" y2="132" /><line stroke="rgb(100%,0%,0%)" stroke-width="2" x1="395" x2="203" y1="132" y2="138" /><line stroke="rgb(100%,0%,0%)" stroke-width="0" x1="203" x2="171" y1="138" y2="209" /><line stroke="rgb(100%,0%,0%)" stroke-width="2" x1="171" x2="257" y1="209" y2="189" /><line stroke="rgb(100%,0%,0%)" stroke-width="2" x1="257" x2="49" y1="189" y2="419" /><line stroke="rgb(100%,0%,0%)" stroke-width="0" x1="49" x2="423" y1="419" y2="358" /><line stroke="rgb(100%,0%,0%)" stroke-width="1" x1="423" x2="114" y1="358" y2="355" /><line stroke="rgb(100%,0%,0%)" stroke-width="2" x1="114" x2="207" y1="355" y2="256" /><line stroke="rgb(100%,0%,0%)" stroke-width="0" x1="207" x2="112" y1="256" y2="291" /><line stroke="rgb(100%,0%,0%)" stroke-width="2" x1="112" x2="405" y1="291" y2="304" /><line stroke="rgb(100%,0%,0%)" stroke-width="2" x1="405" x2="176" y1="304" y2="224" /><line stroke="rgb(95%,0%,0%)" stroke-width="1" x1="176" x2="41" y1="224" y2="474" /><line stroke="rgb(75%,0%,0%)" stroke-width="2" x1="41" x2="129" y1="474" y2="361" /><line stroke="rgb(75%,0%,0%)" stroke-width="0" x1="129" x2="49" y1="361" y2="274" /><line stroke="rgb(75%,0%,0%)" stroke-width="0" x1="49" x2="64" y1="274" y2="17" /><line stroke="rgb(75%,0%,0%)" stroke-width="0" x1="64" x2="13" y1="17" y2="68" /><line stroke="rgb(55%,0%,0%)" stroke-width="2" x1="13" x2="269" y1="68" y2="62" /><line stroke="rgb(55%,0%,0%)" stroke-width="0" x1="269" x2="286" y1="62" y2="401" /><line stroke="rgb(55%,0%,0%)" stroke-width="0" x1="286" x2="295" y1="401" y2="20" /><line stroke="rgb(55%,0%,0%)" stroke-width="0" x1="295" x2="49" y1="20" y2="300" /><line stroke="rgb(55%,0%,0%)" stroke-width="0" x1="49" x2="80" y1="300" y2="341" /><line stroke="rgb(45%,0%,0%)" stroke-width="1" x1="80" x2="438" y1="341" y2="489" /><line stroke="rgb(45%,0%,0%)" stroke-width="0" x1="438" x2="489" y1="489" y2="20" /><line stroke="rgb(35%,0%,0%)" stroke-width="1" x1="489" x2="400" y1="20" y2="122" /><line stroke="rgb(35%,0%,0%)" stroke-width="0" x1="400" x2="119" y1="122" y2="193" /><line stroke="rgb(35%,0%,0%)" stroke-width="0" x1="119" x2="393" y1="193" y2="490" /><line stroke="rgb(15%,0%,0%)" stroke-width="2" x1="393" x2="314" y1="490" y2="486" /><line stroke="rgb(0%,0%,0%)" stroke-width="2" x1="314" x2="139" y1="486" y2="306" /><line stroke="rgb(0%,0%,0%)" stroke-width="2" x1="139" x2="487" y1="306" y2="187" /><line stroke="rgb(0%,0%,0%)" stroke-width="0" x1="487" x2="284" y1="187" y2="66" /><line stroke="rgb(0%,0%,0%)" stroke-width="1" x1="284" x2="375" y1="66" y2="343" /><line stroke="rgb(0%,0%,0%)" stroke-width="0" x1="375" x2="116" y1="343" y2="7" /><line stroke="rgb(0%,0%,0%)" stroke-width="1" x1="116" x2="230" y1="7" y2="186" /><line stroke="rgb(0%,0%,0%)" stroke-width="0" x1="230" x2="210" y1="186" y2="169" /><line stroke="rgb(0%,0%,0%)" stroke-width="2" x1="210" x2="149" y1="169" y2="245" /><line stroke="rgb(0%,0%,0%)" stroke-width="0" x1="149" x2="95" y1="245" y2="445" /><line stroke="rgb(0%,0%,0%)" stroke-width="1" x1="95" x2="135" y1="445" y2="267" /><line stroke="rgb(0%,0%,0%)" stroke-width="0" x1="135" x2="272" y1="267" y2="153" /><line stroke="rgb(0%,0%,0%)" stroke-width="2" x1="272" x2="166" y1="153" y2="115" /><line stroke="rgb(0%,0%,0%)" stroke-width="2" x1="166" x2="287" y1="115" y2="321" /><line stroke="rgb(0%,0%,0%)" stroke-width="2" x1="287" x2="249" y1="321" y2="424" /><line stroke="rgb(0%,0%,0%)" stroke-width="1" x1="249" x2="119" y1="424" y2="34" /><line stroke="rgb(0%,0%,0%)" stroke-width="2" x1="119" x2="100" y1="34" y2="233" /><line stroke="rgb(0%,0%,0%)" stroke-width="0" x1="100" x2="320" y1="233" y2="6" /><line stroke="rgb(0%,0%,0%)" stroke-width="2" x1="320" x2="347" y1="6" y2="326" /><line stroke="rgb(0%,0%,0%)" stroke-width="0" x1="347" x2="440" y1="326" y2="39" /><line stroke="rgb(0%,0%,0%)" stroke-width="0" x1="440" x2="319" y1="39" y2="363" /><line stroke="rgb(0%,0%,0%)" stroke-width="2" x1="319" x2="75" y1="363" y2="421" /><line stroke="rgb(0%,0%,0%)" stroke-width="0" x1="75" x2="377" y1="421" y2="66" /><line stroke="rgb(0%,0%,0%)" stroke-width="2" x1="377" x2="340" y1="66" y2="359" /><line stroke="rgb(0%,0%,0%)" stroke-width="0" x1="340" x2="336" y1="359" y2="221" /><line stroke="rgb(0%,0%,0%)" stroke-width="0" x1="336" x2="108" y1="221" y2="478" /><line stroke="rgb(0%,0%,0%)" stroke-width="1" x1="108" x2="11" y1="478" y2="103" /><line stroke="rgb(0%,0%,0%)" stroke-width="0" x1="11" x2="311" y1="103" y2="397" /><line stroke="rgb(0%,0%,0%)" stroke-width="2" x1="311" x2="114" y1="397" y2="95" /><line stroke="rgb(0%,0%,0%)" stroke-width="2" x1="114" x2="463" y1="95" y2="224" /><line stroke="rgb(0%,0%,0%)" stroke-width="2" x1="463" x2="66" y1="224" y2="266" /><line stroke="rgb(0%,0%,0%)" stroke-width="0" x1="66" x2="480" y1="266" y2="0" /><line stroke="rgb(0%,0%,0%)" stroke-width="1" x1="480" x2="119" y1="0" y2="20" /><line stroke="rgb(0%,0%,0%)" stroke-width="2" x1="119" x2="118" y1="20" y2="392" /><line stroke="rgb(0%,0%,0%)" stroke-width="0" x1="118" x2="78" y1="392" y2="328" /><line stroke="rgb(0%,0%,0%)" stroke-width="1" x1="78" x2="307" y1="328" y2="450" /><line stroke="rgb(0%,0%,0%)" stroke-width="0" x1="307" x2="165" y1="450" y2="303" /><line stroke="rgb(0%,0%,0%)" stroke-width="1" x1="165" x2="480" y1="303" y2="218" /><line stroke="rgb(0%,0%,0%)" stroke-width="2" x1="480" x2="21" y1="218" y2="80" /><line stroke="rgb(0%,0%,0%)" stroke-width="0" x1="21" x2="242" y1="80" y2="244" /><line stroke="rgb(0%,0%,0%)" stroke-width="2" x1="242" x2="179" y1="244" y2="408" /><line stroke="rgb(0%,0%,0%)" stroke-width="1" x1="179" x2="416" y1="408" y2="106" /><line stroke="rgb(0%,0%,0%)" stroke-width="2" x1="416" x2="177" y1="106" y2="31" /><line stroke="rgb(0%,0%,0%)" stroke-width="1" x1="177" x2="99" y1="31" y2="23" /><line stroke="rgb(0%,0%,0%)" stroke-width="0" x1="99" x2="429" y1="23" y2="307" /><line stroke="rgb(0%,0%,0%)" stroke-width="1" x1="429" x2="280" y1="307" y2="168" /><line stroke="rgb(0%,0%,0%)" stroke-width="2" x1="280" x2="350" y1="168" y2="33" /><line stroke="rgb(0%,0%,0%)" stroke-width="2" x1="350" x2="129" y1="33" y2="394" /><line stroke="rgb(0%,0%,0%)" stroke-width="2" x1="129" x2="11" y1="394" y2="473" /><line stroke="rgb(0%,0%,0%)" stroke-width="2" x1="11" x2="244" y1="473" y2="153" /><line stroke="rgb(0%,0%,0%)" stroke-width="0" x1="244" x2="240" y1="153" y2="57" /><line stroke="rgb(0%,0%,0%)" stroke-width="2" x1="240" x2="322" y1="57" y2="214" /><line stroke="rgb(0%,0%,0%)" stroke-width="0" x1="322" x2="253" y1="214" y2="299" /><line stroke="rgb(0%,0%,0%)" stroke-width="1" x1="253" x2="189" y1="299" y2="257" /><line stroke="rgb(0%,0%,0%)" stroke-width="1" x1="189" x2="97" y1="257" y2="460" /><line stroke="rgb(0%,0%,0%)" stroke-width="0" x1="97" x2="387" y1="460" y2="361" /><line stroke="rgb(0%,0%,0%)" stroke-width="0" x1="387" x2="258" y1="361" y2="452" /><line stroke="rgb(0%,0%,0%)" stroke-width="0" x1="258" x2="403" y1="452" y2="402" /><line stroke="rgb(0%,0%,0%)" stroke-width="0" x1="403" x2="125" y1="402" y2="455" /><line stroke="rgb(0%,0%,0%)" stroke-width="1" x1="125" x2="285" y1="455" y2="197" /><line stroke="rgb(0%,0%,0%)" stroke-width="2" x1="285" x2="62" y1="197" y2="164" /><line stroke="rgb(0%,0%,0%)" stroke-width="1" x1="62" x2="301" y1="164" y2="52" /><line stroke="rgb(0%,0%,0%)" stroke-width="2" x1="301" x2="84" y1="52" y2="123" /><line stroke="rgb(0%,0%,0%)" stroke-width="1" x1="84" x2="31" y1="123" y2="480" /><line stroke="rgb(0%,0%,0%)" stroke-width="2" x1="31" x2="390" y1="480" y2="237" /><line stroke="rgb(0%,0%,0%)" stroke-width="1" x1="390" x2="115" y1="237" y2="487" /><line stroke="rgb(0%,0%,0%)" stroke-width="0" x1="115" x2="444" y1="487" y2="368" /><line stroke="rgb(0%,0%,0%)" stroke-width="2" x1="444" x2="172" y1="368" y2="35" /><line stroke="rgb(0%,0%,0%)" stroke-width="1" x1="172" x2="346" y1="35" y2="67" /><line stroke="rgb(0%,0%,0%)" stroke-width="0" x1="346" x2="329" y1="67" y2="103" /><line stroke="rgb(0%,0%,0%)" stroke-width="1" x1="329" x2="25" y1="103" y2="326" /><line stroke="rgb(0%,0%,0%)" stroke-width="1" x1="25" x2="93" y1="326" y2="134" /><line stroke="rgb(0%,0%,0%)" stroke-width="2" x1="93" x2="337" y1="134" y2="377" /></svg>