<?xml version="1.0" encoding="utf-8" ?>
<svg baseProfile="full" height="100%" version="1.1" width="100%" xmlns="http://www.w3.org/2000/svg" xmlns:ev="http://www.w3.org/2001/xml-events" xmlns:xlink="http://www.w3.org/1999/xlink"><defs /><rect fill="#000" height="500" width="500" x="0" y="0" /><line stroke="rgb(255,0,0)" stroke-width="1" x1="123" x2="259" y1="165" y2="172" /><line stroke="rgb(255,0,0)" stroke-width="1" x1="123" x2="153" y1="165" y2="354" /><line stroke="rgb(255,0,0)" stroke-width="1" x1="153" x2="223" y1="354" y2="121" /><line stroke="rgb(255,0,0)" stroke-width="1" x1="223" x2="227" y1="121" y2="163" /><line stroke="rgb(255,0,0)" stroke-width="1" x1="227" x2="492" y1="163" y2="246" /><line stroke="rgb(255,0,0)" stroke-width="1" x1="492" x2="476" y1="246" y2="56" /><line stroke="rgb(255,0,0)" stroke-width="1" x1="476" x2="425" y1="56" y2="360" /><line stroke="rgb(255,0,0)" stroke-width="1" x1="425" x2="349" y1="360" y2="448" /><line stroke="rgb(255,0,0)" stroke-width="1" x1="349" x2="307" y1="448" y2="271" /><line stroke="rgb(255,0,0)" stroke-width="1" x1="307" x2="124" y1="271" y2="7" /><line stroke="rgb(255,0,0)" stroke-width="1" x1="124" x2="153" y1="7" y2="35" /><line stroke="rgb(255,0,0)" stroke-width="1" x1="153" x2="158" y1="35" y2="58" /><line stroke="rgb(255,0,0)" stroke-width="1" x1="158" x2="21" y1="58" y2="474" /><line stroke="rgb(255,0,0)" stroke-width="1" x1="21" x2="209" y1="474" y2="119" /><line stroke="rgb(255,0,0)" stroke-width="1" x1="209" x2="160" y1="119" y2="15" /><line stroke="rgb(255,0,0)" stroke-width="1" x1="160" x2="378" y1="15" y2="495" /><line stroke="rgb(255,0,0)" stroke-width="1" x1="378" x2="414" y1="495" y2="169" /><line stroke="rgb(255,0,0)" stroke-width="1" x1="414" x2="481" y1="169" y2="251" /><line stroke="rgb(255,0,0)" stroke-width="1" x1="481" x2="214" y1="251" y2="155" /><line stroke="rgb(255,0,0)" stroke-width="1" x1="214" x2="409" y1="155" y2="420" /><line stroke="rgb(255,0,0)" stroke-width="1" x1="409" x2="398" y1="420" y2="231" /><line stroke="rgb(255,0,0)" stroke-width="1" x1="398" x2="482" y1="231" y2="14" /><line stroke="rgb(255,0,0)" stroke-width="1" x1="482" x2="136" y1="14" y2="279" /><line stroke="rgb(255,0,0)" stroke-width="1" x1="136" x2="74" y1="279" y2="319" /><line stroke="rgb(255,0,0)" stroke-width="1" x1="74" x2="411" y1="319" y2="174" /><line stroke="rgb(255,0,0)" stroke-width="1" x1="411" x2="404" y1="174" y2="446" /><line stroke="rgb(255,0,0)" stroke-width="1" x1="404" x2="259" y1="446" y2="14" /><line stroke="rgb(255,0,0)" stroke-width="1" x1="259" x2="426" y1="14" y2="335" /><line stroke="rgb(255,0,0)" stroke-width="1" x1="426" x2="55" y1="335" y2="228" /><line stroke="rgb(255,0,0)" stroke-width="1" x1="55" x2="201" y1="228" y2="373" /><line stroke="rgb(255,0,0)" stroke-width="1" x1="201" x2="304" y1="373" y2="65" /><line stroke="rgb(255,0,0)" stroke-width="1" x1="304" x2="354" y1="65" y2="494" /><line stroke="rgb(255,0,0)" stroke-width="1" x1="354" x2="437" y1="494" y2="14" /><line stroke="rgb(255,0,0)" stroke-width="1" x1="437" x2="492" y1="14" y2="250" /><line stroke="rgb(255,0,0)" stroke-width="1" x1="492" x2="22" y1="250" y2="319" /><line stroke="rgb(255,0,0)" stroke-width="1" x1="22" x2="42" y1="319" y2="499" /><line stroke="rgb(255,0,0)" stroke-width="1" x1="42" x2="88" y1="499" y2="24" /><line stroke="rgb(255,0,0)" stroke-width="1" x1="88" x2="291" y1="24" y2="373" /><line stroke="rgb(255,0,0)" stroke-width="1" x1="291" x2="108" y1="373" y2="445" /><line stroke="rgb(255,0,0)" stroke-width="1" x1="108" x2="80" y1="445" y2="208" /><line stroke="rgb(255,0,0)" stroke-width="1" x1="80" x2="155" y1="208" y2="287" /><line stroke="rgb(255,0,0)" stroke-width="1" x1="155" x2="197" y1="287" y2="495" /><line stroke="rgb(255,0,0)" stroke-width="1" x1="197" x2="89" y1="495" y2="65" /><line stroke="rgb(255,0,0)" stroke-width="1" x1="89" x2="464" y1="65" y2="270" /><line stroke="rgb(255,0,0)" stroke-width="1" x1="464" x2="131" y1="270" y2="445" /><line stroke="rgb(255,0,0)" stroke-width="1" x1="131" x2="411" y1="445" y2="409" /><line stroke="rgb(255,0,0)" stroke-width="1" x1="411" x2="282" y1="409" y2="355" /><line stroke="rgb(255,0,0)" stroke-width="1" x1="282" x2="259" y1="355" y2="172" /></svg>