<?xml version="1.0" encoding="utf-8" ?>
<svg baseProfile="full" height="100%" version="1.1" width="100%" xmlns="http://www.w3.org/2000/svg" xmlns:ev="http://www.w3.org/2001/xml-events" xmlns:xlink="http://www.w3.org/1999/xlink"><defs /><rect fill="#000" height="500" width="500" x="0" y="0" /><line stroke="rgb(255,0,0)" stroke-width="1" x1="294" x2="29" y1="20" y2="380" /><line stroke="rgb(255,0,0)" stroke-width="1" x1="294" x2="397" y1="20" y2="135" /><line stroke="rgb(255,0,0)" stroke-width="1" x1="397" x2="421" y1="135" y2="321" /><line stroke="rgb(255,0,0)" stroke-width="1" x1="421" x2="368" y1="321" y2="479" /><line stroke="rgb(255,0,0)" stroke-width="1" x1="368" x2="244" y1="479" y2="245" /><line stroke="rgb(255,0,0)" stroke-width="1" x1="244" x2="39" y1="245" y2="57" /><line stroke="rgb(255,0,0)" stroke-width="1" x1="39" x2="132" y1="57" y2="408" /><line stroke="rgb(255,0,0)" stroke-width="1" x1="132" x2="123" y1="408" y2="39" /><line stroke="rgb(255,0,0)" stroke-width="1" x1="123" x2="128" y1="39" y2="298" /><line stroke="rgb(255,0,0)" stroke-width="1" x1="128" x2="141" y1="298" y2="326" /><line stroke="rgb(255,0,0)" stroke-width="1" x1="141" x2="186" y1="326" y2="256" /><line stroke="rgb(255,0,0)" stroke-width="1" x1="186" x2="258" y1="256" y2="93" /><line stroke="rgb(255,0,0)" stroke-width="1" x1="258" x2="6" y1="93" y2="91" /><line stroke="rgb(255,0,0)" stroke-width="1" x1="6" x2="27" y1="91" y2="324" /><line stroke="rgb(255,0,0)" stroke-width="1" x1="27" x2="319" y1="324" y2="232" /><line stroke="rgb(255,0,0)" stroke-width="1" x1="319" x2="348" y1="232" y2="265" /><line stroke="rgb(255,0,0)" stroke-width="1" x1="348" x2="184" y1="265" y2="141" /><line stroke="rgb(255,0,0)" stroke-width="1" x1="184" x2="385" y1="141" y2="110" /><line stroke="rgb(255,0,0)" stroke-width="1" x1="385" x2="278" y1="110" y2="324" /><line stroke="rgb(255,0,0)" stroke-width="1" x1="278" x2="450" y1="324" y2="438" /><line stroke="rgb(255,0,0)" stroke-width="1" x1="450" x2="311" y1="438" y2="176" /><line stroke="rgb(255,0,0)" stroke-width="1" x1="311" x2="345" y1="176" y2="79" /><line stroke="rgb(255,0,0)" stroke-width="1" x1="345" x2="59" y1="79" y2="189" /><line stroke="rgb(255,0,0)" stroke-width="1" x1="59" x2="195" y1="189" y2="392" /><line stroke="rgb(255,0,0)" stroke-width="1" x1="195" x2="318" y1="392" y2="74" /><line stroke="rgb(255,0,0)" stroke-width="1" x1="318" x2="416" y1="74" y2="197" /><line stroke="rgb(255,0,0)" stroke-width="1" x1="416" x2="302" y1="197" y2="39" /><line stroke="rgb(255,0,0)" stroke-width="1" x1="302" x2="388" y1="39" y2="102" /><line stroke="rgb(255,0,0)" stroke-width="1" x1="388" x2="333" y1="102" y2="107" /><line stroke="rgb(255,0,0)" stroke-width="1" x1="333" x2="371" y1="107" y2="85" /><line stroke="rgb(255,0,0)" stroke-width="1" x1="371" x2="325" y1="85" y2="52" /><line stroke="rgb(255,0,0)" stroke-width="1" x1="325" x2="181" y1="52" y2="166" /><line stroke="rgb(255,0,0)" stroke-width="1" x1="181" x2="0" y1="166" y2="98" /><line stroke="rgb(255,0,0)" stroke-width="1" x1="0" x2="306" y1="98" y2="69" /><line stroke="rgb(255,0,0)" stroke-width="1" x1="306" x2="90" y1="69" y2="499" /><line stroke="rgb(255,0,0)" stroke-width="1" x1="90" x2="477" y1="499" y2="243" /><line stroke="rgb(255,0,0)" stroke-width="1" x1="477" x2="54" y1="243" y2="216" /><line stroke="rgb(255,0,0)" stroke-width="1" x1="54" x2="257" y1="216" y2="362" /><line stroke="rgb(255,0,0)" stroke-width="1" x1="257" x2="116" y1="362" y2="96" /><line stroke="rgb(255,0,0)" stroke-width="1" x1="116" x2="29" y1="96" y2="380" /></svg>