<?xml version="1.0" encoding="utf-8" ?>
<svg baseProfile="full" height="100%" version="1.1" width="100%" xmlns="http://www.w3.org/2000/svg" xmlns:ev="http://www.w3.org/2001/xml-events" xmlns:xlink="http://www.w3.org/1999/xlink"><defs /><rect fill="#000" height="500" width="500" x="0" y="0" /><line stroke="rgb(205,0,0)" stroke-width="2" x1="147" x2="440" y1="182" y2="395" /><line stroke="rgb(255,0,0)" stroke-width="0" x1="440" x2="380" y1="395" y2="374" /><line stroke="rgb(230,0,0)" stroke-width="1" x1="380" x2="424" y1="374" y2="121" /><line stroke="rgb(255,0,0)" stroke-width="0" x1="424" x2="127" y1="121" y2="36" /><line stroke="rgb(230,0,0)" stroke-width="1" x1="127" x2="61" y1="36" y2="21" /><line stroke="rgb(255,0,0)" stroke-width="0" x1="61" x2="97" y1="21" y2="352" /><line stroke="rgb(230,0,0)" stroke-width="1" x1="97" x2="402" y1="352" y2="335" /><line stroke="rgb(205,0,0)" stroke-width="2" x1="402" x2="286" y1="335" y2="290" /><line stroke="rgb(205,0,0)" stroke-width="2" x1="286" x2="440" y1="290" y2="314" /><line stroke="rgb(230,0,0)" stroke-width="1" x1="440" x2="310" y1="314" y2="61" /><line stroke="rgb(255,0,0)" stroke-width="0" x1="310" x2="52" y1="61" y2="170" /><line stroke="rgb(205,0,0)" stroke-width="2" x1="52" x2="407" y1="170" y2="431" /><line stroke="rgb(205,0,0)" stroke-width="2" x1="407" x2="103" y1="431" y2="284" /><line stroke="rgb(255,0,0)" stroke-width="0" x1="103" x2="445" y1="284" y2="488" /><line stroke="rgb(230,0,0)" stroke-width="1" x1="445" x2="136" y1="488" y2="6" /><line stroke="rgb(230,0,0)" stroke-width="1" x1="136" x2="256" y1="6" y2="433" /><line stroke="rgb(205,0,0)" stroke-width="2" x1="256" x2="322" y1="433" y2="258" /><line stroke="rgb(255,0,0)" stroke-width="0" x1="322" x2="294" y1="258" y2="336" /><line stroke="rgb(230,0,0)" stroke-width="1" x1="294" x2="470" y1="336" y2="497" /><line stroke="rgb(255,0,0)" stroke-width="0" x1="470" x2="49" y1="497" y2="421" /><line stroke="rgb(255,0,0)" stroke-width="0" x1="49" x2="121" y1="421" y2="43" /><line stroke="rgb(255,0,0)" stroke-width="0" x1="121" x2="210" y1="43" y2="19" /><line stroke="rgb(205,0,0)" stroke-width="2" x1="210" x2="316" y1="19" y2="227" /><line stroke="rgb(205,0,0)" stroke-width="2" x1="316" x2="303" y1="227" y2="345" /><line stroke="rgb(205,0,0)" stroke-width="2" x1="303" x2="389" y1="345" y2="79" /><line stroke="rgb(230,0,0)" stroke-width="1" x1="389" x2="122" y1="79" y2="68" /><line stroke="rgb(255,0,0)" stroke-width="0" x1="122" x2="459" y1="68" y2="404" /><line stroke="rgb(205,0,0)" stroke-width="2" x1="459" x2="40" y1="404" y2="75" /><line stroke="rgb(255,0,0)" stroke-width="0" x1="40" x2="227" y1="75" y2="321" /><line stroke="rgb(205,0,0)" stroke-width="2" x1="227" x2="275" y1="321" y2="307" /><line stroke="rgb(205,0,0)" stroke-width="2" x1="275" x2="402" y1="307" y2="479" /><line stroke="rgb(205,0,0)" stroke-width="2" x1="402" x2="393" y1="479" y2="64" /><line stroke="rgb(205,0,0)" stroke-width="2" x1="393" x2="353" y1="64" y2="310" /><line stroke="rgb(230,0,0)" stroke-width="1" x1="353" x2="385" y1="310" y2="82" /><line stroke="rgb(230,0,0)" stroke-width="1" x1="385" x2="5" y1="82" y2="212" /><line stroke="rgb(255,0,0)" stroke-width="0" x1="5" x2="228" y1="212" y2="42" /><line stroke="rgb(230,0,0)" stroke-width="1" x1="228" x2="423" y1="42" y2="45" /><line stroke="rgb(230,0,0)" stroke-width="1" x1="423" x2="251" y1="45" y2="245" /><line stroke="rgb(205,0,0)" stroke-width="2" x1="251" x2="361" y1="245" y2="386" /><line stroke="rgb(230,0,0)" stroke-width="1" x1="361" x2="500" y1="386" y2="443" /><line stroke="rgb(205,0,0)" stroke-width="2" x1="500" x2="286" y1="443" y2="157" /><line stroke="rgb(205,0,0)" stroke-width="2" x1="286" x2="347" y1="157" y2="289" /><line stroke="rgb(205,0,0)" stroke-width="2" x1="347" x2="13" y1="289" y2="368" /><line stroke="rgb(230,0,0)" stroke-width="1" x1="13" x2="337" y1="368" y2="458" /><line stroke="rgb(230,0,0)" stroke-width="1" x1="337" x2="263" y1="458" y2="456" /><line stroke="rgb(230,0,0)" stroke-width="1" x1="263" x2="121" y1="456" y2="439" /><line stroke="rgb(205,0,0)" stroke-width="2" x1="121" x2="68" y1="439" y2="272" /><line stroke="rgb(255,0,0)" stroke-width="0" x1="68" x2="273" y1="272" y2="212" /><line stroke="rgb(205,0,0)" stroke-width="2" x1="273" x2="44" y1="212" y2="10" /><line stroke="rgb(230,0,0)" stroke-width="1" x1="44" x2="235" y1="10" y2="13" /><line stroke="rgb(230,0,0)" stroke-width="1" x1="235" x2="52" y1="13" y2="261" /><line stroke="rgb(205,0,0)" stroke-width="2" x1="52" x2="170" y1="261" y2="421" /><line stroke="rgb(255,0,0)" stroke-width="0" x1="170" x2="477" y1="421" y2="347" /><line stroke="rgb(205,0,0)" stroke-width="2" x1="477" x2="442" y1="347" y2="159" /><line stroke="rgb(230,0,0)" stroke-width="1" x1="442" x2="12" y1="159" y2="176" /><line stroke="rgb(205,0,0)" stroke-width="2" x1="12" x2="232" y1="176" y2="321" /><line stroke="rgb(205,0,0)" stroke-width="2" x1="232" x2="246" y1="321" y2="85" /><line stroke="rgb(230,0,0)" stroke-width="1" x1="246" x2="348" y1="85" y2="351" /><line stroke="rgb(230,0,0)" stroke-width="1" x1="348" x2="143" y1="351" y2="289" /><line stroke="rgb(205,0,0)" stroke-width="2" x1="143" x2="364" y1="289" y2="472" /><line stroke="rgb(230,0,0)" stroke-width="1" x1="364" x2="495" y1="472" y2="417" /><line stroke="rgb(230,0,0)" stroke-width="1" x1="495" x2="31" y1="417" y2="386" /><line stroke="rgb(255,0,0)" stroke-width="0" x1="31" x2="184" y1="386" y2="245" /><line stroke="rgb(205,0,0)" stroke-width="2" x1="184" x2="326" y1="245" y2="364" /><line stroke="rgb(255,0,0)" stroke-width="0" x1="326" x2="414" y1="364" y2="265" /><line stroke="rgb(230,0,0)" stroke-width="1" x1="414" x2="256" y1="265" y2="415" /><line stroke="rgb(205,0,0)" stroke-width="2" x1="256" x2="180" y1="415" y2="401" /><line stroke="rgb(205,0,0)" stroke-width="2" x1="180" x2="88" y1="401" y2="66" /><line stroke="rgb(205,0,0)" stroke-width="2" x1="88" x2="57" y1="66" y2="84" /><line stroke="rgb(230,0,0)" stroke-width="1" x1="57" x2="430" y1="84" y2="83" /><line stroke="rgb(230,0,0)" stroke-width="1" x1="430" x2="337" y1="83" y2="93" /><line stroke="rgb(205,0,0)" stroke-width="2" x1="337" x2="151" y1="93" y2="202" /><line stroke="rgb(205,0,0)" stroke-width="2" x1="151" x2="355" y1="202" y2="153" /><line stroke="rgb(205,0,0)" stroke-width="2" x1="355" x2="284" y1="153" y2="1" /><line stroke="rgb(255,0,0)" stroke-width="0" x1="284" x2="26" y1="1" y2="118" /><line stroke="rgb(205,0,0)" stroke-width="2" x1="26" x2="497" y1="118" y2="318" /><line stroke="rgb(255,0,0)" stroke-width="0" x1="497" x2="313" y1="318" y2="387" /><line stroke="rgb(230,0,0)" stroke-width="1" x1="313" x2="260" y1="387" y2="450" /><line stroke="rgb(255,0,0)" stroke-width="0" x1="260" x2="461" y1="450" y2="119" /><line stroke="rgb(230,0,0)" stroke-width="1" x1="461" x2="55" y1="119" y2="354" /><line stroke="rgb(255,0,0)" stroke-width="0" x1="55" x2="38" y1="354" y2="437" /><line stroke="rgb(205,0,0)" stroke-width="2" x1="38" x2="493" y1="437" y2="477" /><line stroke="rgb(230,0,0)" stroke-width="1" x1="493" x2="72" y1="477" y2="344" /><line stroke="rgb(255,0,0)" stroke-width="0" x1="72" x2="128" y1="344" y2="1" /><line stroke="rgb(255,0,0)" stroke-width="0" x1="128" x2="136" y1="1" y2="106" /><line stroke="rgb(230,0,0)" stroke-width="1" x1="136" x2="479" y1="106" y2="109" /><line stroke="rgb(255,0,0)" stroke-width="0" x1="479" x2="116" y1="109" y2="49" /><line stroke="rgb(230,0,0)" stroke-width="1" x1="116" x2="450" y1="49" y2="44" /><line stroke="rgb(255,0,0)" stroke-width="0" x1="450" x2="125" y1="44" y2="300" /><line stroke="rgb(255,0,0)" stroke-width="0" x1="125" x2="76" y1="300" y2="423" /><line stroke="rgb(255,0,0)" stroke-width="0" x1="76" x2="352" y1="423" y2="27" /><line stroke="rgb(255,0,0)" stroke-width="0" x1="352" x2="348" y1="27" y2="365" /><line stroke="rgb(255,0,0)" stroke-width="0" x1="348" x2="42" y1="365" y2="432" /><line stroke="rgb(255,0,0)" stroke-width="0" x1="42" x2="316" y1="432" y2="91" /><line stroke="rgb(255,0,0)" stroke-width="0" x1="316" x2="135" y1="91" y2="307" /><line stroke="rgb(255,0,0)" stroke-width="0" x1="135" x2="220" y1="307" y2="0" /><line stroke="rgb(255,0,0)" stroke-width="0" x1="220" x2="96" y1="0" y2="443" /><line stroke="rgb(255,0,0)" stroke-width="0" x1="96" x2="202" y1="443" y2="17" /><line stroke="rgb(230,0,0)" stroke-width="1" x1="202" x2="159" y1="17" y2="428" /><line stroke="rgb(255,0,0)" stroke-width="0" x1="159" x2="153" y1="428" y2="207" /></svg>