<?xml version="1.0" encoding="utf-8" ?>
<svg baseProfile="full" height="100%" version="1.1" width="100%" xmlns="http://www.w3.org/2000/svg" xmlns:ev="http://www.w3.org/2001/xml-events" xmlns:xlink="http://www.w3.org/1999/xlink"><defs /><rect fill="#000" height="500" width="500" x="0" y="0" /><line stroke="rgb(255,0,0)" stroke-width="0" x1="230" x2="300" y1="9" y2="311" /><line stroke="rgb(255,0,0)" stroke-width="2" x1="300" x2="298" y1="311" y2="276" /><line stroke="rgb(255,0,0)" stroke-width="0" x1="298" x2="241" y1="276" y2="353" /><line stroke="rgb(255,0,0)" stroke-width="1" x1="241" x2="60" y1="353" y2="416" /><line stroke="rgb(255,0,0)" stroke-width="0" x1="60" x2="251" y1="416" y2="248" /><line stroke="rgb(255,0,0)" stroke-width="2" x1="251" x2="277" y1="248" y2="181" /><line stroke="rgb(255,0,0)" stroke-width="1" x1="277" x2="147" y1="181" y2="277" /><line stroke="rgb(255,0,0)" stroke-width="0" x1="147" x2="278" y1="277" y2="193" /><line stroke="rgb(255,0,0)" stroke-width="2" x1="278" x2="37" y1="193" y2="152" /><line stroke="rgb(255,0,0)" stroke-width="2" x1="37" x2="108" y1="152" y2="213" /><line stroke="rgb(255,0,0)" stroke-width="1" x1="108" x2="171" y1="213" y2="29" /><line stroke="rgb(255,0,0)" stroke-width="2" x1="171" x2="156" y1="29" y2="403" /><line stroke="rgb(255,0,0)" stroke-width="0" x1="156" x2="307" y1="403" y2="300" /><line stroke="rgb(255,0,0)" stroke-width="0" x1="307" x2="42" y1="300" y2="481" /><line stroke="rgb(255,0,0)" stroke-width="1" x1="42" x2="422" y1="481" y2="237" /><line stroke="rgb(255,0,0)" stroke-width="0" x1="422" x2="411" y1="237" y2="297" /><line stroke="rgb(255,0,0)" stroke-width="0" x1="411" x2="175" y1="297" y2="195" /><line stroke="rgb(255,0,0)" stroke-width="0" x1="175" x2="10" y1="195" y2="60" /><line stroke="rgb(255,0,0)" stroke-width="0" x1="10" x2="381" y1="60" y2="193" /><line stroke="rgb(255,0,0)" stroke-width="1" x1="381" x2="350" y1="193" y2="463" /><line stroke="rgb(255,0,0)" stroke-width="2" x1="350" x2="91" y1="463" y2="142" /><line stroke="rgb(255,0,0)" stroke-width="0" x1="91" x2="353" y1="142" y2="218" /><line stroke="rgb(255,0,0)" stroke-width="2" x1="353" x2="247" y1="218" y2="396" /><line stroke="rgb(255,0,0)" stroke-width="1" x1="247" x2="280" y1="396" y2="458" /><line stroke="rgb(255,0,0)" stroke-width="1" x1="280" x2="408" y1="458" y2="135" /><line stroke="rgb(255,0,0)" stroke-width="1" x1="408" x2="498" y1="135" y2="232" /><line stroke="rgb(255,0,0)" stroke-width="2" x1="498" x2="155" y1="232" y2="254" /><line stroke="rgb(255,0,0)" stroke-width="0" x1="155" x2="368" y1="254" y2="201" /></svg>