<?xml version="1.0" encoding="utf-8" ?>
<svg baseProfile="full" height="100%" version="1.1" width="100%" xmlns="http://www.w3.org/2000/svg" xmlns:ev="http://www.w3.org/2001/xml-events" xmlns:xlink="http://www.w3.org/1999/xlink"><defs /><rect fill="#000" height="500" width="500" x="0" y="0" /><line stroke="rgb(100%,0%,0%)" stroke-width="0" x1="337" x2="476" y1="33" y2="151" /><line stroke="rgb(100%,0%,0%)" stroke-width="1" x1="476" x2="360" y1="151" y2="466" /><line stroke="rgb(100%,0%,0%)" stroke-width="1" x1="360" x2="148" y1="466" y2="28" /><line stroke="rgb(100%,0%,0%)" stroke-width="1" x1="148" x2="457" y1="28" y2="353" /><line stroke="rgb(100%,0%,0%)" stroke-width="1" x1="457" x2="36" y1="353" y2="370" /><line stroke="rgb(100%,0%,0%)" stroke-width="2" x1="36" x2="14" y1="370" y2="241" /><line stroke="rgb(100%,0%,0%)" stroke-width="2" x1="14" x2="250" y1="241" y2="296" /><line stroke="rgb(100%,0%,0%)" stroke-width="2" x1="250" x2="478" y1="296" y2="285" /><line stroke="rgb(100%,0%,0%)" stroke-width="0" x1="478" x2="244" y1="285" y2="292" /><line stroke="rgb(100%,0%,0%)" stroke-width="2" x1="244" x2="254" y1="292" y2="139" /><line stroke="rgb(100%,0%,0%)" stroke-width="2" x1="254" x2="69" y1="139" y2="294" /><line stroke="rgb(95%,0%,0%)" stroke-width="2" x1="69" x2="71" y1="294" y2="18" /><line stroke="rgb(75%,0%,0%)" stroke-width="2" x1="71" x2="497" y1="18" y2="165" /><line stroke="rgb(65%,0%,0%)" stroke-width="1" x1="497" x2="170" y1="165" y2="274" /><line stroke="rgb(45%,0%,0%)" stroke-width="2" x1="170" x2="263" y1="274" y2="407" /><line stroke="rgb(45%,0%,0%)" stroke-width="0" x1="263" x2="49" y1="407" y2="52" /><line stroke="rgb(45%,0%,0%)" stroke-width="0" x1="49" x2="183" y1="52" y2="381" /><line stroke="rgb(25%,0%,0%)" stroke-width="2" x1="183" x2="437" y1="381" y2="494" /><line stroke="rgb(5%,0%,0%)" stroke-width="2" x1="437" x2="188" y1="494" y2="447" /><line stroke="rgb(0%,0%,0%)" stroke-width="1" x1="188" x2="53" y1="447" y2="474" /><line stroke="rgb(0%,0%,0%)" stroke-width="1" x1="53" x2="108" y1="474" y2="256" /><line stroke="rgb(0%,0%,0%)" stroke-width="0" x1="108" x2="431" y1="256" y2="194" /><line stroke="rgb(0%,0%,0%)" stroke-width="0" x1="431" x2="229" y1="194" y2="394" /><line stroke="rgb(0%,0%,0%)" stroke-width="0" x1="229" x2="458" y1="394" y2="16" /><line stroke="rgb(0%,0%,0%)" stroke-width="2" x1="458" x2="52" y1="16" y2="187" /><line stroke="rgb(0%,0%,0%)" stroke-width="2" x1="52" x2="353" y1="187" y2="372" /><line stroke="rgb(0%,0%,0%)" stroke-width="0" x1="353" x2="297" y1="372" y2="430" /><line stroke="rgb(0%,0%,0%)" stroke-width="0" x1="297" x2="370" y1="430" y2="482" /><line stroke="rgb(0%,0%,0%)" stroke-width="0" x1="370" x2="72" y1="482" y2="74" /><line stroke="rgb(0%,0%,0%)" stroke-width="2" x1="72" x2="405" y1="74" y2="250" /><line stroke="rgb(0%,0%,0%)" stroke-width="2" x1="405" x2="194" y1="250" y2="1" /><line stroke="rgb(0%,0%,0%)" stroke-width="2" x1="194" x2="64" y1="1" y2="235" /><line stroke="rgb(0%,0%,0%)" stroke-width="1" x1="64" x2="402" y1="235" y2="1" /><line stroke="rgb(0%,0%,0%)" stroke-width="2" x1="402" x2="98" y1="1" y2="490" /><line stroke="rgb(0%,0%,0%)" stroke-width="2" x1="98" x2="461" y1="490" y2="270" /><line stroke="rgb(0%,0%,0%)" stroke-width="0" x1="461" x2="332" y1="270" y2="91" /><line stroke="rgb(0%,0%,0%)" stroke-width="0" x1="332" x2="100" y1="91" y2="253" /><line stroke="rgb(0%,0%,0%)" stroke-width="0" x1="100" x2="372" y1="253" y2="357" /><line stroke="rgb(0%,0%,0%)" stroke-width="2" x1="372" x2="110" y1="357" y2="150" /><line stroke="rgb(0%,0%,0%)" stroke-width="2" x1="110" x2="258" y1="150" y2="415" /><line stroke="rgb(0%,0%,0%)" stroke-width="0" x1="258" x2="75" y1="415" y2="221" /><line stroke="rgb(0%,0%,0%)" stroke-width="2" x1="75" x2="99" y1="221" y2="445" /><line stroke="rgb(0%,0%,0%)" stroke-width="2" x1="99" x2="357" y1="445" y2="81" /><line stroke="rgb(0%,0%,0%)" stroke-width="1" x1="357" x2="84" y1="81" y2="88" /><line stroke="rgb(0%,0%,0%)" stroke-width="1" x1="84" x2="341" y1="88" y2="235" /><line stroke="rgb(0%,0%,0%)" stroke-width="0" x1="341" x2="447" y1="235" y2="207" /><line stroke="rgb(0%,0%,0%)" stroke-width="0" x1="447" x2="405" y1="207" y2="251" /><line stroke="rgb(0%,0%,0%)" stroke-width="2" x1="405" x2="51" y1="251" y2="128" /><line stroke="rgb(0%,0%,0%)" stroke-width="1" x1="51" x2="311" y1="128" y2="228" /><line stroke="rgb(0%,0%,0%)" stroke-width="0" x1="311" x2="338" y1="228" y2="197" /><line stroke="rgb(0%,0%,0%)" stroke-width="1" x1="338" x2="3" y1="197" y2="184" /><line stroke="rgb(0%,0%,0%)" stroke-width="0" x1="3" x2="179" y1="184" y2="64" /><line stroke="rgb(0%,0%,0%)" stroke-width="2" x1="179" x2="116" y1="64" y2="129" /><line stroke="rgb(0%,0%,0%)" stroke-width="1" x1="116" x2="278" y1="129" y2="78" /><line stroke="rgb(0%,0%,0%)" stroke-width="2" x1="278" x2="67" y1="78" y2="84" /><line stroke="rgb(0%,0%,0%)" stroke-width="1" x1="67" x2="8" y1="84" y2="13" /><line stroke="rgb(0%,0%,0%)" stroke-width="1" x1="8" x2="255" y1="13" y2="400" /><line stroke="rgb(0%,0%,0%)" stroke-width="1" x1="255" x2="422" y1="400" y2="133" /><line stroke="rgb(0%,0%,0%)" stroke-width="0" x1="422" x2="241" y1="133" y2="239" /><line stroke="rgb(0%,0%,0%)" stroke-width="0" x1="241" x2="401" y1="239" y2="269" /><line stroke="rgb(0%,0%,0%)" stroke-width="2" x1="401" x2="408" y1="269" y2="444" /><line stroke="rgb(0%,0%,0%)" stroke-width="2" x1="408" x2="75" y1="444" y2="443" /><line stroke="rgb(0%,0%,0%)" stroke-width="2" x1="75" x2="300" y1="443" y2="166" /><line stroke="rgb(0%,0%,0%)" stroke-width="0" x1="300" x2="232" y1="166" y2="89" /><line stroke="rgb(0%,0%,0%)" stroke-width="1" x1="232" x2="332" y1="89" y2="193" /><line stroke="rgb(0%,0%,0%)" stroke-width="1" x1="332" x2="261" y1="193" y2="94" /><line stroke="rgb(0%,0%,0%)" stroke-width="2" x1="261" x2="325" y1="94" y2="248" /><line stroke="rgb(0%,0%,0%)" stroke-width="1" x1="325" x2="252" y1="248" y2="46" /><line stroke="rgb(0%,0%,0%)" stroke-width="1" x1="252" x2="417" y1="46" y2="171" /><line stroke="rgb(0%,0%,0%)" stroke-width="1" x1="417" x2="356" y1="171" y2="67" /><line stroke="rgb(0%,0%,0%)" stroke-width="1" x1="356" x2="258" y1="67" y2="8" /><line stroke="rgb(0%,0%,0%)" stroke-width="2" x1="258" x2="40" y1="8" y2="229" /><line stroke="rgb(0%,0%,0%)" stroke-width="1" x1="40" x2="149" y1="229" y2="157" /><line stroke="rgb(0%,0%,0%)" stroke-width="2" x1="149" x2="225" y1="157" y2="291" /><line stroke="rgb(0%,0%,0%)" stroke-width="0" x1="225" x2="92" y1="291" y2="45" /><line stroke="rgb(0%,0%,0%)" stroke-width="1" x1="92" x2="129" y1="45" y2="483" /><line stroke="rgb(0%,0%,0%)" stroke-width="0" x1="129" x2="0" y1="483" y2="464" /><line stroke="rgb(0%,0%,0%)" stroke-width="2" x1="0" x2="365" y1="464" y2="375" /><line stroke="rgb(0%,0%,0%)" stroke-width="2" x1="365" x2="352" y1="375" y2="497" /><line stroke="rgb(0%,0%,0%)" stroke-width="2" x1="352" x2="404" y1="497" y2="116" /><line stroke="rgb(0%,0%,0%)" stroke-width="0" x1="404" x2="184" y1="116" y2="280" /><line stroke="rgb(0%,0%,0%)" stroke-width="0" x1="184" x2="115" y1="280" y2="229" /><line stroke="rgb(0%,0%,0%)" stroke-width="0" x1="115" x2="92" y1="229" y2="19" /><line stroke="rgb(0%,0%,0%)" stroke-width="2" x1="92" x2="31" y1="19" y2="335" /><line stroke="rgb(0%,0%,0%)" stroke-width="0" x1="31" x2="346" y1="335" y2="478" /><line stroke="rgb(0%,0%,0%)" stroke-width="0" x1="346" x2="484" y1="478" y2="25" /><line stroke="rgb(0%,0%,0%)" stroke-width="2" x1="484" x2="220" y1="25" y2="85" /><line stroke="rgb(0%,0%,0%)" stroke-width="0" x1="220" x2="85" y1="85" y2="499" /><line stroke="rgb(0%,0%,0%)" stroke-width="2" x1="85" x2="111" y1="499" y2="326" /><line stroke="rgb(0%,0%,0%)" stroke-width="2" x1="111" x2="386" y1="326" y2="253" /><line stroke="rgb(0%,0%,0%)" stroke-width="2" x1="386" x2="8" y1="253" y2="410" /><line stroke="rgb(0%,0%,0%)" stroke-width="1" x1="8" x2="76" y1="410" y2="0" /><line stroke="rgb(0%,0%,0%)" stroke-width="0" x1="76" x2="252" y1="0" y2="173" /><line stroke="rgb(0%,0%,0%)" stroke-width="0" x1="252" x2="471" y1="173" y2="384" /><line stroke="rgb(0%,0%,0%)" stroke-width="1" x1="471" x2="100" y1="384" y2="11" /><line stroke="rgb(0%,0%,0%)" stroke-width="0" x1="100" x2="486" y1="11" y2="179" /><line stroke="rgb(0%,0%,0%)" stroke-width="0" x1="486" x2="444" y1="179" y2="449" /><line stroke="rgb(0%,0%,0%)" stroke-width="0" x1="444" x2="242" y1="449" y2="8" /><line stroke="rgb(0%,0%,0%)" stroke-width="0" x1="242" x2="340" y1="8" y2="411" /><line stroke="rgb(0%,0%,0%)" stroke-width="2" x1="340" x2="377" y1="411" y2="80" /></svg>