<?xml version="1.0" encoding="utf-8" ?>
<svg baseProfile="full" height="100%" version="1.1" width="100%" xmlns="http://www.w3.org/2000/svg" xmlns:ev="http://www.w3.org/2001/xml-events" xmlns:xlink="http://www.w3.org/1999/xlink"><defs /><rect fill="#000" height="500" width="500" x="0" y="0" /><line stroke="rgb(251,0,0)" stroke-width="2" x1="86" x2="483" y1="394" y2="496" /><line stroke="rgb(254,0,0)" stroke-width="1" x1="483" x2="54" y1="496" y2="387" /><line stroke="rgb(251,0,0)" stroke-width="2" x1="54" x2="196" y1="387" y2="359" /><line stroke="rgb(254,0,0)" stroke-width="1" x1="196" x2="250" y1="359" y2="15" /><line stroke="rgb(251,0,0)" stroke-width="2" x1="250" x2="131" y1="15" y2="352" /><line stroke="rgb(251,0,0)" stroke-width="2" x1="131" x2="381" y1="352" y2="58" /><line stroke="rgb(255,0,0)" stroke-width="0" x1="381" x2="479" y1="58" y2="303" /><line stroke="rgb(254,0,0)" stroke-width="1" x1="479" x2="6" y1="303" y2="351" /><line stroke="rgb(254,0,0)" stroke-width="1" x1="6" x2="304" y1="351" y2="404" /><line stroke="rgb(254,0,0)" stroke-width="1" x1="304" x2="414" y1="404" y2="387" /><line stroke="rgb(251,0,0)" stroke-width="2" x1="414" x2="198" y1="387" y2="361" /><line stroke="rgb(251,0,0)" stroke-width="2" x1="198" x2="402" y1="361" y2="40" /><line stroke="rgb(255,0,0)" stroke-width="0" x1="402" x2="95" y1="40" y2="23" /><line stroke="rgb(251,0,0)" stroke-width="2" x1="95" x2="238" y1="23" y2="436" /><line stroke="rgb(254,0,0)" stroke-width="1" x1="238" x2="55" y1="436" y2="70" /><line stroke="rgb(255,0,0)" stroke-width="0" x1="55" x2="74" y1="70" y2="15" /><line stroke="rgb(255,0,0)" stroke-width="0" x1="74" x2="65" y1="15" y2="50" /><line stroke="rgb(254,0,0)" stroke-width="1" x1="65" x2="307" y1="50" y2="408" /><line stroke="rgb(255,0,0)" stroke-width="0" x1="307" x2="450" y1="408" y2="100" /><line stroke="rgb(254,0,0)" stroke-width="1" x1="450" x2="270" y1="100" y2="361" /><line stroke="rgb(254,0,0)" stroke-width="1" x1="270" x2="388" y1="361" y2="208" /><line stroke="rgb(255,0,0)" stroke-width="0" x1="388" x2="365" y1="208" y2="495" /><line stroke="rgb(255,0,0)" stroke-width="0" x1="365" x2="342" y1="495" y2="420" /><line stroke="rgb(254,0,0)" stroke-width="1" x1="342" x2="301" y1="420" y2="117" /><line stroke="rgb(251,0,0)" stroke-width="2" x1="301" x2="272" y1="117" y2="451" /><line stroke="rgb(255,0,0)" stroke-width="0" x1="272" x2="400" y1="451" y2="35" /><line stroke="rgb(255,0,0)" stroke-width="0" x1="400" x2="79" y1="35" y2="248" /><line stroke="rgb(251,0,0)" stroke-width="2" x1="79" x2="368" y1="248" y2="352" /><line stroke="rgb(255,0,0)" stroke-width="0" x1="368" x2="367" y1="352" y2="87" /><line stroke="rgb(255,0,0)" stroke-width="0" x1="367" x2="153" y1="87" y2="429" /><line stroke="rgb(255,0,0)" stroke-width="0" x1="153" x2="168" y1="429" y2="200" /><line stroke="rgb(255,0,0)" stroke-width="0" x1="168" x2="216" y1="200" y2="366" /><line stroke="rgb(255,0,0)" stroke-width="0" x1="216" x2="45" y1="366" y2="57" /><line stroke="rgb(251,0,0)" stroke-width="2" x1="45" x2="17" y1="57" y2="95" /><line stroke="rgb(255,0,0)" stroke-width="0" x1="17" x2="487" y1="95" y2="322" /><line stroke="rgb(251,0,0)" stroke-width="2" x1="487" x2="242" y1="322" y2="229" /><line stroke="rgb(255,0,0)" stroke-width="0" x1="242" x2="334" y1="229" y2="196" /><line stroke="rgb(254,0,0)" stroke-width="1" x1="334" x2="439" y1="196" y2="490" /><line stroke="rgb(255,0,0)" stroke-width="0" x1="439" x2="324" y1="490" y2="73" /><line stroke="rgb(255,0,0)" stroke-width="0" x1="324" x2="3" y1="73" y2="214" /><line stroke="rgb(254,0,0)" stroke-width="1" x1="3" x2="280" y1="214" y2="474" /><line stroke="rgb(255,0,0)" stroke-width="0" x1="280" x2="116" y1="474" y2="184" /><line stroke="rgb(254,0,0)" stroke-width="1" x1="116" x2="204" y1="184" y2="348" /><line stroke="rgb(251,0,0)" stroke-width="2" x1="204" x2="458" y1="348" y2="344" /><line stroke="rgb(255,0,0)" stroke-width="0" x1="458" x2="461" y1="344" y2="131" /><line stroke="rgb(254,0,0)" stroke-width="1" x1="461" x2="396" y1="131" y2="406" /><line stroke="rgb(254,0,0)" stroke-width="1" x1="396" x2="397" y1="406" y2="265" /><line stroke="rgb(255,0,0)" stroke-width="0" x1="397" x2="345" y1="265" y2="393" /><line stroke="rgb(254,0,0)" stroke-width="1" x1="345" x2="486" y1="393" y2="131" /><line stroke="rgb(255,0,0)" stroke-width="0" x1="486" x2="478" y1="131" y2="62" /><line stroke="rgb(255,0,0)" stroke-width="0" x1="478" x2="358" y1="62" y2="279" /><line stroke="rgb(251,0,0)" stroke-width="2" x1="358" x2="394" y1="279" y2="346" /><line stroke="rgb(254,0,0)" stroke-width="1" x1="394" x2="215" y1="346" y2="100" /><line stroke="rgb(251,0,0)" stroke-width="2" x1="215" x2="260" y1="100" y2="201" /><line stroke="rgb(255,0,0)" stroke-width="0" x1="260" x2="183" y1="201" y2="289" /><line stroke="rgb(254,0,0)" stroke-width="1" x1="183" x2="139" y1="289" y2="40" /><line stroke="rgb(254,0,0)" stroke-width="1" x1="139" x2="166" y1="40" y2="243" /><line stroke="rgb(254,0,0)" stroke-width="1" x1="166" x2="460" y1="243" y2="266" /><line stroke="rgb(251,0,0)" stroke-width="2" x1="460" x2="35" y1="266" y2="211" /><line stroke="rgb(255,0,0)" stroke-width="0" x1="35" x2="262" y1="211" y2="364" /><line stroke="rgb(254,0,0)" stroke-width="1" x1="262" x2="457" y1="364" y2="60" /><line stroke="rgb(254,0,0)" stroke-width="1" x1="457" x2="287" y1="60" y2="246" /><line stroke="rgb(251,0,0)" stroke-width="2" x1="287" x2="153" y1="246" y2="281" /><line stroke="rgb(251,0,0)" stroke-width="2" x1="153" x2="189" y1="281" y2="488" /><line stroke="rgb(255,0,0)" stroke-width="0" x1="189" x2="468" y1="488" y2="352" /><line stroke="rgb(254,0,0)" stroke-width="1" x1="468" x2="142" y1="352" y2="422" /><line stroke="rgb(251,0,0)" stroke-width="2" x1="142" x2="81" y1="422" y2="288" /><line stroke="rgb(254,0,0)" stroke-width="1" x1="81" x2="365" y1="288" y2="30" /><line stroke="rgb(254,0,0)" stroke-width="1" x1="365" x2="102" y1="30" y2="108" /><line stroke="rgb(254,0,0)" stroke-width="1" x1="102" x2="359" y1="108" y2="49" /><line stroke="rgb(251,0,0)" stroke-width="2" x1="359" x2="362" y1="49" y2="86" /><line stroke="rgb(251,0,0)" stroke-width="2" x1="362" x2="29" y1="86" y2="422" /><line stroke="rgb(254,0,0)" stroke-width="1" x1="29" x2="39" y1="422" y2="499" /><line stroke="rgb(255,0,0)" stroke-width="0" x1="39" x2="22" y1="499" y2="24" /><line stroke="rgb(255,0,0)" stroke-width="0" x1="22" x2="441" y1="24" y2="407" /><line stroke="rgb(254,0,0)" stroke-width="1" x1="441" x2="351" y1="407" y2="129" /><line stroke="rgb(255,0,0)" stroke-width="0" x1="351" x2="54" y1="129" y2="83" /><line stroke="rgb(255,0,0)" stroke-width="0" x1="54" x2="93" y1="83" y2="33" /><line stroke="rgb(255,0,0)" stroke-width="0" x1="93" x2="172" y1="33" y2="400" /><line stroke="rgb(255,0,0)" stroke-width="0" x1="172" x2="441" y1="400" y2="203" /><line stroke="rgb(254,0,0)" stroke-width="1" x1="441" x2="79" y1="203" y2="467" /><line stroke="rgb(254,0,0)" stroke-width="1" x1="79" x2="199" y1="467" y2="356" /><line stroke="rgb(255,0,0)" stroke-width="0" x1="199" x2="18" y1="356" y2="468" /><line stroke="rgb(254,0,0)" stroke-width="1" x1="18" x2="183" y1="468" y2="407" /><line stroke="rgb(254,0,0)" stroke-width="1" x1="183" x2="426" y1="407" y2="335" /><line stroke="rgb(251,0,0)" stroke-width="2" x1="426" x2="62" y1="335" y2="471" /><line stroke="rgb(255,0,0)" stroke-width="0" x1="62" x2="73" y1="471" y2="140" /><line stroke="rgb(251,0,0)" stroke-width="2" x1="73" x2="498" y1="140" y2="380" /><line stroke="rgb(255,0,0)" stroke-width="0" x1="498" x2="302" y1="380" y2="110" /><line stroke="rgb(255,0,0)" stroke-width="0" x1="302" x2="464" y1="110" y2="211" /><line stroke="rgb(254,0,0)" stroke-width="1" x1="464" x2="377" y1="211" y2="277" /><line stroke="rgb(254,0,0)" stroke-width="1" x1="377" x2="404" y1="277" y2="401" /><line stroke="rgb(254,0,0)" stroke-width="1" x1="404" x2="126" y1="401" y2="83" /><line stroke="rgb(251,0,0)" stroke-width="2" x1="126" x2="464" y1="83" y2="163" /><line stroke="rgb(254,0,0)" stroke-width="1" x1="464" x2="184" y1="163" y2="179" /><line stroke="rgb(251,0,0)" stroke-width="2" x1="184" x2="8" y1="179" y2="202" /><line stroke="rgb(254,0,0)" stroke-width="1" x1="8" x2="73" y1="202" y2="167" /><line stroke="rgb(255,0,0)" stroke-width="0" x1="73" x2="355" y1="167" y2="373" /><line stroke="rgb(251,0,0)" stroke-width="2" x1="355" x2="83" y1="373" y2="296" /><line stroke="rgb(251,0,0)" stroke-width="2" x1="83" x2="154" y1="296" y2="79" /></svg>