<?xml version="1.0" encoding="utf-8" ?>
<svg baseProfile="full" height="100%" version="1.1" width="100%" xmlns="http://www.w3.org/2000/svg" xmlns:ev="http://www.w3.org/2001/xml-events" xmlns:xlink="http://www.w3.org/1999/xlink"><defs /><rect fill="#000" height="500" width="500" x="0" y="0" /><line stroke="rgb(240,0,0)" stroke-width="1" x1="413" x2="117" y1="457" y2="275" /><line stroke="rgb(238,0,0)" stroke-width="2" x1="117" x2="354" y1="275" y2="146" /><line stroke="rgb(240,0,0)" stroke-width="1" x1="354" x2="184" y1="146" y2="225" /><line stroke="rgb(240,0,0)" stroke-width="1" x1="184" x2="482" y1="225" y2="82" /><line stroke="rgb(238,0,0)" stroke-width="2" x1="482" x2="196" y1="82" y2="114" /><line stroke="rgb(240,0,0)" stroke-width="1" x1="196" x2="339" y1="114" y2="76" /><line stroke="rgb(255,0,0)" stroke-width="0" x1="339" x2="114" y1="76" y2="95" /><line stroke="rgb(240,0,0)" stroke-width="1" x1="114" x2="251" y1="95" y2="229" /><line stroke="rgb(238,0,0)" stroke-width="2" x1="251" x2="481" y1="229" y2="88" /><line stroke="rgb(240,0,0)" stroke-width="1" x1="481" x2="115" y1="88" y2="60" /><line stroke="rgb(255,0,0)" stroke-width="0" x1="115" x2="59" y1="60" y2="444" /><line stroke="rgb(238,0,0)" stroke-width="2" x1="59" x2="142" y1="444" y2="129" /><line stroke="rgb(238,0,0)" stroke-width="2" x1="142" x2="345" y1="129" y2="468" /><line stroke="rgb(255,0,0)" stroke-width="0" x1="345" x2="145" y1="468" y2="298" /><line stroke="rgb(240,0,0)" stroke-width="1" x1="145" x2="140" y1="298" y2="112" /><line stroke="rgb(240,0,0)" stroke-width="1" x1="140" x2="275" y1="112" y2="55" /><line stroke="rgb(238,0,0)" stroke-width="2" x1="275" x2="42" y1="55" y2="91" /><line stroke="rgb(255,0,0)" stroke-width="0" x1="42" x2="186" y1="91" y2="386" /><line stroke="rgb(255,0,0)" stroke-width="0" x1="186" x2="299" y1="386" y2="272" /><line stroke="rgb(255,0,0)" stroke-width="0" x1="299" x2="144" y1="272" y2="102" /><line stroke="rgb(238,0,0)" stroke-width="2" x1="144" x2="228" y1="102" y2="29" /><line stroke="rgb(238,0,0)" stroke-width="2" x1="228" x2="143" y1="29" y2="56" /><line stroke="rgb(240,0,0)" stroke-width="1" x1="143" x2="3" y1="56" y2="450" /><line stroke="rgb(255,0,0)" stroke-width="0" x1="3" x2="411" y1="450" y2="2" /><line stroke="rgb(238,0,0)" stroke-width="2" x1="411" x2="343" y1="2" y2="283" /><line stroke="rgb(255,0,0)" stroke-width="0" x1="343" x2="413" y1="283" y2="426" /><line stroke="rgb(238,0,0)" stroke-width="2" x1="413" x2="175" y1="426" y2="183" /><line stroke="rgb(240,0,0)" stroke-width="1" x1="175" x2="13" y1="183" y2="26" /><line stroke="rgb(255,0,0)" stroke-width="0" x1="13" x2="0" y1="26" y2="194" /><line stroke="rgb(238,0,0)" stroke-width="2" x1="0" x2="471" y1="194" y2="317" /><line stroke="rgb(238,0,0)" stroke-width="2" x1="471" x2="12" y1="317" y2="421" /><line stroke="rgb(238,0,0)" stroke-width="2" x1="12" x2="41" y1="421" y2="476" /><line stroke="rgb(255,0,0)" stroke-width="0" x1="41" x2="178" y1="476" y2="488" /><line stroke="rgb(255,0,0)" stroke-width="0" x1="178" x2="96" y1="488" y2="393" /><line stroke="rgb(255,0,0)" stroke-width="0" x1="96" x2="245" y1="393" y2="394" /><line stroke="rgb(238,0,0)" stroke-width="2" x1="245" x2="291" y1="394" y2="479" /><line stroke="rgb(255,0,0)" stroke-width="0" x1="291" x2="246" y1="479" y2="212" /><line stroke="rgb(238,0,0)" stroke-width="2" x1="246" x2="254" y1="212" y2="296" /><line stroke="rgb(238,0,0)" stroke-width="2" x1="254" x2="128" y1="296" y2="56" /><line stroke="rgb(255,0,0)" stroke-width="0" x1="128" x2="312" y1="56" y2="432" /><line stroke="rgb(240,0,0)" stroke-width="1" x1="312" x2="408" y1="432" y2="413" /><line stroke="rgb(255,0,0)" stroke-width="0" x1="408" x2="323" y1="413" y2="62" /><line stroke="rgb(255,0,0)" stroke-width="0" x1="323" x2="116" y1="62" y2="388" /><line stroke="rgb(238,0,0)" stroke-width="2" x1="116" x2="500" y1="388" y2="98" /><line stroke="rgb(238,0,0)" stroke-width="2" x1="500" x2="224" y1="98" y2="37" /><line stroke="rgb(255,0,0)" stroke-width="0" x1="224" x2="108" y1="37" y2="180" /><line stroke="rgb(240,0,0)" stroke-width="1" x1="108" x2="404" y1="180" y2="258" /><line stroke="rgb(240,0,0)" stroke-width="1" x1="404" x2="477" y1="258" y2="347" /><line stroke="rgb(238,0,0)" stroke-width="2" x1="477" x2="250" y1="347" y2="443" /><line stroke="rgb(238,0,0)" stroke-width="2" x1="250" x2="113" y1="443" y2="355" /><line stroke="rgb(238,0,0)" stroke-width="2" x1="113" x2="200" y1="355" y2="370" /><line stroke="rgb(238,0,0)" stroke-width="2" x1="200" x2="311" y1="370" y2="257" /><line stroke="rgb(238,0,0)" stroke-width="2" x1="311" x2="260" y1="257" y2="418" /><line stroke="rgb(255,0,0)" stroke-width="0" x1="260" x2="123" y1="418" y2="239" /><line stroke="rgb(238,0,0)" stroke-width="2" x1="123" x2="284" y1="239" y2="362" /><line stroke="rgb(255,0,0)" stroke-width="0" x1="284" x2="397" y1="362" y2="402" /><line stroke="rgb(240,0,0)" stroke-width="1" x1="397" x2="244" y1="402" y2="121" /><line stroke="rgb(238,0,0)" stroke-width="2" x1="244" x2="10" y1="121" y2="223" /><line stroke="rgb(255,0,0)" stroke-width="0" x1="10" x2="428" y1="223" y2="12" /><line stroke="rgb(238,0,0)" stroke-width="2" x1="428" x2="279" y1="12" y2="49" /><line stroke="rgb(238,0,0)" stroke-width="2" x1="279" x2="377" y1="49" y2="340" /><line stroke="rgb(240,0,0)" stroke-width="1" x1="377" x2="321" y1="340" y2="133" /><line stroke="rgb(240,0,0)" stroke-width="1" x1="321" x2="401" y1="133" y2="456" /><line stroke="rgb(255,0,0)" stroke-width="0" x1="401" x2="270" y1="456" y2="126" /><line stroke="rgb(240,0,0)" stroke-width="1" x1="270" x2="251" y1="126" y2="302" /><line stroke="rgb(240,0,0)" stroke-width="1" x1="251" x2="457" y1="302" y2="346" /><line stroke="rgb(240,0,0)" stroke-width="1" x1="457" x2="124" y1="346" y2="8" /><line stroke="rgb(255,0,0)" stroke-width="0" x1="124" x2="56" y1="8" y2="49" /><line stroke="rgb(238,0,0)" stroke-width="2" x1="56" x2="329" y1="49" y2="220" /><line stroke="rgb(255,0,0)" stroke-width="0" x1="329" x2="366" y1="220" y2="202" /><line stroke="rgb(238,0,0)" stroke-width="2" x1="366" x2="481" y1="202" y2="422" /><line stroke="rgb(240,0,0)" stroke-width="1" x1="481" x2="174" y1="422" y2="136" /><line stroke="rgb(238,0,0)" stroke-width="2" x1="174" x2="426" y1="136" y2="327" /><line stroke="rgb(240,0,0)" stroke-width="1" x1="426" x2="437" y1="327" y2="485" /><line stroke="rgb(255,0,0)" stroke-width="0" x1="437" x2="73" y1="485" y2="91" /><line stroke="rgb(238,0,0)" stroke-width="2" x1="73" x2="284" y1="91" y2="260" /><line stroke="rgb(255,0,0)" stroke-width="0" x1="284" x2="490" y1="260" y2="443" /><line stroke="rgb(238,0,0)" stroke-width="2" x1="490" x2="15" y1="443" y2="60" /><line stroke="rgb(238,0,0)" stroke-width="2" x1="15" x2="317" y1="60" y2="201" /><line stroke="rgb(240,0,0)" stroke-width="1" x1="317" x2="87" y1="201" y2="166" /><line stroke="rgb(238,0,0)" stroke-width="2" x1="87" x2="497" y1="166" y2="355" /><line stroke="rgb(240,0,0)" stroke-width="1" x1="497" x2="327" y1="355" y2="300" /><line stroke="rgb(238,0,0)" stroke-width="2" x1="327" x2="372" y1="300" y2="359" /><line stroke="rgb(240,0,0)" stroke-width="1" x1="372" x2="266" y1="359" y2="343" /><line stroke="rgb(238,0,0)" stroke-width="2" x1="266" x2="244" y1="343" y2="279" /><line stroke="rgb(240,0,0)" stroke-width="1" x1="244" x2="181" y1="279" y2="314" /><line stroke="rgb(238,0,0)" stroke-width="2" x1="181" x2="292" y1="314" y2="336" /><line stroke="rgb(238,0,0)" stroke-width="2" x1="292" x2="5" y1="336" y2="361" /><line stroke="rgb(240,0,0)" stroke-width="1" x1="5" x2="315" y1="361" y2="270" /><line stroke="rgb(255,0,0)" stroke-width="0" x1="315" x2="48" y1="270" y2="320" /><line stroke="rgb(240,0,0)" stroke-width="1" x1="48" x2="74" y1="320" y2="282" /><line stroke="rgb(255,0,0)" stroke-width="0" x1="74" x2="349" y1="282" y2="77" /><line stroke="rgb(240,0,0)" stroke-width="1" x1="349" x2="411" y1="77" y2="196" /><line stroke="rgb(240,0,0)" stroke-width="1" x1="411" x2="242" y1="196" y2="36" /><line stroke="rgb(255,0,0)" stroke-width="0" x1="242" x2="263" y1="36" y2="139" /><line stroke="rgb(255,0,0)" stroke-width="0" x1="263" x2="169" y1="139" y2="215" /><line stroke="rgb(238,0,0)" stroke-width="2" x1="169" x2="432" y1="215" y2="340" /><line stroke="rgb(255,0,0)" stroke-width="0" x1="432" x2="472" y1="340" y2="366" /><line stroke="rgb(255,0,0)" stroke-width="0" x1="472" x2="329" y1="366" y2="18" /><line stroke="rgb(255,0,0)" stroke-width="0" x1="329" x2="468" y1="18" y2="34" /></svg>