<?xml version="1.0" encoding="utf-8" ?>
<svg baseProfile="full" height="100%" version="1.1" width="100%" xmlns="http://www.w3.org/2000/svg" xmlns:ev="http://www.w3.org/2001/xml-events" xmlns:xlink="http://www.w3.org/1999/xlink"><defs /><rect fill="#000" height="500" width="500" x="0" y="0" /><line stroke="rgb(255,0,0)" stroke-width="0" x1="96" x2="385" y1="40" y2="227" /><line stroke="rgb(198,0,0)" stroke-width="2" x1="385" x2="85" y1="227" y2="499" /><line stroke="rgb(255,0,0)" stroke-width="0" x1="85" x2="310" y1="499" y2="109" /><line stroke="rgb(198,0,0)" stroke-width="2" x1="310" x2="274" y1="109" y2="404" /><line stroke="rgb(198,0,0)" stroke-width="2" x1="274" x2="279" y1="404" y2="68" /><line stroke="rgb(255,0,0)" stroke-width="0" x1="279" x2="191" y1="68" y2="322" /><line stroke="rgb(255,0,0)" stroke-width="0" x1="191" x2="358" y1="322" y2="114" /><line stroke="rgb(255,0,0)" stroke-width="0" x1="358" x2="181" y1="114" y2="214" /><line stroke="rgb(205,0,0)" stroke-width="1" x1="181" x2="494" y1="214" y2="221" /><line stroke="rgb(255,0,0)" stroke-width="0" x1="494" x2="485" y1="221" y2="129" /><line stroke="rgb(205,0,0)" stroke-width="1" x1="485" x2="466" y1="129" y2="185" /><line stroke="rgb(255,0,0)" stroke-width="0" x1="466" x2="45" y1="185" y2="202" /><line stroke="rgb(205,0,0)" stroke-width="1" x1="45" x2="117" y1="202" y2="33" /><line stroke="rgb(198,0,0)" stroke-width="2" x1="117" x2="81" y1="33" y2="63" /><line stroke="rgb(205,0,0)" stroke-width="1" x1="81" x2="189" y1="63" y2="57" /><line stroke="rgb(205,0,0)" stroke-width="1" x1="189" x2="31" y1="57" y2="36" /><line stroke="rgb(255,0,0)" stroke-width="0" x1="31" x2="386" y1="36" y2="345" /><line stroke="rgb(205,0,0)" stroke-width="1" x1="386" x2="149" y1="345" y2="79" /><line stroke="rgb(205,0,0)" stroke-width="1" x1="149" x2="467" y1="79" y2="275" /><line stroke="rgb(198,0,0)" stroke-width="2" x1="467" x2="259" y1="275" y2="132" /><line stroke="rgb(205,0,0)" stroke-width="1" x1="259" x2="180" y1="132" y2="119" /><line stroke="rgb(198,0,0)" stroke-width="2" x1="180" x2="158" y1="119" y2="303" /><line stroke="rgb(205,0,0)" stroke-width="1" x1="158" x2="168" y1="303" y2="367" /><line stroke="rgb(255,0,0)" stroke-width="0" x1="168" x2="384" y1="367" y2="105" /><line stroke="rgb(198,0,0)" stroke-width="2" x1="384" x2="359" y1="105" y2="219" /><line stroke="rgb(198,0,0)" stroke-width="2" x1="359" x2="491" y1="219" y2="434" /><line stroke="rgb(205,0,0)" stroke-width="1" x1="491" x2="395" y1="434" y2="464" /><line stroke="rgb(255,0,0)" stroke-width="0" x1="395" x2="41" y1="464" y2="454" /><line stroke="rgb(205,0,0)" stroke-width="1" x1="41" x2="427" y1="454" y2="257" /><line stroke="rgb(198,0,0)" stroke-width="2" x1="427" x2="443" y1="257" y2="73" /><line stroke="rgb(198,0,0)" stroke-width="2" x1="443" x2="481" y1="73" y2="69" /><line stroke="rgb(205,0,0)" stroke-width="1" x1="481" x2="351" y1="69" y2="208" /><line stroke="rgb(205,0,0)" stroke-width="1" x1="351" x2="356" y1="208" y2="310" /><line stroke="rgb(198,0,0)" stroke-width="2" x1="356" x2="490" y1="310" y2="132" /><line stroke="rgb(205,0,0)" stroke-width="1" x1="490" x2="306" y1="132" y2="369" /><line stroke="rgb(255,0,0)" stroke-width="0" x1="306" x2="443" y1="369" y2="355" /><line stroke="rgb(255,0,0)" stroke-width="0" x1="443" x2="102" y1="355" y2="207" /><line stroke="rgb(198,0,0)" stroke-width="2" x1="102" x2="42" y1="207" y2="74" /><line stroke="rgb(198,0,0)" stroke-width="2" x1="42" x2="345" y1="74" y2="456" /><line stroke="rgb(198,0,0)" stroke-width="2" x1="345" x2="193" y1="456" y2="349" /><line stroke="rgb(198,0,0)" stroke-width="2" x1="193" x2="360" y1="349" y2="441" /><line stroke="rgb(205,0,0)" stroke-width="1" x1="360" x2="412" y1="441" y2="391" /><line stroke="rgb(255,0,0)" stroke-width="0" x1="412" x2="484" y1="391" y2="45" /><line stroke="rgb(198,0,0)" stroke-width="2" x1="484" x2="55" y1="45" y2="372" /><line stroke="rgb(255,0,0)" stroke-width="0" x1="55" x2="148" y1="372" y2="266" /><line stroke="rgb(205,0,0)" stroke-width="1" x1="148" x2="167" y1="266" y2="134" /><line stroke="rgb(198,0,0)" stroke-width="2" x1="167" x2="436" y1="134" y2="352" /><line stroke="rgb(255,0,0)" stroke-width="0" x1="436" x2="428" y1="352" y2="184" /><line stroke="rgb(205,0,0)" stroke-width="1" x1="428" x2="313" y1="184" y2="36" /><line stroke="rgb(205,0,0)" stroke-width="1" x1="313" x2="451" y1="36" y2="77" /><line stroke="rgb(255,0,0)" stroke-width="0" x1="451" x2="101" y1="77" y2="457" /><line stroke="rgb(198,0,0)" stroke-width="2" x1="101" x2="210" y1="457" y2="212" /><line stroke="rgb(205,0,0)" stroke-width="1" x1="210" x2="100" y1="212" y2="316" /><line stroke="rgb(198,0,0)" stroke-width="2" x1="100" x2="61" y1="316" y2="471" /><line stroke="rgb(198,0,0)" stroke-width="2" x1="61" x2="354" y1="471" y2="83" /><line stroke="rgb(198,0,0)" stroke-width="2" x1="354" x2="275" y1="83" y2="145" /><line stroke="rgb(198,0,0)" stroke-width="2" x1="275" x2="446" y1="145" y2="11" /><line stroke="rgb(255,0,0)" stroke-width="0" x1="446" x2="151" y1="11" y2="190" /><line stroke="rgb(198,0,0)" stroke-width="2" x1="151" x2="237" y1="190" y2="149" /><line stroke="rgb(198,0,0)" stroke-width="2" x1="237" x2="99" y1="149" y2="381" /><line stroke="rgb(198,0,0)" stroke-width="2" x1="99" x2="15" y1="381" y2="10" /><line stroke="rgb(198,0,0)" stroke-width="2" x1="15" x2="13" y1="10" y2="374" /><line stroke="rgb(255,0,0)" stroke-width="0" x1="13" x2="227" y1="374" y2="480" /><line stroke="rgb(205,0,0)" stroke-width="1" x1="227" x2="423" y1="480" y2="436" /><line stroke="rgb(255,0,0)" stroke-width="0" x1="423" x2="425" y1="436" y2="85" /><line stroke="rgb(198,0,0)" stroke-width="2" x1="425" x2="361" y1="85" y2="171" /><line stroke="rgb(255,0,0)" stroke-width="0" x1="361" x2="26" y1="171" y2="228" /><line stroke="rgb(255,0,0)" stroke-width="0" x1="26" x2="250" y1="228" y2="484" /><line stroke="rgb(255,0,0)" stroke-width="0" x1="250" x2="172" y1="484" y2="200" /><line stroke="rgb(205,0,0)" stroke-width="1" x1="172" x2="41" y1="200" y2="44" /><line stroke="rgb(205,0,0)" stroke-width="1" x1="41" x2="48" y1="44" y2="4" /><line stroke="rgb(198,0,0)" stroke-width="2" x1="48" x2="71" y1="4" y2="408" /><line stroke="rgb(198,0,0)" stroke-width="2" x1="71" x2="435" y1="408" y2="480" /><line stroke="rgb(205,0,0)" stroke-width="1" x1="435" x2="280" y1="480" y2="219" /><line stroke="rgb(198,0,0)" stroke-width="2" x1="280" x2="394" y1="219" y2="253" /><line stroke="rgb(205,0,0)" stroke-width="1" x1="394" x2="1" y1="253" y2="409" /><line stroke="rgb(255,0,0)" stroke-width="0" x1="1" x2="211" y1="409" y2="276" /><line stroke="rgb(255,0,0)" stroke-width="0" x1="211" x2="293" y1="276" y2="307" /><line stroke="rgb(255,0,0)" stroke-width="0" x1="293" x2="450" y1="307" y2="158" /><line stroke="rgb(205,0,0)" stroke-width="1" x1="450" x2="321" y1="158" y2="184" /><line stroke="rgb(255,0,0)" stroke-width="0" x1="321" x2="302" y1="184" y2="243" /><line stroke="rgb(255,0,0)" stroke-width="0" x1="302" x2="173" y1="243" y2="395" /><line stroke="rgb(255,0,0)" stroke-width="0" x1="173" x2="391" y1="395" y2="214" /><line stroke="rgb(255,0,0)" stroke-width="0" x1="391" x2="18" y1="214" y2="212" /><line stroke="rgb(198,0,0)" stroke-width="2" x1="18" x2="493" y1="212" y2="310" /><line stroke="rgb(198,0,0)" stroke-width="2" x1="493" x2="208" y1="310" y2="171" /><line stroke="rgb(205,0,0)" stroke-width="1" x1="208" x2="55" y1="171" y2="41" /><line stroke="rgb(205,0,0)" stroke-width="1" x1="55" x2="453" y1="41" y2="491" /><line stroke="rgb(198,0,0)" stroke-width="2" x1="453" x2="230" y1="491" y2="256" /><line stroke="rgb(255,0,0)" stroke-width="0" x1="230" x2="211" y1="256" y2="324" /><line stroke="rgb(255,0,0)" stroke-width="0" x1="211" x2="106" y1="324" y2="433" /><line stroke="rgb(198,0,0)" stroke-width="2" x1="106" x2="355" y1="433" y2="236" /><line stroke="rgb(205,0,0)" stroke-width="1" x1="355" x2="62" y1="236" y2="186" /><line stroke="rgb(198,0,0)" stroke-width="2" x1="62" x2="430" y1="186" y2="269" /><line stroke="rgb(205,0,0)" stroke-width="1" x1="430" x2="145" y1="269" y2="315" /><line stroke="rgb(198,0,0)" stroke-width="2" x1="145" x2="250" y1="315" y2="180" /><line stroke="rgb(255,0,0)" stroke-width="0" x1="250" x2="379" y1="180" y2="207" /><line stroke="rgb(205,0,0)" stroke-width="1" x1="379" x2="110" y1="207" y2="151" /><line stroke="rgb(255,0,0)" stroke-width="0" x1="110" x2="47" y1="151" y2="124" /><line stroke="rgb(198,0,0)" stroke-width="2" x1="47" x2="187" y1="124" y2="300" /></svg>