<?xml version="1.0" encoding="utf-8" ?>
<svg baseProfile="full" height="100%" version="1.1" width="100%" xmlns="http://www.w3.org/2000/svg" xmlns:ev="http://www.w3.org/2001/xml-events" xmlns:xlink="http://www.w3.org/1999/xlink"><defs /><rect fill="#000" height="500" width="500" x="0" y="0" /><line stroke="rgb(255,0,0)" stroke-width="1" x1="173" x2="387" y1="332" y2="457" /><line stroke="rgb(255,0,0)" stroke-width="1" x1="387" x2="173" y1="457" y2="332" /><line stroke="rgb(255,0,0)" stroke-width="1" x1="173" x2="184" y1="332" y2="492" /><line stroke="rgb(255,0,0)" stroke-width="1" x1="184" x2="408" y1="492" y2="485" /><line stroke="rgb(255,0,0)" stroke-width="1" x1="408" x2="438" y1="485" y2="38" /><line stroke="rgb(255,0,0)" stroke-width="1" x1="438" x2="1" y1="38" y2="437" /><line stroke="rgb(255,0,0)" stroke-width="1" x1="1" x2="254" y1="437" y2="24" /><line stroke="rgb(255,0,0)" stroke-width="1" x1="254" x2="452" y1="24" y2="468" /><line stroke="rgb(255,0,0)" stroke-width="1" x1="452" x2="393" y1="468" y2="174" /><line stroke="rgb(255,0,0)" stroke-width="1" x1="393" x2="415" y1="174" y2="236" /><line stroke="rgb(255,0,0)" stroke-width="1" x1="415" x2="407" y1="236" y2="477" /><line stroke="rgb(255,0,0)" stroke-width="1" x1="407" x2="186" y1="477" y2="369" /><line stroke="rgb(255,0,0)" stroke-width="1" x1="186" x2="167" y1="369" y2="94" /><line stroke="rgb(255,0,0)" stroke-width="1" x1="167" x2="407" y1="94" y2="425" /><line stroke="rgb(255,0,0)" stroke-width="1" x1="407" x2="198" y1="425" y2="395" /><line stroke="rgb(255,0,0)" stroke-width="1" x1="198" x2="294" y1="395" y2="292" /><line stroke="rgb(255,0,0)" stroke-width="1" x1="294" x2="261" y1="292" y2="167" /><line stroke="rgb(255,0,0)" stroke-width="1" x1="261" x2="478" y1="167" y2="225" /><line stroke="rgb(255,0,0)" stroke-width="1" x1="478" x2="387" y1="225" y2="468" /><line stroke="rgb(255,0,0)" stroke-width="1" x1="387" x2="386" y1="468" y2="61" /><line stroke="rgb(255,0,0)" stroke-width="1" x1="386" x2="101" y1="61" y2="444" /><line stroke="rgb(255,0,0)" stroke-width="1" x1="101" x2="71" y1="444" y2="225" /><line stroke="rgb(255,0,0)" stroke-width="1" x1="71" x2="346" y1="225" y2="214" /><line stroke="rgb(255,0,0)" stroke-width="1" x1="346" x2="477" y1="214" y2="182" /><line stroke="rgb(255,0,0)" stroke-width="1" x1="477" x2="124" y1="182" y2="262" /><line stroke="rgb(255,0,0)" stroke-width="1" x1="124" x2="354" y1="262" y2="404" /><line stroke="rgb(255,0,0)" stroke-width="1" x1="354" x2="485" y1="404" y2="299" /><line stroke="rgb(255,0,0)" stroke-width="1" x1="485" x2="331" y1="299" y2="149" /><line stroke="rgb(255,0,0)" stroke-width="1" x1="331" x2="288" y1="149" y2="432" /><line stroke="rgb(255,0,0)" stroke-width="1" x1="288" x2="212" y1="432" y2="219" /><line stroke="rgb(255,0,0)" stroke-width="1" x1="212" x2="153" y1="219" y2="27" /><line stroke="rgb(255,0,0)" stroke-width="1" x1="153" x2="343" y1="27" y2="271" /><line stroke="rgb(255,0,0)" stroke-width="1" x1="343" x2="308" y1="271" y2="150" /><line stroke="rgb(255,0,0)" stroke-width="1" x1="308" x2="2" y1="150" y2="416" /><line stroke="rgb(255,0,0)" stroke-width="1" x1="2" x2="92" y1="416" y2="261" /><line stroke="rgb(255,0,0)" stroke-width="1" x1="92" x2="175" y1="261" y2="108" /><line stroke="rgb(255,0,0)" stroke-width="1" x1="175" x2="410" y1="108" y2="167" /><line stroke="rgb(255,0,0)" stroke-width="1" x1="410" x2="248" y1="167" y2="121" /><line stroke="rgb(255,0,0)" stroke-width="1" x1="248" x2="411" y1="121" y2="94" /><line stroke="rgb(255,0,0)" stroke-width="1" x1="411" x2="104" y1="94" y2="233" /><line stroke="rgb(255,0,0)" stroke-width="1" x1="104" x2="387" y1="233" y2="457" /></svg>