<?xml version="1.0" encoding="utf-8" ?>
<svg baseProfile="full" height="100%" version="1.1" width="100%" xmlns="http://www.w3.org/2000/svg" xmlns:ev="http://www.w3.org/2001/xml-events" xmlns:xlink="http://www.w3.org/1999/xlink"><defs /><line stroke="rgb(100%,0%,0%)" x1="383" x2="344" y1="375" y2="261" /><line stroke="rgb(100%,0%,0%)" x1="344" x2="330" y1="261" y2="102" /><line stroke="rgb(100%,0%,0%)" x1="330" x2="219" y1="102" y2="196" /><line stroke="rgb(100%,0%,0%)" x1="219" x2="222" y1="196" y2="77" /><line stroke="rgb(100%,0%,0%)" x1="222" x2="160" y1="77" y2="314" /><line stroke="rgb(100%,0%,0%)" x1="160" x2="435" y1="314" y2="451" /><line stroke="rgb(100%,0%,0%)" x1="435" x2="340" y1="451" y2="184" /><line stroke="rgb(100%,0%,0%)" x1="340" x2="283" y1="184" y2="316" /><line stroke="rgb(100%,0%,0%)" x1="283" x2="410" y1="316" y2="331" /><line stroke="rgb(100%,0%,0%)" x1="410" x2="440" y1="331" y2="368" /><line stroke="rgb(100%,0%,0%)" x1="440" x2="237" y1="368" y2="417" /><line stroke="rgb(100%,0%,0%)" x1="237" x2="101" y1="417" y2="5" /><line stroke="rgb(100%,0%,0%)" x1="101" x2="135" y1="5" y2="138" /><line stroke="rgb(100%,0%,0%)" x1="135" x2="88" y1="138" y2="396" /><line stroke="rgb(100%,0%,0%)" x1="88" x2="57" y1="396" y2="219" /><line stroke="rgb(100%,0%,0%)" x1="57" x2="413" y1="219" y2="373" /><line stroke="rgb(100%,0%,0%)" x1="413" x2="35" y1="373" y2="418" /><line stroke="rgb(100%,0%,0%)" x1="35" x2="43" y1="418" y2="177" /><line stroke="rgb(100%,0%,0%)" x1="43" x2="80" y1="177" y2="326" /><line stroke="rgb(100%,0%,0%)" x1="80" x2="494" y1="326" y2="399" /><line stroke="rgb(100%,0%,0%)" x1="494" x2="277" y1="399" y2="89" /><line stroke="rgb(100%,0%,0%)" x1="277" x2="466" y1="89" y2="434" /><line stroke="rgb(100%,0%,0%)" x1="466" x2="17" y1="434" y2="2" /><line stroke="rgb(100%,0%,0%)" x1="17" x2="265" y1="2" y2="83" /><line stroke="rgb(100%,0%,0%)" x1="265" x2="280" y1="83" y2="278" /><line stroke="rgb(100%,0%,0%)" x1="280" x2="264" y1="278" y2="286" /><line stroke="rgb(100%,0%,0%)" x1="264" x2="283" y1="286" y2="396" /><line stroke="rgb(100%,0%,0%)" x1="283" x2="238" y1="396" y2="126" /><line stroke="rgb(100%,0%,0%)" x1="238" x2="125" y1="126" y2="112" /><line stroke="rgb(100%,0%,0%)" x1="125" x2="397" y1="112" y2="169" /><line stroke="rgb(100%,0%,0%)" x1="397" x2="450" y1="169" y2="471" /><line stroke="rgb(100%,0%,0%)" x1="450" x2="87" y1="471" y2="401" /><line stroke="rgb(100%,0%,0%)" x1="87" x2="256" y1="401" y2="80" /><line stroke="rgb(100%,0%,0%)" x1="256" x2="191" y1="80" y2="479" /><line stroke="rgb(100%,0%,0%)" x1="191" x2="190" y1="479" y2="100" /><line stroke="rgb(100%,0%,0%)" x1="190" x2="254" y1="100" y2="281" /><line stroke="rgb(100%,0%,0%)" x1="254" x2="153" y1="281" y2="83" /><line stroke="rgb(100%,0%,0%)" x1="153" x2="434" y1="83" y2="9" /><line stroke="rgb(100%,0%,0%)" x1="434" x2="421" y1="9" y2="51" /><line stroke="rgb(100%,0%,0%)" x1="421" x2="136" y1="51" y2="151" /><line stroke="rgb(100%,0%,0%)" x1="136" x2="441" y1="151" y2="392" /><line stroke="rgb(100%,0%,0%)" x1="441" x2="117" y1="392" y2="297" /><line stroke="rgb(100%,0%,0%)" x1="117" x2="454" y1="297" y2="95" /><line stroke="rgb(100%,0%,0%)" x1="454" x2="59" y1="95" y2="20" /><line stroke="rgb(100%,0%,0%)" x1="59" x2="228" y1="20" y2="130" /></svg>