<?xml version="1.0" encoding="utf-8" ?>
<svg baseProfile="full" height="100%" version="1.1" width="100%" xmlns="http://www.w3.org/2000/svg" xmlns:ev="http://www.w3.org/2001/xml-events" xmlns:xlink="http://www.w3.org/1999/xlink"><defs /><rect fill="#000" height="500" width="500" x="0" y="0" /><line stroke="rgb(100%,0%,0%)" stroke-width="1" x1="305" x2="192" y1="380" y2="232" /><line stroke="rgb(100%,0%,0%)" stroke-width="1" x1="192" x2="5" y1="232" y2="5" /><line stroke="rgb(100%,0%,0%)" stroke-width="1" x1="5" x2="493" y1="5" y2="14" /><line stroke="rgb(100%,0%,0%)" stroke-width="2" x1="493" x2="185" y1="14" y2="418" /><line stroke="rgb(100%,0%,0%)" stroke-width="1" x1="185" x2="34" y1="418" y2="39" /><line stroke="rgb(100%,0%,0%)" stroke-width="0" x1="34" x2="276" y1="39" y2="499" /><line stroke="rgb(100%,0%,0%)" stroke-width="2" x1="276" x2="221" y1="499" y2="467" /><line stroke="rgb(100%,0%,0%)" stroke-width="2" x1="221" x2="280" y1="467" y2="135" /><line stroke="rgb(100%,0%,0%)" stroke-width="1" x1="280" x2="5" y1="135" y2="411" /><line stroke="rgb(100%,0%,0%)" stroke-width="0" x1="5" x2="121" y1="411" y2="464" /><line stroke="rgb(100%,0%,0%)" stroke-width="0" x1="121" x2="162" y1="464" y2="134" /><line stroke="rgb(100%,0%,0%)" stroke-width="0" x1="162" x2="300" y1="134" y2="386" /><line stroke="rgb(100%,0%,0%)" stroke-width="1" x1="300" x2="360" y1="386" y2="219" /><line stroke="rgb(100%,0%,0%)" stroke-width="0" x1="360" x2="5" y1="219" y2="27" /><line stroke="rgb(100%,0%,0%)" stroke-width="1" x1="5" x2="280" y1="27" y2="479" /><line stroke="rgb(100%,0%,0%)" stroke-width="1" x1="280" x2="481" y1="479" y2="128" /><line stroke="rgb(100%,0%,0%)" stroke-width="0" x1="481" x2="282" y1="128" y2="90" /><line stroke="rgb(100%,0%,0%)" stroke-width="1" x1="282" x2="225" y1="90" y2="36" /><line stroke="rgb(100%,0%,0%)" stroke-width="0" x1="225" x2="499" y1="36" y2="75" /><line stroke="rgb(100%,0%,0%)" stroke-width="2" x1="499" x2="268" y1="75" y2="342" /><line stroke="rgb(100%,0%,0%)" stroke-width="2" x1="268" x2="396" y1="342" y2="3" /><line stroke="rgb(100%,0%,0%)" stroke-width="0" x1="396" x2="5" y1="3" y2="322" /><line stroke="rgb(100%,0%,0%)" stroke-width="1" x1="5" x2="433" y1="322" y2="34" /><line stroke="rgb(100%,0%,0%)" stroke-width="0" x1="433" x2="459" y1="34" y2="22" /><line stroke="rgb(100%,0%,0%)" stroke-width="2" x1="459" x2="24" y1="22" y2="57" /><line stroke="rgb(100%,0%,0%)" stroke-width="1" x1="24" x2="468" y1="57" y2="116" /><line stroke="rgb(100%,0%,0%)" stroke-width="2" x1="468" x2="53" y1="116" y2="418" /><line stroke="rgb(100%,0%,0%)" stroke-width="1" x1="53" x2="457" y1="418" y2="228" /><line stroke="rgb(100%,0%,0%)" stroke-width="2" x1="457" x2="20" y1="228" y2="174" /><line stroke="rgb(100%,0%,0%)" stroke-width="0" x1="20" x2="439" y1="174" y2="301" /><line stroke="rgb(100%,0%,0%)" stroke-width="1" x1="439" x2="157" y1="301" y2="321" /><line stroke="rgb(100%,0%,0%)" stroke-width="1" x1="157" x2="245" y1="321" y2="410" /><line stroke="rgb(100%,0%,0%)" stroke-width="0" x1="245" x2="203" y1="410" y2="245" /><line stroke="rgb(100%,0%,0%)" stroke-width="2" x1="203" x2="492" y1="245" y2="484" /><line stroke="rgb(100%,0%,0%)" stroke-width="2" x1="492" x2="464" y1="484" y2="81" /><line stroke="rgb(100%,0%,0%)" stroke-width="0" x1="464" x2="47" y1="81" y2="358" /><line stroke="rgb(100%,0%,0%)" stroke-width="2" x1="47" x2="354" y1="358" y2="366" /><line stroke="rgb(100%,0%,0%)" stroke-width="0" x1="354" x2="462" y1="366" y2="141" /><line stroke="rgb(100%,0%,0%)" stroke-width="2" x1="462" x2="363" y1="141" y2="414" /><line stroke="rgb(100%,0%,0%)" stroke-width="1" x1="363" x2="39" y1="414" y2="168" /><line stroke="rgb(100%,0%,0%)" stroke-width="0" x1="39" x2="252" y1="168" y2="11" /><line stroke="rgb(100%,0%,0%)" stroke-width="2" x1="252" x2="429" y1="11" y2="497" /><line stroke="rgb(100%,0%,0%)" stroke-width="0" x1="429" x2="111" y1="497" y2="46" /><line stroke="rgb(100%,0%,0%)" stroke-width="0" x1="111" x2="388" y1="46" y2="87" /><line stroke="rgb(100%,0%,0%)" stroke-width="2" x1="388" x2="319" y1="87" y2="222" /><line stroke="rgb(100%,0%,0%)" stroke-width="2" x1="319" x2="110" y1="222" y2="220" /><line stroke="rgb(100%,0%,0%)" stroke-width="2" x1="110" x2="292" y1="220" y2="215" /><line stroke="rgb(100%,0%,0%)" stroke-width="1" x1="292" x2="34" y1="215" y2="477" /><line stroke="rgb(100%,0%,0%)" stroke-width="2" x1="34" x2="243" y1="477" y2="312" /><line stroke="rgb(100%,0%,0%)" stroke-width="2" x1="243" x2="116" y1="312" y2="226" /><line stroke="rgb(100%,0%,0%)" stroke-width="1" x1="116" x2="24" y1="226" y2="246" /><line stroke="rgb(100%,0%,0%)" stroke-width="2" x1="24" x2="406" y1="246" y2="143" /><line stroke="rgb(100%,0%,0%)" stroke-width="1" x1="406" x2="17" y1="143" y2="461" /><line stroke="rgb(100%,0%,0%)" stroke-width="1" x1="17" x2="356" y1="461" y2="151" /><line stroke="rgb(100%,0%,0%)" stroke-width="0" x1="356" x2="124" y1="151" y2="284" /><line stroke="rgb(100%,0%,0%)" stroke-width="0" x1="124" x2="421" y1="284" y2="336" /><line stroke="rgb(100%,0%,0%)" stroke-width="2" x1="421" x2="189" y1="336" y2="261" /><line stroke="rgb(100%,0%,0%)" stroke-width="0" x1="189" x2="449" y1="261" y2="475" /><line stroke="rgb(100%,0%,0%)" stroke-width="2" x1="449" x2="332" y1="475" y2="372" /><line stroke="rgb(100%,0%,0%)" stroke-width="1" x1="332" x2="183" y1="372" y2="23" /><line stroke="rgb(100%,0%,0%)" stroke-width="2" x1="183" x2="172" y1="23" y2="63" /><line stroke="rgb(100%,0%,0%)" stroke-width="1" x1="172" x2="154" y1="63" y2="349" /><line stroke="rgb(100%,0%,0%)" stroke-width="1" x1="154" x2="149" y1="349" y2="39" /><line stroke="rgb(100%,0%,0%)" stroke-width="2" x1="149" x2="183" y1="39" y2="126" /><line stroke="rgb(100%,0%,0%)" stroke-width="1" x1="183" x2="443" y1="126" y2="465" /><line stroke="rgb(100%,0%,0%)" stroke-width="1" x1="443" x2="176" y1="465" y2="449" /><line stroke="rgb(100%,0%,0%)" stroke-width="2" x1="176" x2="470" y1="449" y2="261" /><line stroke="rgb(100%,0%,0%)" stroke-width="2" x1="470" x2="423" y1="261" y2="450" /><line stroke="rgb(100%,0%,0%)" stroke-width="1" x1="423" x2="385" y1="450" y2="128" /><line stroke="rgb(100%,0%,0%)" stroke-width="0" x1="385" x2="4" y1="128" y2="475" /><line stroke="rgb(100%,0%,0%)" stroke-width="2" x1="4" x2="471" y1="475" y2="237" /><line stroke="rgb(100%,0%,0%)" stroke-width="2" x1="471" x2="263" y1="237" y2="457" /><line stroke="rgb(100%,0%,0%)" stroke-width="1" x1="263" x2="18" y1="457" y2="73" /><line stroke="rgb(100%,0%,0%)" stroke-width="2" x1="18" x2="367" y1="73" y2="68" /><line stroke="rgb(100%,0%,0%)" stroke-width="0" x1="367" x2="456" y1="68" y2="106" /><line stroke="rgb(100%,0%,0%)" stroke-width="0" x1="456" x2="453" y1="106" y2="288" /><line stroke="rgb(100%,0%,0%)" stroke-width="0" x1="453" x2="179" y1="288" y2="343" /><line stroke="rgb(100%,0%,0%)" stroke-width="1" x1="179" x2="378" y1="343" y2="395" /><line stroke="rgb(100%,0%,0%)" stroke-width="0" x1="378" x2="216" y1="395" y2="237" /><line stroke="rgb(100%,0%,0%)" stroke-width="2" x1="216" x2="459" y1="237" y2="366" /><line stroke="rgb(100%,0%,0%)" stroke-width="2" x1="459" x2="254" y1="366" y2="147" /><line stroke="rgb(100%,0%,0%)" stroke-width="1" x1="254" x2="227" y1="147" y2="233" /><line stroke="rgb(100%,0%,0%)" stroke-width="1" x1="227" x2="13" y1="233" y2="440" /><line stroke="rgb(100%,0%,0%)" stroke-width="1" x1="13" x2="467" y1="440" y2="407" /><line stroke="rgb(100%,0%,0%)" stroke-width="0" x1="467" x2="63" y1="407" y2="422" /><line stroke="rgb(100%,0%,0%)" stroke-width="1" x1="63" x2="88" y1="422" y2="208" /><line stroke="rgb(100%,0%,0%)" stroke-width="1" x1="88" x2="118" y1="208" y2="214" /><line stroke="rgb(100%,0%,0%)" stroke-width="1" x1="118" x2="373" y1="214" y2="84" /><line stroke="rgb(100%,0%,0%)" stroke-width="2" x1="373" x2="311" y1="84" y2="276" /><line stroke="rgb(100%,0%,0%)" stroke-width="0" x1="311" x2="392" y1="276" y2="378" /><line stroke="rgb(100%,0%,0%)" stroke-width="1" x1="392" x2="444" y1="378" y2="5" /><line stroke="rgb(100%,0%,0%)" stroke-width="1" x1="444" x2="76" y1="5" y2="484" /><line stroke="rgb(100%,0%,0%)" stroke-width="0" x1="76" x2="465" y1="484" y2="374" /><line stroke="rgb(100%,0%,0%)" stroke-width="0" x1="465" x2="359" y1="374" y2="454" /><line stroke="rgb(100%,0%,0%)" stroke-width="0" x1="359" x2="246" y1="454" y2="491" /><line stroke="rgb(100%,0%,0%)" stroke-width="0" x1="246" x2="241" y1="491" y2="487" /><line stroke="rgb(100%,0%,0%)" stroke-width="0" x1="241" x2="95" y1="487" y2="282" /><line stroke="rgb(100%,0%,0%)" stroke-width="1" x1="95" x2="343" y1="282" y2="51" /><line stroke="rgb(100%,0%,0%)" stroke-width="2" x1="343" x2="357" y1="51" y2="220" /><line stroke="rgb(100%,0%,0%)" stroke-width="2" x1="357" x2="315" y1="220" y2="478" /></svg>