<?xml version="1.0" encoding="utf-8" ?>
<svg baseProfile="full" height="100%" version="1.1" width="100%" xmlns="http://www.w3.org/2000/svg" xmlns:ev="http://www.w3.org/2001/xml-events" xmlns:xlink="http://www.w3.org/1999/xlink"><defs /><rect fill="#000" height="500" width="500" x="0" y="0" /><line stroke="rgb(100%,0%,0%)" stroke-width="2" x1="76" x2="242" y1="385" y2="179" /><line stroke="rgb(100%,0%,0%)" stroke-width="2" x1="242" x2="408" y1="179" y2="413" /><line stroke="rgb(100%,0%,0%)" stroke-width="2" x1="408" x2="319" y1="413" y2="466" /><line stroke="rgb(100%,0%,0%)" stroke-width="2" x1="319" x2="273" y1="466" y2="439" /><line stroke="rgb(100%,0%,0%)" stroke-width="2" x1="273" x2="366" y1="439" y2="496" /><line stroke="rgb(100%,0%,0%)" stroke-width="2" x1="366" x2="158" y1="496" y2="162" /><line stroke="rgb(100%,0%,0%)" stroke-width="2" x1="158" x2="375" y1="162" y2="88" /><line stroke="rgb(100%,0%,0%)" stroke-width="2" x1="375" x2="262" y1="88" y2="415" /><line stroke="rgb(100%,0%,0%)" stroke-width="2" x1="262" x2="417" y1="415" y2="84" /><line stroke="rgb(100%,0%,0%)" stroke-width="2" x1="417" x2="288" y1="84" y2="331" /><line stroke="rgb(100%,0%,0%)" stroke-width="2" x1="288" x2="241" y1="331" y2="411" /><line stroke="rgb(100%,0%,0%)" stroke-width="2" x1="241" x2="319" y1="411" y2="443" /><line stroke="rgb(100%,0%,0%)" stroke-width="2" x1="319" x2="432" y1="443" y2="393" /><line stroke="rgb(100%,0%,0%)" stroke-width="2" x1="432" x2="174" y1="393" y2="93" /><line stroke="rgb(100%,0%,0%)" stroke-width="2" x1="174" x2="453" y1="93" y2="408" /><line stroke="rgb(100%,0%,0%)" stroke-width="2" x1="453" x2="443" y1="408" y2="123" /><line stroke="rgb(100%,0%,0%)" stroke-width="2" x1="443" x2="474" y1="123" y2="255" /><line stroke="rgb(100%,0%,0%)" stroke-width="2" x1="474" x2="151" y1="255" y2="329" /><line stroke="rgb(100%,0%,0%)" stroke-width="2" x1="151" x2="220" y1="329" y2="288" /><line stroke="rgb(100%,0%,0%)" stroke-width="2" x1="220" x2="86" y1="288" y2="405" /><line stroke="rgb(100%,0%,0%)" stroke-width="2" x1="86" x2="441" y1="405" y2="57" /><line stroke="rgb(100%,0%,0%)" stroke-width="2" x1="441" x2="33" y1="57" y2="131" /><line stroke="rgb(100%,0%,0%)" stroke-width="2" x1="33" x2="460" y1="131" y2="166" /><line stroke="rgb(100%,0%,0%)" stroke-width="2" x1="460" x2="260" y1="166" y2="270" /><line stroke="rgb(100%,0%,0%)" stroke-width="2" x1="260" x2="215" y1="270" y2="373" /><line stroke="rgb(100%,0%,0%)" stroke-width="2" x1="215" x2="67" y1="373" y2="93" /><line stroke="rgb(100%,0%,0%)" stroke-width="2" x1="67" x2="26" y1="93" y2="109" /><line stroke="rgb(100%,0%,0%)" stroke-width="2" x1="26" x2="216" y1="109" y2="229" /><line stroke="rgb(100%,0%,0%)" stroke-width="2" x1="216" x2="114" y1="229" y2="299" /><line stroke="rgb(100%,0%,0%)" stroke-width="2" x1="114" x2="219" y1="299" y2="311" /><line stroke="rgb(100%,0%,0%)" stroke-width="2" x1="219" x2="239" y1="311" y2="70" /><line stroke="rgb(100%,0%,0%)" stroke-width="2" x1="239" x2="476" y1="70" y2="224" /><line stroke="rgb(100%,0%,0%)" stroke-width="2" x1="476" x2="24" y1="224" y2="170" /><line stroke="rgb(100%,0%,0%)" stroke-width="2" x1="24" x2="470" y1="170" y2="288" /><line stroke="rgb(100%,0%,0%)" stroke-width="2" x1="470" x2="349" y1="288" y2="337" /><line stroke="rgb(100%,0%,0%)" stroke-width="2" x1="349" x2="298" y1="337" y2="420" /><line stroke="rgb(100%,0%,0%)" stroke-width="2" x1="298" x2="498" y1="420" y2="300" /><line stroke="rgb(100%,0%,0%)" stroke-width="2" x1="498" x2="15" y1="300" y2="107" /><line stroke="rgb(100%,0%,0%)" stroke-width="2" x1="15" x2="321" y1="107" y2="46" /><line stroke="rgb(100%,0%,0%)" stroke-width="2" x1="321" x2="437" y1="46" y2="419" /><line stroke="rgb(100%,0%,0%)" stroke-width="2" x1="437" x2="253" y1="419" y2="115" /><line stroke="rgb(100%,0%,0%)" stroke-width="2" x1="253" x2="282" y1="115" y2="383" /><line stroke="rgb(100%,0%,0%)" stroke-width="2" x1="282" x2="344" y1="383" y2="314" /><line stroke="rgb(100%,0%,0%)" stroke-width="2" x1="344" x2="226" y1="314" y2="232" /><line stroke="rgb(100%,0%,0%)" stroke-width="2" x1="226" x2="31" y1="232" y2="153" /></svg>