<?xml version="1.0" encoding="utf-8" ?>
<svg baseProfile="full" height="100%" version="1.1" width="100%" xmlns="http://www.w3.org/2000/svg" xmlns:ev="http://www.w3.org/2001/xml-events" xmlns:xlink="http://www.w3.org/1999/xlink"><defs /><line stroke="rgb(100%,0%,0%)" x1="281" x2="136" y1="265" y2="443" /><line stroke="rgb(100%,0%,0%)" x1="136" x2="455" y1="443" y2="328" /><line stroke="rgb(100%,0%,0%)" x1="455" x2="322" y1="328" y2="25" /><line stroke="rgb(100%,0%,0%)" x1="322" x2="281" y1="25" y2="103" /><line stroke="rgb(100%,0%,0%)" x1="281" x2="112" y1="103" y2="348" /><line stroke="rgb(100%,0%,0%)" x1="112" x2="22" y1="348" y2="243" /><line stroke="rgb(100%,0%,0%)" x1="22" x2="126" y1="243" y2="128" /><line stroke="rgb(100%,0%,0%)" x1="126" x2="42" y1="128" y2="148" /><line stroke="rgb(100%,0%,0%)" x1="42" x2="365" y1="148" y2="54" /><line stroke="rgb(100%,0%,0%)" x1="365" x2="144" y1="54" y2="457" /><line stroke="rgb(100%,0%,0%)" x1="144" x2="291" y1="457" y2="486" /><line stroke="rgb(100%,0%,0%)" x1="291" x2="38" y1="486" y2="414" /><line stroke="rgb(100%,0%,0%)" x1="38" x2="497" y1="414" y2="94" /><line stroke="rgb(100%,0%,0%)" x1="497" x2="116" y1="94" y2="101" /><line stroke="rgb(100%,0%,0%)" x1="116" x2="334" y1="101" y2="42" /><line stroke="rgb(100%,0%,0%)" x1="334" x2="95" y1="42" y2="167" /><line stroke="rgb(100%,0%,0%)" x1="95" x2="183" y1="167" y2="56" /><line stroke="rgb(100%,0%,0%)" x1="183" x2="248" y1="56" y2="46" /><line stroke="rgb(100%,0%,0%)" x1="248" x2="354" y1="46" y2="2" /><line stroke="rgb(100%,0%,0%)" x1="354" x2="378" y1="2" y2="473" /><line stroke="rgb(100%,0%,0%)" x1="378" x2="14" y1="473" y2="373" /><line stroke="rgb(100%,0%,0%)" x1="14" x2="141" y1="373" y2="290" /><line stroke="rgb(100%,0%,0%)" x1="141" x2="255" y1="290" y2="481" /><line stroke="rgb(100%,0%,0%)" x1="255" x2="491" y1="481" y2="145" /><line stroke="rgb(100%,0%,0%)" x1="491" x2="424" y1="145" y2="282" /><line stroke="rgb(100%,0%,0%)" x1="424" x2="419" y1="282" y2="415" /><line stroke="rgb(100%,0%,0%)" x1="419" x2="272" y1="415" y2="139" /><line stroke="rgb(100%,0%,0%)" x1="272" x2="192" y1="139" y2="169" /><line stroke="rgb(100%,0%,0%)" x1="192" x2="18" y1="169" y2="115" /><line stroke="rgb(100%,0%,0%)" x1="18" x2="414" y1="115" y2="200" /><line stroke="rgb(100%,0%,0%)" x1="414" x2="157" y1="200" y2="51" /><line stroke="rgb(100%,0%,0%)" x1="157" x2="50" y1="51" y2="296" /><line stroke="rgb(100%,0%,0%)" x1="50" x2="125" y1="296" y2="122" /><line stroke="rgb(100%,0%,0%)" x1="125" x2="335" y1="122" y2="249" /><line stroke="rgb(100%,0%,0%)" x1="335" x2="81" y1="249" y2="497" /><line stroke="rgb(100%,0%,0%)" x1="81" x2="403" y1="497" y2="286" /><line stroke="rgb(100%,0%,0%)" x1="403" x2="381" y1="286" y2="380" /><line stroke="rgb(100%,0%,0%)" x1="381" x2="244" y1="380" y2="444" /><line stroke="rgb(100%,0%,0%)" x1="244" x2="427" y1="444" y2="229" /><line stroke="rgb(100%,0%,0%)" x1="427" x2="488" y1="229" y2="181" /><line stroke="rgb(100%,0%,0%)" x1="488" x2="119" y1="181" y2="417" /><line stroke="rgb(100%,0%,0%)" x1="119" x2="460" y1="417" y2="253" /><line stroke="rgb(100%,0%,0%)" x1="460" x2="132" y1="253" y2="463" /><line stroke="rgb(100%,0%,0%)" x1="132" x2="104" y1="463" y2="461" /><line stroke="rgb(100%,0%,0%)" x1="104" x2="127" y1="461" y2="205" /></svg>