<?xml version="1.0" encoding="utf-8" ?>
<svg baseProfile="full" height="100%" version="1.1" width="100%" xmlns="http://www.w3.org/2000/svg" xmlns:ev="http://www.w3.org/2001/xml-events" xmlns:xlink="http://www.w3.org/1999/xlink"><defs /><rect fill="#000" height="500" width="500" x="0" y="0" /><line stroke="rgb(100%,0%,0%)" stroke-width="2" x1="58" x2="90" y1="124" y2="468" /><line stroke="rgb(100%,0%,0%)" stroke-width="1" x1="90" x2="121" y1="468" y2="76" /><line stroke="rgb(100%,0%,0%)" stroke-width="2" x1="121" x2="133" y1="76" y2="336" /><line stroke="rgb(100%,0%,0%)" stroke-width="2" x1="133" x2="233" y1="336" y2="361" /><line stroke="rgb(100%,0%,0%)" stroke-width="1" x1="233" x2="477" y1="361" y2="281" /><line stroke="rgb(100%,0%,0%)" stroke-width="1" x1="477" x2="336" y1="281" y2="130" /><line stroke="rgb(100%,0%,0%)" stroke-width="0" x1="336" x2="45" y1="130" y2="320" /><line stroke="rgb(100%,0%,0%)" stroke-width="2" x1="45" x2="300" y1="320" y2="441" /><line stroke="rgb(100%,0%,0%)" stroke-width="1" x1="300" x2="500" y1="441" y2="247" /><line stroke="rgb(100%,0%,0%)" stroke-width="1" x1="500" x2="201" y1="247" y2="190" /><line stroke="rgb(100%,0%,0%)" stroke-width="0" x1="201" x2="498" y1="190" y2="212" /><line stroke="rgb(100%,0%,0%)" stroke-width="2" x1="498" x2="25" y1="212" y2="83" /><line stroke="rgb(100%,0%,0%)" stroke-width="2" x1="25" x2="463" y1="83" y2="392" /><line stroke="rgb(100%,0%,0%)" stroke-width="0" x1="463" x2="56" y1="392" y2="482" /><line stroke="rgb(100%,0%,0%)" stroke-width="2" x1="56" x2="436" y1="482" y2="259" /><line stroke="rgb(100%,0%,0%)" stroke-width="0" x1="436" x2="9" y1="259" y2="278" /><line stroke="rgb(100%,0%,0%)" stroke-width="0" x1="9" x2="181" y1="278" y2="177" /><line stroke="rgb(100%,0%,0%)" stroke-width="0" x1="181" x2="3" y1="177" y2="380" /><line stroke="rgb(100%,0%,0%)" stroke-width="1" x1="3" x2="301" y1="380" y2="275" /><line stroke="rgb(100%,0%,0%)" stroke-width="1" x1="301" x2="182" y1="275" y2="317" /><line stroke="rgb(100%,0%,0%)" stroke-width="2" x1="182" x2="339" y1="317" y2="430" /><line stroke="rgb(100%,0%,0%)" stroke-width="2" x1="339" x2="380" y1="430" y2="425" /><line stroke="rgb(100%,0%,0%)" stroke-width="0" x1="380" x2="444" y1="425" y2="436" /><line stroke="rgb(100%,0%,0%)" stroke-width="0" x1="444" x2="8" y1="436" y2="291" /><line stroke="rgb(100%,0%,0%)" stroke-width="1" x1="8" x2="140" y1="291" y2="200" /><line stroke="rgb(100%,0%,0%)" stroke-width="0" x1="140" x2="398" y1="200" y2="301" /><line stroke="rgb(100%,0%,0%)" stroke-width="0" x1="398" x2="353" y1="301" y2="427" /><line stroke="rgb(100%,0%,0%)" stroke-width="0" x1="353" x2="284" y1="427" y2="152" /><line stroke="rgb(100%,0%,0%)" stroke-width="2" x1="284" x2="143" y1="152" y2="375" /><line stroke="rgb(100%,0%,0%)" stroke-width="1" x1="143" x2="246" y1="375" y2="129" /><line stroke="rgb(100%,0%,0%)" stroke-width="2" x1="246" x2="13" y1="129" y2="143" /><line stroke="rgb(100%,0%,0%)" stroke-width="2" x1="13" x2="72" y1="143" y2="463" /><line stroke="rgb(100%,0%,0%)" stroke-width="2" x1="72" x2="155" y1="463" y2="426" /><line stroke="rgb(100%,0%,0%)" stroke-width="0" x1="155" x2="141" y1="426" y2="319" /><line stroke="rgb(100%,0%,0%)" stroke-width="0" x1="141" x2="53" y1="319" y2="489" /><line stroke="rgb(100%,0%,0%)" stroke-width="0" x1="53" x2="179" y1="489" y2="58" /><line stroke="rgb(100%,0%,0%)" stroke-width="0" x1="179" x2="195" y1="58" y2="300" /><line stroke="rgb(100%,0%,0%)" stroke-width="2" x1="195" x2="226" y1="300" y2="349" /><line stroke="rgb(100%,0%,0%)" stroke-width="0" x1="226" x2="212" y1="349" y2="232" /><line stroke="rgb(100%,0%,0%)" stroke-width="0" x1="212" x2="208" y1="232" y2="296" /><line stroke="rgb(100%,0%,0%)" stroke-width="0" x1="208" x2="315" y1="296" y2="371" /><line stroke="rgb(100%,0%,0%)" stroke-width="0" x1="315" x2="322" y1="371" y2="355" /><line stroke="rgb(100%,0%,0%)" stroke-width="0" x1="322" x2="279" y1="355" y2="163" /><line stroke="rgb(100%,0%,0%)" stroke-width="0" x1="279" x2="119" y1="163" y2="12" /><line stroke="rgb(100%,0%,0%)" stroke-width="1" x1="119" x2="488" y1="12" y2="340" /><line stroke="rgb(100%,0%,0%)" stroke-width="0" x1="488" x2="236" y1="340" y2="456" /><line stroke="rgb(100%,0%,0%)" stroke-width="1" x1="236" x2="121" y1="456" y2="411" /><line stroke="rgb(100%,0%,0%)" stroke-width="0" x1="121" x2="260" y1="411" y2="26" /><line stroke="rgb(100%,0%,0%)" stroke-width="0" x1="260" x2="186" y1="26" y2="242" /><line stroke="rgb(100%,0%,0%)" stroke-width="2" x1="186" x2="141" y1="242" y2="207" /><line stroke="rgb(100%,0%,0%)" stroke-width="2" x1="141" x2="13" y1="207" y2="267" /><line stroke="rgb(100%,0%,0%)" stroke-width="1" x1="13" x2="161" y1="267" y2="11" /><line stroke="rgb(100%,0%,0%)" stroke-width="2" x1="161" x2="385" y1="11" y2="44" /><line stroke="rgb(100%,0%,0%)" stroke-width="1" x1="385" x2="61" y1="44" y2="48" /><line stroke="rgb(100%,0%,0%)" stroke-width="0" x1="61" x2="191" y1="48" y2="263" /><line stroke="rgb(100%,0%,0%)" stroke-width="0" x1="191" x2="39" y1="263" y2="106" /><line stroke="rgb(100%,0%,0%)" stroke-width="1" x1="39" x2="319" y1="106" y2="285" /><line stroke="rgb(100%,0%,0%)" stroke-width="0" x1="319" x2="22" y1="285" y2="256" /><line stroke="rgb(100%,0%,0%)" stroke-width="2" x1="22" x2="161" y1="256" y2="60" /><line stroke="rgb(100%,0%,0%)" stroke-width="2" x1="161" x2="161" y1="60" y2="202" /><line stroke="rgb(100%,0%,0%)" stroke-width="2" x1="161" x2="136" y1="202" y2="116" /><line stroke="rgb(100%,0%,0%)" stroke-width="1" x1="136" x2="416" y1="116" y2="340" /><line stroke="rgb(100%,0%,0%)" stroke-width="2" x1="416" x2="391" y1="340" y2="222" /><line stroke="rgb(100%,0%,0%)" stroke-width="0" x1="391" x2="281" y1="222" y2="232" /><line stroke="rgb(100%,0%,0%)" stroke-width="1" x1="281" x2="7" y1="232" y2="327" /><line stroke="rgb(100%,0%,0%)" stroke-width="1" x1="7" x2="375" y1="327" y2="24" /><line stroke="rgb(100%,0%,0%)" stroke-width="1" x1="375" x2="130" y1="24" y2="104" /><line stroke="rgb(100%,0%,0%)" stroke-width="2" x1="130" x2="65" y1="104" y2="369" /><line stroke="rgb(100%,0%,0%)" stroke-width="2" x1="65" x2="476" y1="369" y2="362" /><line stroke="rgb(100%,0%,0%)" stroke-width="1" x1="476" x2="271" y1="362" y2="244" /><line stroke="rgb(100%,0%,0%)" stroke-width="1" x1="271" x2="121" y1="244" y2="185" /><line stroke="rgb(100%,0%,0%)" stroke-width="2" x1="121" x2="169" y1="185" y2="374" /><line stroke="rgb(100%,0%,0%)" stroke-width="0" x1="169" x2="480" y1="374" y2="178" /><line stroke="rgb(100%,0%,0%)" stroke-width="1" x1="480" x2="3" y1="178" y2="71" /><line stroke="rgb(100%,0%,0%)" stroke-width="0" x1="3" x2="428" y1="71" y2="338" /><line stroke="rgb(100%,0%,0%)" stroke-width="2" x1="428" x2="378" y1="338" y2="52" /><line stroke="rgb(100%,0%,0%)" stroke-width="0" x1="378" x2="100" y1="52" y2="485" /><line stroke="rgb(100%,0%,0%)" stroke-width="1" x1="100" x2="50" y1="485" y2="166" /><line stroke="rgb(100%,0%,0%)" stroke-width="1" x1="50" x2="186" y1="166" y2="67" /><line stroke="rgb(100%,0%,0%)" stroke-width="0" x1="186" x2="234" y1="67" y2="200" /><line stroke="rgb(100%,0%,0%)" stroke-width="2" x1="234" x2="310" y1="200" y2="6" /><line stroke="rgb(100%,0%,0%)" stroke-width="0" x1="310" x2="440" y1="6" y2="261" /><line stroke="rgb(100%,0%,0%)" stroke-width="0" x1="440" x2="236" y1="261" y2="397" /><line stroke="rgb(100%,0%,0%)" stroke-width="2" x1="236" x2="64" y1="397" y2="190" /><line stroke="rgb(100%,0%,0%)" stroke-width="2" x1="64" x2="410" y1="190" y2="220" /><line stroke="rgb(100%,0%,0%)" stroke-width="1" x1="410" x2="119" y1="220" y2="331" /><line stroke="rgb(100%,0%,0%)" stroke-width="1" x1="119" x2="436" y1="331" y2="8" /><line stroke="rgb(100%,0%,0%)" stroke-width="2" x1="436" x2="165" y1="8" y2="80" /><line stroke="rgb(100%,0%,0%)" stroke-width="0" x1="165" x2="55" y1="80" y2="490" /><line stroke="rgb(100%,0%,0%)" stroke-width="2" x1="55" x2="421" y1="490" y2="256" /><line stroke="rgb(100%,0%,0%)" stroke-width="0" x1="421" x2="104" y1="256" y2="149" /><line stroke="rgb(100%,0%,0%)" stroke-width="2" x1="104" x2="466" y1="149" y2="473" /><line stroke="rgb(100%,0%,0%)" stroke-width="2" x1="466" x2="54" y1="473" y2="70" /><line stroke="rgb(100%,0%,0%)" stroke-width="1" x1="54" x2="430" y1="70" y2="431" /><line stroke="rgb(100%,0%,0%)" stroke-width="0" x1="430" x2="452" y1="431" y2="115" /><line stroke="rgb(100%,0%,0%)" stroke-width="0" x1="452" x2="200" y1="115" y2="315" /><line stroke="rgb(100%,0%,0%)" stroke-width="0" x1="200" x2="439" y1="315" y2="421" /><line stroke="rgb(100%,0%,0%)" stroke-width="0" x1="439" x2="435" y1="421" y2="411" /><line stroke="rgb(100%,0%,0%)" stroke-width="1" x1="435" x2="484" y1="411" y2="194" /><line stroke="rgb(100%,0%,0%)" stroke-width="2" x1="484" x2="443" y1="194" y2="367" /></svg>