<?xml version="1.0" encoding="utf-8" ?>
<svg baseProfile="full" height="100%" version="1.1" width="100%" xmlns="http://www.w3.org/2000/svg" xmlns:ev="http://www.w3.org/2001/xml-events" xmlns:xlink="http://www.w3.org/1999/xlink"><defs /><rect fill="#000" height="500" width="500" x="0" y="0" /><line stroke="rgb(100%,0%,0%)" x1="473" x2="475" y1="226" y2="102" /><line stroke="rgb(100%,0%,0%)" x1="475" x2="210" y1="102" y2="412" /><line stroke="rgb(100%,0%,0%)" x1="210" x2="450" y1="412" y2="211" /><line stroke="rgb(100%,0%,0%)" x1="450" x2="275" y1="211" y2="183" /><line stroke="rgb(100%,0%,0%)" x1="275" x2="125" y1="183" y2="139" /><line stroke="rgb(100%,0%,0%)" x1="125" x2="160" y1="139" y2="22" /><line stroke="rgb(100%,0%,0%)" x1="160" x2="50" y1="22" y2="137" /><line stroke="rgb(100%,0%,0%)" x1="50" x2="358" y1="137" y2="49" /><line stroke="rgb(100%,0%,0%)" x1="358" x2="380" y1="49" y2="367" /><line stroke="rgb(100%,0%,0%)" x1="380" x2="25" y1="367" y2="446" /><line stroke="rgb(100%,0%,0%)" x1="25" x2="16" y1="446" y2="455" /><line stroke="rgb(100%,0%,0%)" x1="16" x2="227" y1="455" y2="305" /><line stroke="rgb(100%,0%,0%)" x1="227" x2="78" y1="305" y2="244" /><line stroke="rgb(100%,0%,0%)" x1="78" x2="30" y1="244" y2="11" /><line stroke="rgb(100%,0%,0%)" x1="30" x2="263" y1="11" y2="18" /><line stroke="rgb(100%,0%,0%)" x1="263" x2="190" y1="18" y2="134" /><line stroke="rgb(100%,0%,0%)" x1="190" x2="403" y1="134" y2="7" /><line stroke="rgb(100%,0%,0%)" x1="403" x2="135" y1="7" y2="147" /><line stroke="rgb(100%,0%,0%)" x1="135" x2="93" y1="147" y2="481" /><line stroke="rgb(100%,0%,0%)" x1="93" x2="19" y1="481" y2="37" /><line stroke="rgb(100%,0%,0%)" x1="19" x2="417" y1="37" y2="110" /><line stroke="rgb(100%,0%,0%)" x1="417" x2="256" y1="110" y2="41" /><line stroke="rgb(100%,0%,0%)" x1="256" x2="139" y1="41" y2="210" /><line stroke="rgb(100%,0%,0%)" x1="139" x2="266" y1="210" y2="271" /><line stroke="rgb(100%,0%,0%)" x1="266" x2="319" y1="271" y2="112" /><line stroke="rgb(100%,0%,0%)" x1="319" x2="439" y1="112" y2="364" /><line stroke="rgb(100%,0%,0%)" x1="439" x2="122" y1="364" y2="127" /><line stroke="rgb(100%,0%,0%)" x1="122" x2="243" y1="127" y2="304" /><line stroke="rgb(100%,0%,0%)" x1="243" x2="305" y1="304" y2="453" /><line stroke="rgb(100%,0%,0%)" x1="305" x2="494" y1="453" y2="492" /><line stroke="rgb(100%,0%,0%)" x1="494" x2="236" y1="492" y2="363" /><line stroke="rgb(100%,0%,0%)" x1="236" x2="271" y1="363" y2="327" /><line stroke="rgb(100%,0%,0%)" x1="271" x2="200" y1="327" y2="75" /><line stroke="rgb(100%,0%,0%)" x1="200" x2="258" y1="75" y2="416" /><line stroke="rgb(100%,0%,0%)" x1="258" x2="179" y1="416" y2="185" /><line stroke="rgb(100%,0%,0%)" x1="179" x2="414" y1="185" y2="369" /><line stroke="rgb(100%,0%,0%)" x1="414" x2="183" y1="369" y2="353" /><line stroke="rgb(100%,0%,0%)" x1="183" x2="138" y1="353" y2="261" /><line stroke="rgb(100%,0%,0%)" x1="138" x2="284" y1="261" y2="195" /><line stroke="rgb(100%,0%,0%)" x1="284" x2="500" y1="195" y2="346" /><line stroke="rgb(100%,0%,0%)" x1="500" x2="270" y1="346" y2="477" /><line stroke="rgb(100%,0%,0%)" x1="270" x2="90" y1="477" y2="331" /><line stroke="rgb(100%,0%,0%)" x1="90" x2="258" y1="331" y2="18" /><line stroke="rgb(100%,0%,0%)" x1="258" x2="402" y1="18" y2="337" /><line stroke="rgb(100%,0%,0%)" x1="402" x2="258" y1="337" y2="404" /></svg>