<?xml version="1.0" encoding="utf-8" ?>
<svg baseProfile="full" height="100%" version="1.1" width="100%" xmlns="http://www.w3.org/2000/svg" xmlns:ev="http://www.w3.org/2001/xml-events" xmlns:xlink="http://www.w3.org/1999/xlink"><defs /><rect fill="#000" height="500" width="500" x="0" y="0" /><line stroke="rgb(255,0,0)" stroke-width="1" x1="152" x2="251" y1="32" y2="34" /><line stroke="rgb(255,0,0)" stroke-width="1" x1="152" x2="474" y1="32" y2="388" /><line stroke="rgb(255,0,0)" stroke-width="1" x1="474" x2="378" y1="388" y2="336" /><line stroke="rgb(255,0,0)" stroke-width="1" x1="378" x2="451" y1="336" y2="410" /><line stroke="rgb(255,0,0)" stroke-width="1" x1="451" x2="388" y1="410" y2="97" /><line stroke="rgb(255,0,0)" stroke-width="1" x1="388" x2="362" y1="97" y2="64" /><line stroke="rgb(255,0,0)" stroke-width="1" x1="362" x2="164" y1="64" y2="236" /><line stroke="rgb(255,0,0)" stroke-width="1" x1="164" x2="167" y1="236" y2="251" /><line stroke="rgb(255,0,0)" stroke-width="1" x1="167" x2="183" y1="251" y2="280" /><line stroke="rgb(255,0,0)" stroke-width="1" x1="183" x2="441" y1="280" y2="144" /><line stroke="rgb(255,0,0)" stroke-width="1" x1="441" x2="27" y1="144" y2="279" /><line stroke="rgb(255,0,0)" stroke-width="1" x1="27" x2="130" y1="279" y2="205" /><line stroke="rgb(255,0,0)" stroke-width="1" x1="130" x2="445" y1="205" y2="6" /><line stroke="rgb(255,0,0)" stroke-width="1" x1="445" x2="269" y1="6" y2="280" /><line stroke="rgb(255,0,0)" stroke-width="1" x1="269" x2="249" y1="280" y2="357" /><line stroke="rgb(255,0,0)" stroke-width="1" x1="249" x2="471" y1="357" y2="375" /><line stroke="rgb(255,0,0)" stroke-width="1" x1="471" x2="186" y1="375" y2="496" /><line stroke="rgb(255,0,0)" stroke-width="1" x1="186" x2="145" y1="496" y2="108" /><line stroke="rgb(255,0,0)" stroke-width="1" x1="145" x2="8" y1="108" y2="149" /><line stroke="rgb(255,0,0)" stroke-width="1" x1="8" x2="453" y1="149" y2="114" /><line stroke="rgb(255,0,0)" stroke-width="1" x1="453" x2="53" y1="114" y2="221" /><line stroke="rgb(255,0,0)" stroke-width="1" x1="53" x2="468" y1="221" y2="90" /><line stroke="rgb(255,0,0)" stroke-width="1" x1="468" x2="244" y1="90" y2="118" /><line stroke="rgb(255,0,0)" stroke-width="1" x1="244" x2="118" y1="118" y2="312" /><line stroke="rgb(255,0,0)" stroke-width="1" x1="118" x2="275" y1="312" y2="423" /><line stroke="rgb(255,0,0)" stroke-width="1" x1="275" x2="358" y1="423" y2="160" /><line stroke="rgb(255,0,0)" stroke-width="1" x1="358" x2="162" y1="160" y2="270" /><line stroke="rgb(255,0,0)" stroke-width="1" x1="162" x2="248" y1="270" y2="239" /><line stroke="rgb(255,0,0)" stroke-width="1" x1="248" x2="9" y1="239" y2="314" /><line stroke="rgb(255,0,0)" stroke-width="1" x1="9" x2="69" y1="314" y2="438" /><line stroke="rgb(255,0,0)" stroke-width="1" x1="69" x2="1" y1="438" y2="63" /><line stroke="rgb(255,0,0)" stroke-width="1" x1="1" x2="385" y1="63" y2="201" /><line stroke="rgb(255,0,0)" stroke-width="1" x1="385" x2="332" y1="201" y2="262" /><line stroke="rgb(255,0,0)" stroke-width="1" x1="332" x2="300" y1="262" y2="2" /><line stroke="rgb(255,0,0)" stroke-width="1" x1="300" x2="163" y1="2" y2="465" /><line stroke="rgb(255,0,0)" stroke-width="1" x1="163" x2="174" y1="465" y2="224" /><line stroke="rgb(255,0,0)" stroke-width="1" x1="174" x2="182" y1="224" y2="157" /><line stroke="rgb(255,0,0)" stroke-width="1" x1="182" x2="17" y1="157" y2="356" /><line stroke="rgb(255,0,0)" stroke-width="1" x1="17" x2="218" y1="356" y2="351" /><line stroke="rgb(255,0,0)" stroke-width="1" x1="218" x2="483" y1="351" y2="151" /><line stroke="rgb(255,0,0)" stroke-width="1" x1="483" x2="457" y1="151" y2="385" /><line stroke="rgb(255,0,0)" stroke-width="1" x1="457" x2="402" y1="385" y2="146" /><line stroke="rgb(255,0,0)" stroke-width="1" x1="402" x2="237" y1="146" y2="84" /><line stroke="rgb(255,0,0)" stroke-width="1" x1="237" x2="88" y1="84" y2="404" /><line stroke="rgb(255,0,0)" stroke-width="1" x1="88" x2="452" y1="404" y2="326" /><line stroke="rgb(255,0,0)" stroke-width="1" x1="452" x2="63" y1="326" y2="120" /><line stroke="rgb(255,0,0)" stroke-width="1" x1="63" x2="185" y1="120" y2="98" /><line stroke="rgb(255,0,0)" stroke-width="1" x1="185" x2="251" y1="98" y2="34" /></svg>