<?xml version="1.0" encoding="utf-8" ?>
<svg baseProfile="full" height="100%" version="1.1" width="100%" xmlns="http://www.w3.org/2000/svg" xmlns:ev="http://www.w3.org/2001/xml-events" xmlns:xlink="http://www.w3.org/1999/xlink"><defs /><rect fill="#000" height="500" width="500" x="0" y="0" /><line stroke="rgb(255,0,0)" stroke-width="1" x1="485" x2="432" y1="13" y2="158" /><line stroke="rgb(255,0,0)" stroke-width="1" x1="432" x2="496" y1="158" y2="448" /><line stroke="rgb(255,0,0)" stroke-width="1" x1="496" x2="438" y1="448" y2="274" /><line stroke="rgb(255,0,0)" stroke-width="1" x1="438" x2="95" y1="274" y2="457" /><line stroke="rgb(255,0,0)" stroke-width="1" x1="95" x2="415" y1="457" y2="104" /><line stroke="rgb(255,0,0)" stroke-width="1" x1="415" x2="214" y1="104" y2="332" /><line stroke="rgb(255,0,0)" stroke-width="1" x1="214" x2="125" y1="332" y2="372" /><line stroke="rgb(255,0,0)" stroke-width="1" x1="125" x2="240" y1="372" y2="491" /><line stroke="rgb(255,0,0)" stroke-width="1" x1="240" x2="169" y1="491" y2="155" /><line stroke="rgb(255,0,0)" stroke-width="1" x1="169" x2="11" y1="155" y2="373" /><line stroke="rgb(255,0,0)" stroke-width="1" x1="11" x2="152" y1="373" y2="323" /><line stroke="rgb(255,0,0)" stroke-width="1" x1="152" x2="202" y1="323" y2="334" /><line stroke="rgb(255,0,0)" stroke-width="1" x1="202" x2="84" y1="334" y2="403" /><line stroke="rgb(255,0,0)" stroke-width="1" x1="84" x2="345" y1="403" y2="487" /><line stroke="rgb(255,0,0)" stroke-width="1" x1="345" x2="456" y1="487" y2="5" /><line stroke="rgb(255,0,0)" stroke-width="1" x1="456" x2="8" y1="5" y2="227" /><line stroke="rgb(255,0,0)" stroke-width="1" x1="8" x2="412" y1="227" y2="371" /><line stroke="rgb(255,0,0)" stroke-width="1" x1="412" x2="234" y1="371" y2="423" /><line stroke="rgb(255,0,0)" stroke-width="1" x1="234" x2="78" y1="423" y2="312" /><line stroke="rgb(255,0,0)" stroke-width="1" x1="78" x2="499" y1="312" y2="236" /><line stroke="rgb(255,0,0)" stroke-width="1" x1="499" x2="423" y1="236" y2="412" /><line stroke="rgb(255,0,0)" stroke-width="1" x1="423" x2="411" y1="412" y2="83" /><line stroke="rgb(255,0,0)" stroke-width="1" x1="411" x2="407" y1="83" y2="282" /><line stroke="rgb(255,0,0)" stroke-width="1" x1="407" x2="320" y1="282" y2="200" /><line stroke="rgb(255,0,0)" stroke-width="1" x1="320" x2="204" y1="200" y2="245" /><line stroke="rgb(255,0,0)" stroke-width="1" x1="204" x2="494" y1="245" y2="492" /><line stroke="rgb(255,0,0)" stroke-width="1" x1="494" x2="163" y1="492" y2="234" /><line stroke="rgb(255,0,0)" stroke-width="1" x1="163" x2="46" y1="234" y2="85" /><line stroke="rgb(255,0,0)" stroke-width="1" x1="46" x2="203" y1="85" y2="308" /><line stroke="rgb(255,0,0)" stroke-width="1" x1="203" x2="66" y1="308" y2="240" /><line stroke="rgb(255,0,0)" stroke-width="1" x1="66" x2="408" y1="240" y2="1" /><line stroke="rgb(255,0,0)" stroke-width="1" x1="408" x2="182" y1="1" y2="355" /><line stroke="rgb(255,0,0)" stroke-width="1" x1="182" x2="400" y1="355" y2="413" /><line stroke="rgb(255,0,0)" stroke-width="1" x1="400" x2="181" y1="413" y2="375" /><line stroke="rgb(255,0,0)" stroke-width="1" x1="181" x2="138" y1="375" y2="344" /><line stroke="rgb(255,0,0)" stroke-width="1" x1="138" x2="266" y1="344" y2="443" /><line stroke="rgb(255,0,0)" stroke-width="1" x1="266" x2="104" y1="443" y2="450" /><line stroke="rgb(255,0,0)" stroke-width="1" x1="104" x2="204" y1="450" y2="305" /><line stroke="rgb(255,0,0)" stroke-width="1" x1="204" x2="468" y1="305" y2="64" /><line stroke="rgb(255,0,0)" stroke-width="1" x1="468" x2="244" y1="64" y2="339" /><line stroke="rgb(255,0,0)" stroke-width="1" x1="244" x2="116" y1="339" y2="370" /><line stroke="rgb(255,0,0)" stroke-width="1" x1="116" x2="415" y1="370" y2="82" /><line stroke="rgb(255,0,0)" stroke-width="1" x1="415" x2="394" y1="82" y2="53" /><line stroke="rgb(255,0,0)" stroke-width="1" x1="394" x2="85" y1="53" y2="158" /><line stroke="rgb(255,0,0)" stroke-width="1" x1="85" x2="419" y1="158" y2="425" /><line stroke="rgb(255,0,0)" stroke-width="1" x1="419" x2="238" y1="425" y2="165" /><line stroke="rgb(255,0,0)" stroke-width="1" x1="238" x2="137" y1="165" y2="471" /><line stroke="rgb(255,0,0)" stroke-width="1" x1="137" x2="402" y1="471" y2="420" /></svg>