<?xml version="1.0" encoding="utf-8" ?>
<svg baseProfile="full" height="100%" version="1.1" width="100%" xmlns="http://www.w3.org/2000/svg" xmlns:ev="http://www.w3.org/2001/xml-events" xmlns:xlink="http://www.w3.org/1999/xlink"><defs /><rect fill="#000" height="500" width="500" x="0" y="0" /><line stroke="rgb(0,0,0)" stroke-width="2" x1="335" x2="48" y1="85" y2="145" /><line stroke="rgb(254,0,0)" stroke-width="1" x1="48" x2="484" y1="145" y2="94" /><line stroke="rgb(0,0,0)" stroke-width="2" x1="484" x2="456" y1="94" y2="88" /><line stroke="rgb(255,0,0)" stroke-width="0" x1="456" x2="202" y1="88" y2="88" /><line stroke="rgb(255,0,0)" stroke-width="0" x1="202" x2="389" y1="88" y2="216" /><line stroke="rgb(254,0,0)" stroke-width="1" x1="389" x2="55" y1="216" y2="20" /><line stroke="rgb(254,0,0)" stroke-width="1" x1="55" x2="447" y1="20" y2="112" /><line stroke="rgb(0,0,0)" stroke-width="2" x1="447" x2="198" y1="112" y2="67" /><line stroke="rgb(254,0,0)" stroke-width="1" x1="198" x2="92" y1="67" y2="486" /><line stroke="rgb(0,0,0)" stroke-width="2" x1="92" x2="259" y1="486" y2="306" /><line stroke="rgb(0,0,0)" stroke-width="2" x1="259" x2="201" y1="306" y2="223" /><line stroke="rgb(0,0,0)" stroke-width="2" x1="201" x2="217" y1="223" y2="146" /><line stroke="rgb(0,0,0)" stroke-width="2" x1="217" x2="29" y1="146" y2="377" /><line stroke="rgb(0,0,0)" stroke-width="2" x1="29" x2="223" y1="377" y2="8" /><line stroke="rgb(254,0,0)" stroke-width="1" x1="223" x2="108" y1="8" y2="244" /><line stroke="rgb(0,0,0)" stroke-width="2" x1="108" x2="18" y1="244" y2="453" /><line stroke="rgb(255,0,0)" stroke-width="0" x1="18" x2="61" y1="453" y2="53" /><line stroke="rgb(0,0,0)" stroke-width="2" x1="61" x2="140" y1="53" y2="250" /><line stroke="rgb(254,0,0)" stroke-width="1" x1="140" x2="322" y1="250" y2="264" /><line stroke="rgb(254,0,0)" stroke-width="1" x1="322" x2="43" y1="264" y2="232" /><line stroke="rgb(255,0,0)" stroke-width="0" x1="43" x2="186" y1="232" y2="60" /><line stroke="rgb(254,0,0)" stroke-width="1" x1="186" x2="414" y1="60" y2="369" /><line stroke="rgb(0,0,0)" stroke-width="2" x1="414" x2="436" y1="369" y2="283" /><line stroke="rgb(0,0,0)" stroke-width="2" x1="436" x2="182" y1="283" y2="276" /><line stroke="rgb(255,0,0)" stroke-width="0" x1="182" x2="125" y1="276" y2="264" /><line stroke="rgb(254,0,0)" stroke-width="1" x1="125" x2="469" y1="264" y2="387" /><line stroke="rgb(254,0,0)" stroke-width="1" x1="469" x2="21" y1="387" y2="66" /><line stroke="rgb(0,0,0)" stroke-width="2" x1="21" x2="346" y1="66" y2="399" /><line stroke="rgb(255,0,0)" stroke-width="0" x1="346" x2="6" y1="399" y2="82" /><line stroke="rgb(255,0,0)" stroke-width="0" x1="6" x2="134" y1="82" y2="260" /><line stroke="rgb(255,0,0)" stroke-width="0" x1="134" x2="297" y1="260" y2="365" /><line stroke="rgb(0,0,0)" stroke-width="2" x1="297" x2="345" y1="365" y2="422" /><line stroke="rgb(255,0,0)" stroke-width="0" x1="345" x2="485" y1="422" y2="396" /><line stroke="rgb(254,0,0)" stroke-width="1" x1="485" x2="297" y1="396" y2="354" /><line stroke="rgb(0,0,0)" stroke-width="2" x1="297" x2="75" y1="354" y2="147" /><line stroke="rgb(255,0,0)" stroke-width="0" x1="75" x2="188" y1="147" y2="158" /><line stroke="rgb(254,0,0)" stroke-width="1" x1="188" x2="477" y1="158" y2="100" /><line stroke="rgb(0,0,0)" stroke-width="2" x1="477" x2="23" y1="100" y2="498" /><line stroke="rgb(255,0,0)" stroke-width="0" x1="23" x2="159" y1="498" y2="368" /><line stroke="rgb(254,0,0)" stroke-width="1" x1="159" x2="0" y1="368" y2="283" /><line stroke="rgb(0,0,0)" stroke-width="2" x1="0" x2="190" y1="283" y2="107" /><line stroke="rgb(0,0,0)" stroke-width="2" x1="190" x2="333" y1="107" y2="8" /><line stroke="rgb(255,0,0)" stroke-width="0" x1="333" x2="12" y1="8" y2="328" /><line stroke="rgb(254,0,0)" stroke-width="1" x1="12" x2="59" y1="328" y2="134" /><line stroke="rgb(0,0,0)" stroke-width="2" x1="59" x2="96" y1="134" y2="380" /><line stroke="rgb(255,0,0)" stroke-width="0" x1="96" x2="396" y1="380" y2="292" /><line stroke="rgb(254,0,0)" stroke-width="1" x1="396" x2="92" y1="292" y2="97" /><line stroke="rgb(254,0,0)" stroke-width="1" x1="92" x2="212" y1="97" y2="127" /><line stroke="rgb(0,0,0)" stroke-width="2" x1="212" x2="370" y1="127" y2="408" /><line stroke="rgb(255,0,0)" stroke-width="0" x1="370" x2="383" y1="408" y2="121" /><line stroke="rgb(0,0,0)" stroke-width="2" x1="383" x2="219" y1="121" y2="412" /><line stroke="rgb(0,0,0)" stroke-width="2" x1="219" x2="317" y1="412" y2="75" /><line stroke="rgb(0,0,0)" stroke-width="2" x1="317" x2="391" y1="75" y2="381" /><line stroke="rgb(0,0,0)" stroke-width="2" x1="391" x2="209" y1="381" y2="377" /><line stroke="rgb(0,0,0)" stroke-width="2" x1="209" x2="473" y1="377" y2="262" /><line stroke="rgb(0,0,0)" stroke-width="2" x1="473" x2="468" y1="262" y2="428" /><line stroke="rgb(255,0,0)" stroke-width="0" x1="468" x2="102" y1="428" y2="436" /><line stroke="rgb(0,0,0)" stroke-width="2" x1="102" x2="199" y1="436" y2="405" /><line stroke="rgb(254,0,0)" stroke-width="1" x1="199" x2="348" y1="405" y2="229" /><line stroke="rgb(0,0,0)" stroke-width="2" x1="348" x2="120" y1="229" y2="163" /><line stroke="rgb(254,0,0)" stroke-width="1" x1="120" x2="180" y1="163" y2="134" /><line stroke="rgb(0,0,0)" stroke-width="2" x1="180" x2="77" y1="134" y2="128" /><line stroke="rgb(254,0,0)" stroke-width="1" x1="77" x2="481" y1="128" y2="53" /><line stroke="rgb(255,0,0)" stroke-width="0" x1="481" x2="91" y1="53" y2="440" /><line stroke="rgb(254,0,0)" stroke-width="1" x1="91" x2="53" y1="440" y2="55" /><line stroke="rgb(0,0,0)" stroke-width="2" x1="53" x2="145" y1="55" y2="188" /><line stroke="rgb(0,0,0)" stroke-width="2" x1="145" x2="384" y1="188" y2="302" /><line stroke="rgb(0,0,0)" stroke-width="2" x1="384" x2="200" y1="302" y2="302" /><line stroke="rgb(255,0,0)" stroke-width="0" x1="200" x2="420" y1="302" y2="100" /><line stroke="rgb(0,0,0)" stroke-width="2" x1="420" x2="206" y1="100" y2="43" /><line stroke="rgb(254,0,0)" stroke-width="1" x1="206" x2="442" y1="43" y2="60" /><line stroke="rgb(0,0,0)" stroke-width="2" x1="442" x2="429" y1="60" y2="116" /><line stroke="rgb(0,0,0)" stroke-width="2" x1="429" x2="132" y1="116" y2="264" /><line stroke="rgb(0,0,0)" stroke-width="2" x1="132" x2="143" y1="264" y2="59" /><line stroke="rgb(255,0,0)" stroke-width="0" x1="143" x2="458" y1="59" y2="127" /><line stroke="rgb(254,0,0)" stroke-width="1" x1="458" x2="164" y1="127" y2="244" /><line stroke="rgb(254,0,0)" stroke-width="1" x1="164" x2="0" y1="244" y2="27" /><line stroke="rgb(254,0,0)" stroke-width="1" x1="0" x2="19" y1="27" y2="235" /><line stroke="rgb(255,0,0)" stroke-width="0" x1="19" x2="472" y1="235" y2="471" /><line stroke="rgb(255,0,0)" stroke-width="0" x1="472" x2="284" y1="471" y2="353" /><line stroke="rgb(254,0,0)" stroke-width="1" x1="284" x2="47" y1="353" y2="448" /><line stroke="rgb(254,0,0)" stroke-width="1" x1="47" x2="478" y1="448" y2="419" /><line stroke="rgb(254,0,0)" stroke-width="1" x1="478" x2="245" y1="419" y2="42" /><line stroke="rgb(255,0,0)" stroke-width="0" x1="245" x2="384" y1="42" y2="109" /><line stroke="rgb(254,0,0)" stroke-width="1" x1="384" x2="259" y1="109" y2="254" /><line stroke="rgb(0,0,0)" stroke-width="2" x1="259" x2="419" y1="254" y2="474" /><line stroke="rgb(255,0,0)" stroke-width="0" x1="419" x2="376" y1="474" y2="469" /><line stroke="rgb(254,0,0)" stroke-width="1" x1="376" x2="304" y1="469" y2="295" /><line stroke="rgb(0,0,0)" stroke-width="2" x1="304" x2="123" y1="295" y2="394" /><line stroke="rgb(255,0,0)" stroke-width="0" x1="123" x2="440" y1="394" y2="462" /><line stroke="rgb(255,0,0)" stroke-width="0" x1="440" x2="248" y1="462" y2="367" /><line stroke="rgb(0,0,0)" stroke-width="2" x1="248" x2="334" y1="367" y2="116" /><line stroke="rgb(255,0,0)" stroke-width="0" x1="334" x2="203" y1="116" y2="387" /><line stroke="rgb(254,0,0)" stroke-width="1" x1="203" x2="182" y1="387" y2="371" /><line stroke="rgb(254,0,0)" stroke-width="1" x1="182" x2="418" y1="371" y2="278" /><line stroke="rgb(0,0,0)" stroke-width="2" x1="418" x2="111" y1="278" y2="159" /><line stroke="rgb(254,0,0)" stroke-width="1" x1="111" x2="182" y1="159" y2="441" /><line stroke="rgb(254,0,0)" stroke-width="1" x1="182" x2="330" y1="441" y2="405" /><line stroke="rgb(255,0,0)" stroke-width="0" x1="330" x2="439" y1="405" y2="308" /><line stroke="rgb(0,0,0)" stroke-width="2" x1="439" x2="36" y1="308" y2="488" /></svg>