<?xml version="1.0" encoding="utf-8" ?>
<svg baseProfile="full" height="100%" version="1.1" width="100%" xmlns="http://www.w3.org/2000/svg" xmlns:ev="http://www.w3.org/2001/xml-events" xmlns:xlink="http://www.w3.org/1999/xlink"><defs /><rect fill="#000" height="500" width="500" x="0" y="0" /><line stroke="rgb(100%,0%,0%)" stroke-width="2" x1="371" x2="327" y1="296" y2="358" /><line stroke="rgb(100%,0%,0%)" stroke-width="0" x1="327" x2="332" y1="358" y2="459" /><line stroke="rgb(100%,0%,0%)" stroke-width="2" x1="332" x2="430" y1="459" y2="424" /><line stroke="rgb(100%,0%,0%)" stroke-width="0" x1="430" x2="131" y1="424" y2="61" /><line stroke="rgb(100%,0%,0%)" stroke-width="2" x1="131" x2="244" y1="61" y2="128" /><line stroke="rgb(100%,0%,0%)" stroke-width="0" x1="244" x2="67" y1="128" y2="27" /><line stroke="rgb(100%,0%,0%)" stroke-width="0" x1="67" x2="476" y1="27" y2="28" /><line stroke="rgb(100%,0%,0%)" stroke-width="2" x1="476" x2="103" y1="28" y2="147" /><line stroke="rgb(100%,0%,0%)" stroke-width="1" x1="103" x2="379" y1="147" y2="172" /><line stroke="rgb(100%,0%,0%)" stroke-width="2" x1="379" x2="125" y1="172" y2="449" /><line stroke="rgb(100%,0%,0%)" stroke-width="1" x1="125" x2="243" y1="449" y2="28" /><line stroke="rgb(100%,0%,0%)" stroke-width="1" x1="243" x2="72" y1="28" y2="198" /><line stroke="rgb(100%,0%,0%)" stroke-width="2" x1="72" x2="207" y1="198" y2="411" /><line stroke="rgb(100%,0%,0%)" stroke-width="2" x1="207" x2="249" y1="411" y2="115" /><line stroke="rgb(100%,0%,0%)" stroke-width="1" x1="249" x2="277" y1="115" y2="38" /><line stroke="rgb(100%,0%,0%)" stroke-width="1" x1="277" x2="422" y1="38" y2="425" /><line stroke="rgb(100%,0%,0%)" stroke-width="0" x1="422" x2="363" y1="425" y2="157" /><line stroke="rgb(100%,0%,0%)" stroke-width="2" x1="363" x2="164" y1="157" y2="294" /><line stroke="rgb(100%,0%,0%)" stroke-width="0" x1="164" x2="65" y1="294" y2="221" /><line stroke="rgb(100%,0%,0%)" stroke-width="0" x1="65" x2="34" y1="221" y2="391" /><line stroke="rgb(100%,0%,0%)" stroke-width="1" x1="34" x2="426" y1="391" y2="465" /><line stroke="rgb(100%,0%,0%)" stroke-width="2" x1="426" x2="426" y1="465" y2="244" /><line stroke="rgb(100%,0%,0%)" stroke-width="2" x1="426" x2="216" y1="244" y2="185" /><line stroke="rgb(100%,0%,0%)" stroke-width="2" x1="216" x2="470" y1="185" y2="293" /><line stroke="rgb(100%,0%,0%)" stroke-width="0" x1="470" x2="430" y1="293" y2="438" /><line stroke="rgb(100%,0%,0%)" stroke-width="2" x1="430" x2="277" y1="438" y2="435" /><line stroke="rgb(100%,0%,0%)" stroke-width="2" x1="277" x2="121" y1="435" y2="75" /><line stroke="rgb(100%,0%,0%)" stroke-width="0" x1="121" x2="194" y1="75" y2="350" /><line stroke="rgb(100%,0%,0%)" stroke-width="2" x1="194" x2="336" y1="350" y2="194" /><line stroke="rgb(100%,0%,0%)" stroke-width="0" x1="336" x2="248" y1="194" y2="438" /><line stroke="rgb(100%,0%,0%)" stroke-width="2" x1="248" x2="393" y1="438" y2="215" /><line stroke="rgb(100%,0%,0%)" stroke-width="2" x1="393" x2="392" y1="215" y2="56" /><line stroke="rgb(100%,0%,0%)" stroke-width="2" x1="392" x2="350" y1="56" y2="334" /><line stroke="rgb(100%,0%,0%)" stroke-width="0" x1="350" x2="94" y1="334" y2="458" /><line stroke="rgb(100%,0%,0%)" stroke-width="2" x1="94" x2="484" y1="458" y2="129" /><line stroke="rgb(100%,0%,0%)" stroke-width="2" x1="484" x2="157" y1="129" y2="64" /><line stroke="rgb(100%,0%,0%)" stroke-width="0" x1="157" x2="184" y1="64" y2="37" /><line stroke="rgb(100%,0%,0%)" stroke-width="2" x1="184" x2="449" y1="37" y2="489" /><line stroke="rgb(100%,0%,0%)" stroke-width="0" x1="449" x2="239" y1="489" y2="74" /><line stroke="rgb(100%,0%,0%)" stroke-width="0" x1="239" x2="274" y1="74" y2="358" /><line stroke="rgb(100%,0%,0%)" stroke-width="0" x1="274" x2="73" y1="358" y2="438" /><line stroke="rgb(100%,0%,0%)" stroke-width="0" x1="73" x2="473" y1="438" y2="426" /><line stroke="rgb(100%,0%,0%)" stroke-width="2" x1="473" x2="296" y1="426" y2="33" /><line stroke="rgb(100%,0%,0%)" stroke-width="1" x1="296" x2="479" y1="33" y2="249" /><line stroke="rgb(100%,0%,0%)" stroke-width="1" x1="479" x2="491" y1="249" y2="199" /><line stroke="rgb(100%,0%,0%)" stroke-width="2" x1="491" x2="19" y1="199" y2="218" /><line stroke="rgb(100%,0%,0%)" stroke-width="2" x1="19" x2="341" y1="218" y2="475" /><line stroke="rgb(100%,0%,0%)" stroke-width="1" x1="341" x2="310" y1="475" y2="87" /><line stroke="rgb(100%,0%,0%)" stroke-width="0" x1="310" x2="447" y1="87" y2="92" /><line stroke="rgb(100%,0%,0%)" stroke-width="0" x1="447" x2="293" y1="92" y2="89" /><line stroke="rgb(100%,0%,0%)" stroke-width="2" x1="293" x2="87" y1="89" y2="49" /><line stroke="rgb(100%,0%,0%)" stroke-width="0" x1="87" x2="40" y1="49" y2="402" /><line stroke="rgb(100%,0%,0%)" stroke-width="1" x1="40" x2="49" y1="402" y2="277" /><line stroke="rgb(100%,0%,0%)" stroke-width="2" x1="49" x2="101" y1="277" y2="215" /><line stroke="rgb(100%,0%,0%)" stroke-width="2" x1="101" x2="156" y1="215" y2="291" /><line stroke="rgb(100%,0%,0%)" stroke-width="0" x1="156" x2="375" y1="291" y2="202" /><line stroke="rgb(100%,0%,0%)" stroke-width="1" x1="375" x2="222" y1="202" y2="72" /><line stroke="rgb(100%,0%,0%)" stroke-width="1" x1="222" x2="243" y1="72" y2="337" /><line stroke="rgb(100%,0%,0%)" stroke-width="1" x1="243" x2="460" y1="337" y2="129" /><line stroke="rgb(100%,0%,0%)" stroke-width="0" x1="460" x2="255" y1="129" y2="114" /><line stroke="rgb(100%,0%,0%)" stroke-width="1" x1="255" x2="493" y1="114" y2="440" /><line stroke="rgb(100%,0%,0%)" stroke-width="0" x1="493" x2="200" y1="440" y2="219" /><line stroke="rgb(100%,0%,0%)" stroke-width="2" x1="200" x2="484" y1="219" y2="440" /><line stroke="rgb(100%,0%,0%)" stroke-width="0" x1="484" x2="164" y1="440" y2="25" /><line stroke="rgb(100%,0%,0%)" stroke-width="2" x1="164" x2="147" y1="25" y2="254" /><line stroke="rgb(100%,0%,0%)" stroke-width="2" x1="147" x2="436" y1="254" y2="243" /><line stroke="rgb(100%,0%,0%)" stroke-width="0" x1="436" x2="212" y1="243" y2="0" /><line stroke="rgb(100%,0%,0%)" stroke-width="0" x1="212" x2="355" y1="0" y2="384" /><line stroke="rgb(100%,0%,0%)" stroke-width="0" x1="355" x2="378" y1="384" y2="266" /><line stroke="rgb(100%,0%,0%)" stroke-width="2" x1="378" x2="4" y1="266" y2="85" /><line stroke="rgb(100%,0%,0%)" stroke-width="1" x1="4" x2="239" y1="85" y2="438" /><line stroke="rgb(100%,0%,0%)" stroke-width="2" x1="239" x2="471" y1="438" y2="126" /><line stroke="rgb(100%,0%,0%)" stroke-width="2" x1="471" x2="80" y1="126" y2="193" /><line stroke="rgb(100%,0%,0%)" stroke-width="1" x1="80" x2="358" y1="193" y2="385" /><line stroke="rgb(100%,0%,0%)" stroke-width="2" x1="358" x2="141" y1="385" y2="333" /><line stroke="rgb(100%,0%,0%)" stroke-width="2" x1="141" x2="235" y1="333" y2="378" /><line stroke="rgb(100%,0%,0%)" stroke-width="0" x1="235" x2="331" y1="378" y2="96" /><line stroke="rgb(100%,0%,0%)" stroke-width="2" x1="331" x2="368" y1="96" y2="243" /><line stroke="rgb(100%,0%,0%)" stroke-width="1" x1="368" x2="214" y1="243" y2="216" /><line stroke="rgb(100%,0%,0%)" stroke-width="0" x1="214" x2="432" y1="216" y2="208" /><line stroke="rgb(100%,0%,0%)" stroke-width="2" x1="432" x2="48" y1="208" y2="492" /><line stroke="rgb(100%,0%,0%)" stroke-width="1" x1="48" x2="334" y1="492" y2="44" /><line stroke="rgb(100%,0%,0%)" stroke-width="2" x1="334" x2="217" y1="44" y2="116" /><line stroke="rgb(100%,0%,0%)" stroke-width="2" x1="217" x2="344" y1="116" y2="454" /><line stroke="rgb(100%,0%,0%)" stroke-width="2" x1="344" x2="10" y1="454" y2="441" /><line stroke="rgb(100%,0%,0%)" stroke-width="2" x1="10" x2="369" y1="441" y2="1" /><line stroke="rgb(100%,0%,0%)" stroke-width="2" x1="369" x2="136" y1="1" y2="276" /><line stroke="rgb(100%,0%,0%)" stroke-width="0" x1="136" x2="179" y1="276" y2="208" /><line stroke="rgb(100%,0%,0%)" stroke-width="1" x1="179" x2="197" y1="208" y2="121" /><line stroke="rgb(100%,0%,0%)" stroke-width="2" x1="197" x2="40" y1="121" y2="133" /><line stroke="rgb(100%,0%,0%)" stroke-width="0" x1="40" x2="59" y1="133" y2="282" /><line stroke="rgb(100%,0%,0%)" stroke-width="0" x1="59" x2="303" y1="282" y2="327" /><line stroke="rgb(100%,0%,0%)" stroke-width="2" x1="303" x2="287" y1="327" y2="194" /><line stroke="rgb(100%,0%,0%)" stroke-width="2" x1="287" x2="67" y1="194" y2="134" /><line stroke="rgb(100%,0%,0%)" stroke-width="0" x1="67" x2="307" y1="134" y2="300" /><line stroke="rgb(100%,0%,0%)" stroke-width="2" x1="307" x2="320" y1="300" y2="85" /><line stroke="rgb(100%,0%,0%)" stroke-width="2" x1="320" x2="393" y1="85" y2="279" /><line stroke="rgb(100%,0%,0%)" stroke-width="0" x1="393" x2="60" y1="279" y2="317" /><line stroke="rgb(100%,0%,0%)" stroke-width="0" x1="60" x2="75" y1="317" y2="269" /><line stroke="rgb(100%,0%,0%)" stroke-width="1" x1="75" x2="174" y1="269" y2="381" /></svg>